<svg viewBox="0 0 180 1080" xmlns="http://www.w3.org/2000/svg">

    <rect x="120" y="20" width="19" height="19"></rect>
    <rect x="140" y="20" width="19" height="19"></rect>
    <rect x="20" y="40" width="19" height="19"></rect>
    <rect x="40" y="40" width="19" height="19"></rect>
    <rect x="60" y="40" width="19" height="19"></rect>
    <rect x="80" y="40" width="19" height="19"></rect>
    <rect x="100" y="40" width="19" height="19"></rect>
    <rect x="120" y="40" width="19" height="19"></rect>
    <rect x="140" y="40" width="19" height="19"></rect>
    <rect x="20" y="60" width="19" height="19"></rect>
    <rect x="40" y="60" width="19" height="19"></rect>
    <rect x="60" y="60" width="19" height="19"></rect>
    <rect x="80" y="60" width="19" height="19"></rect>
    <rect x="100" y="60" width="19" height="19"></rect>
    <rect x="120" y="60" width="19" height="19"></rect>
    <rect x="140" y="60" width="19" height="19"></rect>
    <rect x="20" y="80" width="19" height="19"></rect>
    <rect x="40" y="80" width="19" height="19"></rect>
    <rect x="60" y="80" width="19" height="19"></rect>
    <rect x="80" y="80" width="19" height="19"></rect>
    <rect x="100" y="80" width="19" height="19"></rect>
    <rect x="120" y="80" width="19" height="19"></rect>
    <rect x="140" y="80" width="19" height="19"></rect>
    <rect x="20" y="100" width="19" height="19"></rect>
    <rect x="40" y="100" width="19" height="19"></rect>
    <rect x="60" y="100" width="19" height="19"></rect>
    <rect x="80" y="100" width="19" height="19"></rect>
    <rect x="100" y="100" width="19" height="19"></rect>
    <rect x="120" y="100" width="19" height="19"></rect>
    <rect x="140" y="100" width="19" height="19"></rect>
    <rect x="20" y="120" width="19" height="19"></rect>
    <rect x="40" y="120" width="19" height="19"></rect>
    <rect x="60" y="120" width="19" height="19"></rect>
    <rect x="80" y="120" width="19" height="19"></rect>
    <rect x="100" y="120" width="19" height="19"></rect>
    <rect x="120" y="120" width="19" height="19"></rect>
    <rect x="140" y="120" width="19" height="19"></rect>
    <rect x="20" y="140" width="19" height="19"></rect>
    <rect x="40" y="140" width="19" height="19"></rect>
    <rect x="60" y="140" width="19" height="19"></rect>
    <rect x="80" y="140" width="19" height="19"></rect>
    <rect x="100" y="140" width="19" height="19"></rect>
    <rect x="120" y="140" width="19" height="19"></rect>
    <rect x="140" y="140" width="19" height="19"></rect>
    <rect x="20" y="160" width="19" height="19"></rect>
    <rect x="40" y="160" width="19" height="19"></rect>
    <rect x="60" y="160" width="19" height="19"></rect>
    <rect x="80" y="160" width="19" height="19"></rect>
    <rect x="100" y="160" width="19" height="19"></rect>
    <rect x="120" y="160" width="19" height="19"></rect>
    <rect x="140" y="160" width="19" height="19"></rect>
    <rect x="20" y="180" width="19" height="19"></rect>
    <rect x="40" y="180" width="19" height="19"></rect>
    <rect x="60" y="180" width="19" height="19"></rect>
    <rect x="80" y="180" width="19" height="19"></rect>
    <rect x="100" y="180" width="19" height="19"></rect>
    <rect x="120" y="180" width="19" height="19"></rect>
    <rect x="140" y="180" width="19" height="19"></rect>
    <rect x="20" y="200" width="19" height="19"></rect>
    <rect x="40" y="200" width="19" height="19"></rect>
    <rect x="60" y="200" width="19" height="19"></rect>
    <rect x="80" y="200" width="19" height="19"></rect>
    <rect x="100" y="200" width="19" height="19"></rect>
    <rect x="120" y="200" width="19" height="19"></rect>
    <rect x="140" y="200" width="19" height="19"></rect>
    <rect x="20" y="220" width="19" height="19"></rect>
    <rect x="40" y="220" width="19" height="19"></rect>
    <rect x="60" y="220" width="19" height="19"></rect>
    <rect x="80" y="220" width="19" height="19"></rect>
    <rect x="100" y="220" width="19" height="19"></rect>
    <rect x="120" y="220" width="19" height="19"></rect>
    <rect x="140" y="220" width="19" height="19"></rect>
    <rect x="20" y="240" width="19" height="19"></rect>
    <rect x="40" y="240" width="19" height="19"></rect>
    <rect x="60" y="240" width="19" height="19"></rect>
    <rect x="80" y="240" width="19" height="19"></rect>
    <rect x="100" y="240" width="19" height="19"></rect>
    <rect x="120" y="240" width="19" height="19"></rect>
    <rect x="140" y="240" width="19" height="19"></rect>
    <rect x="20" y="260" width="19" height="19"></rect>
    <rect x="40" y="260" width="19" height="19"></rect>
    <rect x="60" y="260" width="19" height="19"></rect>
    <rect x="80" y="260" width="19" height="19"></rect>
    <rect x="100" y="260" width="19" height="19"></rect>
    <rect x="120" y="260" width="19" height="19"></rect>
    <rect x="140" y="260" width="19" height="19"></rect>
    <rect x="20" y="280" width="19" height="19"></rect>
    <rect x="40" y="280" width="19" height="19"></rect>
    <rect x="60" y="280" width="19" height="19"></rect>
    <rect x="80" y="280" width="19" height="19"></rect>
    <rect x="100" y="280" width="19" height="19"></rect>
    <rect x="120" y="280" width="19" height="19"></rect>
    <rect x="140" y="280" width="19" height="19"></rect>
    <rect x="20" y="300" width="19" height="19"></rect>
    <rect x="40" y="300" width="19" height="19"></rect>
    <rect x="60" y="300" width="19" height="19"></rect>
    <rect x="80" y="300" width="19" height="19"></rect>
    <rect x="100" y="300" width="19" height="19"></rect>
    <rect x="120" y="300" width="19" height="19"></rect>
    <rect x="140" y="300" width="19" height="19"></rect>
    <rect x="20" y="320" width="19" height="19"></rect>
    <rect x="40" y="320" width="19" height="19"></rect>
    <rect x="60" y="320" width="19" height="19"></rect>
    <rect x="80" y="320" width="19" height="19"></rect>
    <rect x="100" y="320" width="19" height="19"></rect>
    <rect x="120" y="320" width="19" height="19"></rect>
    <rect x="140" y="320" width="19" height="19"></rect>
    <rect x="20" y="340" width="19" height="19"></rect>
    <rect x="40" y="340" width="19" height="19"></rect>
    <rect x="60" y="340" width="19" height="19"></rect>
    <rect x="80" y="340" width="19" height="19"></rect>
    <rect x="100" y="340" width="19" height="19"></rect>
    <rect x="120" y="340" width="19" height="19"></rect>
    <rect x="140" y="340" width="19" height="19"></rect>
    <rect x="20" y="360" width="19" height="19"></rect>
    <rect x="40" y="360" width="19" height="19"></rect>
    <rect x="60" y="360" width="19" height="19"></rect>
    <rect x="80" y="360" width="19" height="19"></rect>
    <rect x="100" y="360" width="19" height="19"></rect>
    <rect x="120" y="360" width="19" height="19"></rect>
    <rect x="140" y="360" width="19" height="19"></rect>
    <rect x="20" y="380" width="19" height="19"></rect>
    <rect x="40" y="380" width="19" height="19"></rect>
    <rect x="60" y="380" width="19" height="19"></rect>
    <rect x="80" y="380" width="19" height="19"></rect>
    <rect x="100" y="380" width="19" height="19"></rect>
    <rect x="120" y="380" width="19" height="19"></rect>
    <rect x="140" y="380" width="19" height="19"></rect>
    <rect x="20" y="400" width="19" height="19"></rect>
    <rect x="40" y="400" width="19" height="19"></rect>
    <rect x="60" y="400" width="19" height="19"></rect>
    <rect x="80" y="400" width="19" height="19"></rect>
    <rect x="100" y="400" width="19" height="19"></rect>
    <rect x="120" y="400" width="19" height="19"></rect>
    <rect x="140" y="400" width="19" height="19"></rect>
    <rect x="20" y="420" width="19" height="19"></rect>
    <rect x="40" y="420" width="19" height="19"></rect>
    <rect x="60" y="420" width="19" height="19"></rect>
    <rect x="80" y="420" width="19" height="19"></rect>
    <rect x="100" y="420" width="19" height="19"></rect>
    <rect x="120" y="420" width="19" height="19"></rect>
    <rect x="140" y="420" width="19" height="19"></rect>
    <rect x="20" y="440" width="19" height="19"></rect>
    <rect x="40" y="440" width="19" height="19"></rect>
    <rect x="60" y="440" width="19" height="19"></rect>
    <rect x="80" y="440" width="19" height="19"></rect>
    <rect x="100" y="440" width="19" height="19"></rect>
    <rect x="120" y="440" width="19" height="19"></rect>
    <rect x="140" y="440" width="19" height="19"></rect>
    <rect x="20" y="460" width="19" height="19"></rect>
    <rect x="40" y="460" width="19" height="19"></rect>
    <rect x="60" y="460" width="19" height="19"></rect>
    <rect x="80" y="460" width="19" height="19"></rect>
    <rect x="100" y="460" width="19" height="19"></rect>
    <rect x="120" y="460" width="19" height="19"></rect>
    <rect x="140" y="460" width="19" height="19"></rect>
    <rect x="20" y="480" width="19" height="19"></rect>
    <rect x="40" y="480" width="19" height="19"></rect>
    <rect x="60" y="480" width="19" height="19"></rect>
    <rect x="80" y="480" width="19" height="19"></rect>
    <rect x="100" y="480" width="19" height="19"></rect>
    <rect x="120" y="480" width="19" height="19"></rect>
    <rect x="140" y="480" width="19" height="19"></rect>
    <rect x="20" y="500" width="19" height="19"></rect>
    <rect x="40" y="500" width="19" height="19"></rect>
    <rect x="60" y="500" width="19" height="19"></rect>
    <rect x="80" y="500" width="19" height="19"></rect>
    <rect x="100" y="500" width="19" height="19"></rect>
    <rect x="120" y="500" width="19" height="19"></rect>
    <rect x="140" y="500" width="19" height="19"></rect>
    <rect x="20" y="520" width="19" height="19"></rect>
    <rect x="40" y="520" width="19" height="19"></rect>
    <rect x="60" y="520" width="19" height="19"></rect>
    <rect x="80" y="520" width="19" height="19"></rect>
    <rect x="100" y="520" width="19" height="19"></rect>
    <rect x="120" y="520" width="19" height="19"></rect>
    <rect x="140" y="520" width="19" height="19"></rect>
    <rect x="20" y="540" width="19" height="19"></rect>
    <rect x="40" y="540" width="19" height="19"></rect>
    <rect x="60" y="540" width="19" height="19"></rect>
    <rect x="80" y="540" width="19" height="19"></rect>
    <rect x="100" y="540" width="19" height="19"></rect>
    <rect x="120" y="540" width="19" height="19"></rect>
    <rect x="140" y="540" width="19" height="19"></rect>
    <rect x="20" y="560" width="19" height="19"></rect>
    <rect x="40" y="560" width="19" height="19"></rect>
    <rect x="60" y="560" width="19" height="19"></rect>
    <rect x="80" y="560" width="19" height="19"></rect>
    <rect x="100" y="560" width="19" height="19"></rect>
    <rect x="120" y="560" width="19" height="19"></rect>
    <rect x="140" y="560" width="19" height="19"></rect>
    <rect x="20" y="580" width="19" height="19"></rect>
    <rect x="40" y="580" width="19" height="19"></rect>
    <rect x="60" y="580" width="19" height="19"></rect>
    <rect x="80" y="580" width="19" height="19"></rect>
    <rect x="100" y="580" width="19" height="19"></rect>
    <rect x="120" y="580" width="19" height="19"></rect>
    <rect x="140" y="580" width="19" height="19"></rect>
    <rect x="20" y="600" width="19" height="19"></rect>
    <rect x="40" y="600" width="19" height="19"></rect>
    <rect x="60" y="600" width="19" height="19"></rect>
    <rect x="80" y="600" width="19" height="19"></rect>
    <rect x="100" y="600" width="19" height="19"></rect>
    <rect x="120" y="600" width="19" height="19"></rect>
    <rect x="140" y="600" width="19" height="19"></rect>
    <rect x="20" y="620" width="19" height="19"></rect>
    <rect x="40" y="620" width="19" height="19"></rect>
    <rect x="60" y="620" width="19" height="19"></rect>
    <rect x="80" y="620" width="19" height="19"></rect>
    <rect x="100" y="620" width="19" height="19"></rect>
    <rect x="120" y="620" width="19" height="19"></rect>
    <rect x="140" y="620" width="19" height="19"></rect>
    <rect x="20" y="640" width="19" height="19"></rect>
    <rect x="40" y="640" width="19" height="19"></rect>
    <rect x="60" y="640" width="19" height="19"></rect>
    <rect x="80" y="640" width="19" height="19"></rect>
    <rect x="100" y="640" width="19" height="19"></rect>
    <rect x="120" y="640" width="19" height="19"></rect>
    <rect x="140" y="640" width="19" height="19"></rect>
    <rect x="20" y="660" width="19" height="19"></rect>
    <rect x="40" y="660" width="19" height="19"></rect>
    <rect x="60" y="660" width="19" height="19"></rect>
    <rect x="80" y="660" width="19" height="19"></rect>
    <rect x="100" y="660" width="19" height="19"></rect>
    <rect x="120" y="660" width="19" height="19"></rect>
    <rect x="140" y="660" width="19" height="19"></rect>
    <rect x="20" y="680" width="19" height="19"></rect>
    <rect x="40" y="680" width="19" height="19"></rect>
    <rect x="60" y="680" width="19" height="19"></rect>
    <rect x="80" y="680" width="19" height="19"></rect>
    <rect x="100" y="680" width="19" height="19"></rect>
    <rect x="120" y="680" width="19" height="19"></rect>
    <rect x="140" y="680" width="19" height="19"></rect>
    <rect x="20" y="700" width="19" height="19"></rect>
    <rect x="40" y="700" width="19" height="19"></rect>
    <rect x="60" y="700" width="19" height="19"></rect>
    <rect x="80" y="700" width="19" height="19"></rect>
    <rect x="100" y="700" width="19" height="19"></rect>
    <rect x="120" y="700" width="19" height="19"></rect>
    <rect x="140" y="700" width="19" height="19"></rect>
    <rect x="20" y="720" width="19" height="19"></rect>
    <rect x="40" y="720" width="19" height="19"></rect>
    <rect x="60" y="720" width="19" height="19"></rect>
    <rect x="80" y="720" width="19" height="19"></rect>
    <rect x="100" y="720" width="19" height="19"></rect>
    <rect x="120" y="720" width="19" height="19"></rect>
    <rect x="140" y="720" width="19" height="19"></rect>
    <rect x="20" y="740" width="19" height="19"></rect>
    <rect x="40" y="740" width="19" height="19"></rect>
    <rect x="60" y="740" width="19" height="19"></rect>
    <rect x="80" y="740" width="19" height="19"></rect>
    <rect x="100" y="740" width="19" height="19"></rect>
    <rect x="120" y="740" width="19" height="19"></rect>
    <rect x="140" y="740" width="19" height="19"></rect>
    <rect x="20" y="760" width="19" height="19"></rect>
    <rect x="40" y="760" width="19" height="19"></rect>
    <rect x="60" y="760" width="19" height="19"></rect>
    <rect x="80" y="760" width="19" height="19"></rect>
    <rect x="100" y="760" width="19" height="19"></rect>
    <rect x="120" y="760" width="19" height="19"></rect>
    <rect x="140" y="760" width="19" height="19"></rect>
    <rect x="20" y="780" width="19" height="19"></rect>
    <rect x="40" y="780" width="19" height="19"></rect>
    <rect x="60" y="780" width="19" height="19"></rect>
    <rect x="80" y="780" width="19" height="19"></rect>
    <rect x="100" y="780" width="19" height="19"></rect>
    <rect x="120" y="780" width="19" height="19"></rect>
    <rect x="140" y="780" width="19" height="19"></rect>
    <rect x="20" y="800" width="19" height="19"></rect>
    <rect x="40" y="800" width="19" height="19"></rect>
    <rect x="60" y="800" width="19" height="19"></rect>
    <rect x="80" y="800" width="19" height="19"></rect>
    <rect x="100" y="800" width="19" height="19"></rect>
    <rect x="120" y="800" width="19" height="19"></rect>
    <rect x="140" y="800" width="19" height="19"></rect>
    <rect x="20" y="820" width="19" height="19"></rect>
    <rect x="40" y="820" width="19" height="19"></rect>
    <rect x="60" y="820" width="19" height="19"></rect>
    <rect x="80" y="820" width="19" height="19"></rect>
    <rect x="100" y="820" width="19" height="19"></rect>
    <rect x="120" y="820" width="19" height="19"></rect>
    <rect x="140" y="820" width="19" height="19"></rect>
    <rect x="20" y="840" width="19" height="19"></rect>
    <rect x="40" y="840" width="19" height="19"></rect>
    <rect x="60" y="840" width="19" height="19"></rect>
    <rect x="80" y="840" width="19" height="19"></rect>
    <rect x="100" y="840" width="19" height="19"></rect>
    <rect x="120" y="840" width="19" height="19"></rect>
    <rect x="140" y="840" width="19" height="19"></rect>
    <rect x="20" y="860" width="19" height="19"></rect>
    <rect x="40" y="860" width="19" height="19"></rect>
    <rect x="60" y="860" width="19" height="19"></rect>
    <rect x="80" y="860" width="19" height="19"></rect>
    <rect x="100" y="860" width="19" height="19"></rect>
    <rect x="120" y="860" width="19" height="19"></rect>
    <rect x="140" y="860" width="19" height="19"></rect>
    <rect x="20" y="880" width="19" height="19"></rect>
    <rect x="40" y="880" width="19" height="19"></rect>
    <rect x="60" y="880" width="19" height="19"></rect>
    <rect x="80" y="880" width="19" height="19"></rect>
    <rect x="100" y="880" width="19" height="19"></rect>
    <rect x="120" y="880" width="19" height="19"></rect>
    <rect x="140" y="880" width="19" height="19"></rect>
    <rect x="20" y="900" width="19" height="19"></rect>
    <rect x="40" y="900" width="19" height="19"></rect>
    <rect x="60" y="900" width="19" height="19"></rect>
    <rect x="80" y="900" width="19" height="19"></rect>
    <rect x="100" y="900" width="19" height="19"></rect>
    <rect x="120" y="900" width="19" height="19"></rect>
    <rect x="140" y="900" width="19" height="19"></rect>
    <rect x="20" y="920" width="19" height="19"></rect>
    <rect x="40" y="920" width="19" height="19"></rect>
    <rect x="60" y="920" width="19" height="19"></rect>
    <rect x="80" y="920" width="19" height="19"></rect>
    <rect x="100" y="920" width="19" height="19"></rect>
    <rect x="120" y="920" width="19" height="19"></rect>
    <rect x="140" y="920" width="19" height="19"></rect>
    <rect x="20" y="940" width="19" height="19"></rect>
    <rect x="40" y="940" width="19" height="19"></rect>
    <rect x="60" y="940" width="19" height="19"></rect>
    <rect x="80" y="940" width="19" height="19"></rect>
    <rect x="100" y="940" width="19" height="19"></rect>
    <rect x="120" y="940" width="19" height="19"></rect>
    <rect x="140" y="940" width="19" height="19"></rect>
    <rect x="20" y="960" width="19" height="19"></rect>
    <rect x="40" y="960" width="19" height="19"></rect>
    <rect x="60" y="960" width="19" height="19"></rect>
    <rect x="80" y="960" width="19" height="19"></rect>
    <rect x="100" y="960" width="19" height="19"></rect>
    <rect x="120" y="960" width="19" height="19"></rect>
    <rect x="140" y="960" width="19" height="19"></rect>
    <rect x="20" y="980" width="19" height="19"></rect>
    <rect x="40" y="980" width="19" height="19"></rect>
    <rect x="60" y="980" width="19" height="19"></rect>
    <rect x="80" y="980" width="19" height="19"></rect>
    <rect x="100" y="980" width="19" height="19"></rect>
    <rect x="120" y="980" width="19" height="19"></rect>
    <rect x="140" y="980" width="19" height="19"></rect>
    <rect x="20" y="1000" width="19" height="19"></rect>
    <rect x="40" y="1000" width="19" height="19"></rect>
    <rect x="60" y="1000" width="19" height="19"></rect>
    <rect x="80" y="1000" width="19" height="19"></rect>
    <rect x="100" y="1000" width="19" height="19"></rect>
    <rect x="120" y="1000" width="19" height="19"></rect>
    <rect x="140" y="1000" width="19" height="19"></rect>
    <rect x="20" y="1020" width="19" height="19"></rect>
    <rect x="40" y="1020" width="19" height="19"></rect>
    <rect x="60" y="1020" width="19" height="19"></rect>
    <rect x="80" y="1020" width="19" height="19"></rect>
    <rect x="100" y="1020" width="19" height="19"></rect>
    <rect x="120" y="1020" width="19" height="19"></rect>
    <rect x="140" y="1020" width="19" height="19"></rect>
    <rect x="20" y="1040" width="19" height="19"></rect>
    <rect x="40" y="1040" width="19" height="19"></rect>
    <rect x="60" y="1040" width="19" height="19"></rect>
    <rect x="80" y="1040" width="19" height="19"></rect>
    <rect x="100" y="1040" width="19" height="19"></rect>
    <rect x="120" y="1040" width="19" height="19"></rect>
    <rect x="140" y="1040" width="19" height="19"></rect>
    <rect x="20" y="1060" width="19" height="19"></rect>
    <rect x="40" y="1060" width="19" height="19"></rect>
    <rect x="60" y="1060" width="19" height="19"></rect>
    <rect x="80" y="1060" width="19" height="19"></rect>
    <rect x="100" y="1060" width="19" height="19"></rect>
    <rect x="120" y="1060" width="19" height="19"></rect>
</svg>