<svg viewBox="0 0 1824 608" xmlns="http://www.w3.org/2000/svg">

<style>
  .month-1 {
    fill: #e2e2e2;
  }
  .month-2 {
    fill: #ccc;
  }
  text {
    font-family: Arial;
    text-anchor: middle;
  }
  .axis-label {
    font-size: 24px;
    dominant-baseline: middle;
  }
  circle {
    fill-opacity: 0.7;
    stroke: white;
  }
  .count {
    font-size: 18px;
    dominant-baseline: middle;
  }
  .title {
    font-size: 40px;
    dominant-baseline: middle;
    fill: #222;
  }
  .subtitle {
    font-size: 24px;
    dominant-baseline: middle;
    fill: #777;
  }
  </style>

    <rect fill="#ddd" x="0" y="0" width="1824" height="608"></rect>
    <g class="axis-label">
        <text x="48.0" y="208.0">M</text>
        <text x="48.0" y="240.0">T</text>
        <text x="48.0" y="272.0">W</text>
        <text x="48.0" y="304.0">T</text>
        <text x="48.0" y="336.0">F</text>
        <text x="48.0" y="368.0">S</text>
        <text x="48.0" y="400.0">S</text>
        <g transform="translate(176.0 160)">
            <text>Jan</text>
            <text y="22.4" class="count">4</text>
        </g>
        <g transform="translate(320.0 160)">
            <text>Feb</text>
            <text y="22.4" class="count">5</text>
        </g>
        <g transform="translate(448.0 160)">
            <text>Mar</text>
            <text y="22.4" class="count">10</text>
        </g>
        <g transform="translate(576.0 160)">
            <text>Apr</text>
            <text y="22.4" class="count">11</text>
        </g>
        <g transform="translate(720.0 160)">
            <text>May</text>
            <text y="22.4" class="count">9</text>
        </g>
        <g transform="translate(864.0 160)">
            <text>Jun</text>
            <text y="22.4" class="count">12</text>
        </g>
        <g transform="translate(992.0 160)">
            <text>Jul</text>
            <text y="22.4" class="count">10</text>
        </g>
        <g transform="translate(1136.0 160)">
            <text>Aug</text>
            <text y="22.4" class="count">9</text>
        </g>
        <g transform="translate(1280.0 160)">
            <text>Sep</text>
            <text y="22.4" class="count">13</text>
        </g>
        <g transform="translate(1424.0 160)">
            <text>Oct</text>
            <text y="22.4" class="count">15</text>
        </g>
        <g transform="translate(1568.0 160)">
            <text>Nov</text>
            <text y="22.4" class="count">5</text>
        </g>
        <g transform="translate(1696.0 160)">
            <text>Dec</text>
        </g>
    </g>
    <rect class="month-2" x="64" y="352" width="31" height="31"></rect>
    <rect class="month-2" x="64" y="384" width="31" height="31"></rect>
    <rect class="month-2" x="96" y="192" width="31" height="31"></rect>
    <rect class="month-2" x="96" y="224" width="31" height="31"></rect>
    <rect class="month-2" x="96" y="256" width="31" height="31"></rect>
    <rect class="month-2" x="96" y="288" width="31" height="31"></rect>
    <rect class="month-2" x="96" y="320" width="31" height="31"></rect>
    <rect class="month-2" x="96" y="352" width="31" height="31"></rect>
    <rect class="month-2" x="96" y="384" width="31" height="31"></rect>
    <rect class="month-2" x="128" y="192" width="31" height="31"></rect>
    <rect class="month-2" x="128" y="224" width="31" height="31"></rect>
    <rect class="month-2" x="128" y="256" width="31" height="31"></rect>
    <rect class="month-2" x="128" y="288" width="31" height="31"></rect>
    <rect class="month-2" x="128" y="320" width="31" height="31"></rect>
    <rect class="month-2" x="128" y="352" width="31" height="31"></rect>
    <rect class="month-2" x="128" y="384" width="31" height="31"></rect>
    <rect class="month-2" x="160" y="192" width="31" height="31"></rect>
    <rect class="month-2" x="160" y="224" width="31" height="31"></rect>
    <rect class="month-2" x="160" y="256" width="31" height="31"></rect>
    <rect class="month-2" x="160" y="288" width="31" height="31"></rect>
    <rect class="month-2" x="160" y="320" width="31" height="31"></rect>
    <rect class="month-2" x="160" y="352" width="31" height="31"></rect>
    <rect class="month-2" x="160" y="384" width="31" height="31"></rect>
    <rect class="month-2" x="192" y="192" width="31" height="31"></rect>
    <rect class="month-2" x="192" y="224" width="31" height="31"></rect>
    <rect class="month-2" x="192" y="256" width="31" height="31"></rect>
    <rect class="month-2" x="192" y="288" width="31" height="31"></rect>
    <rect class="month-2" x="192" y="320" width="31" height="31"></rect>
    <rect class="month-2" x="192" y="352" width="31" height="31"></rect>
    <rect class="month-2" x="192" y="384" width="31" height="31"></rect>
    <rect class="month-2" x="224" y="192" width="31" height="31"></rect>
    <rect class="month-1" x="224" y="224" width="31" height="31"></rect>
    <rect class="month-1" x="224" y="256" width="31" height="31"></rect>
    <rect class="month-1" x="224" y="288" width="31" height="31"></rect>
    <rect class="month-1" x="224" y="320" width="31" height="31"></rect>
    <rect class="month-1" x="224" y="352" width="31" height="31"></rect>
    <rect class="month-1" x="224" y="384" width="31" height="31"></rect>
    <rect class="month-1" x="256" y="192" width="31" height="31"></rect>
    <rect class="month-1" x="256" y="224" width="31" height="31"></rect>
    <rect class="month-1" x="256" y="256" width="31" height="31"></rect>
    <rect class="month-1" x="256" y="288" width="31" height="31"></rect>
    <rect class="month-1" x="256" y="320" width="31" height="31"></rect>
    <rect class="month-1" x="256" y="352" width="31" height="31"></rect>
    <rect class="month-1" x="256" y="384" width="31" height="31"></rect>
    <rect class="month-1" x="288" y="192" width="31" height="31"></rect>
    <rect class="month-1" x="288" y="224" width="31" height="31"></rect>
    <rect class="month-1" x="288" y="256" width="31" height="31"></rect>
    <rect class="month-1" x="288" y="288" width="31" height="31"></rect>
    <rect class="month-1" x="288" y="320" width="31" height="31"></rect>
    <rect class="month-1" x="288" y="352" width="31" height="31"></rect>
    <rect class="month-1" x="288" y="384" width="31" height="31"></rect>
    <rect class="month-1" x="320" y="192" width="31" height="31"></rect>
    <rect class="month-1" x="320" y="224" width="31" height="31"></rect>
    <rect class="month-1" x="320" y="256" width="31" height="31"></rect>
    <rect class="month-1" x="320" y="288" width="31" height="31"></rect>
    <rect class="month-1" x="320" y="320" width="31" height="31"></rect>
    <rect class="month-1" x="320" y="352" width="31" height="31"></rect>
    <rect class="month-1" x="320" y="384" width="31" height="31"></rect>
    <rect class="month-1" x="352" y="192" width="31" height="31"></rect>
    <rect class="month-2" x="352" y="224" width="31" height="31"></rect>
    <rect class="month-2" x="352" y="256" width="31" height="31"></rect>
    <rect class="month-2" x="352" y="288" width="31" height="31"></rect>
    <rect class="month-2" x="352" y="320" width="31" height="31"></rect>
    <rect class="month-2" x="352" y="352" width="31" height="31"></rect>
    <rect class="month-2" x="352" y="384" width="31" height="31"></rect>
    <rect class="month-2" x="384" y="192" width="31" height="31"></rect>
    <rect class="month-2" x="384" y="224" width="31" height="31"></rect>
    <rect class="month-2" x="384" y="256" width="31" height="31"></rect>
    <rect class="month-2" x="384" y="288" width="31" height="31"></rect>
    <rect class="month-2" x="384" y="320" width="31" height="31"></rect>
    <rect class="month-2" x="384" y="352" width="31" height="31"></rect>
    <rect class="month-2" x="384" y="384" width="31" height="31"></rect>
    <rect class="month-2" x="416" y="192" width="31" height="31"></rect>
    <rect class="month-2" x="416" y="224" width="31" height="31"></rect>
    <rect class="month-2" x="416" y="256" width="31" height="31"></rect>
    <rect class="month-2" x="416" y="288" width="31" height="31"></rect>
    <rect class="month-2" x="416" y="320" width="31" height="31"></rect>
    <rect class="month-2" x="416" y="352" width="31" height="31"></rect>
    <rect class="month-2" x="416" y="384" width="31" height="31"></rect>
    <rect class="month-2" x="448" y="192" width="31" height="31"></rect>
    <rect class="month-2" x="448" y="224" width="31" height="31"></rect>
    <rect class="month-2" x="448" y="256" width="31" height="31"></rect>
    <rect class="month-2" x="448" y="288" width="31" height="31"></rect>
    <rect class="month-2" x="448" y="320" width="31" height="31"></rect>
    <rect class="month-2" x="448" y="352" width="31" height="31"></rect>
    <rect class="month-2" x="448" y="384" width="31" height="31"></rect>
    <rect class="month-2" x="480" y="192" width="31" height="31"></rect>
    <rect class="month-2" x="480" y="224" width="31" height="31"></rect>
    <rect class="month-2" x="480" y="256" width="31" height="31"></rect>
    <rect class="month-2" x="480" y="288" width="31" height="31"></rect>
    <rect class="month-1" x="480" y="320" width="31" height="31"></rect>
    <rect class="month-1" x="480" y="352" width="31" height="31"></rect>
    <rect class="month-1" x="480" y="384" width="31" height="31"></rect>
    <rect class="month-1" x="512" y="192" width="31" height="31"></rect>
    <rect class="month-1" x="512" y="224" width="31" height="31"></rect>
    <rect class="month-1" x="512" y="256" width="31" height="31"></rect>
    <rect class="month-1" x="512" y="288" width="31" height="31"></rect>
    <rect class="month-1" x="512" y="320" width="31" height="31"></rect>
    <rect class="month-1" x="512" y="352" width="31" height="31"></rect>
    <rect class="month-1" x="512" y="384" width="31" height="31"></rect>
    <rect class="month-1" x="544" y="192" width="31" height="31"></rect>
    <rect class="month-1" x="544" y="224" width="31" height="31"></rect>
    <rect class="month-1" x="544" y="256" width="31" height="31"></rect>
    <rect class="month-1" x="544" y="288" width="31" height="31"></rect>
    <rect class="month-1" x="544" y="320" width="31" height="31"></rect>
    <rect class="month-1" x="544" y="352" width="31" height="31"></rect>
    <rect class="month-1" x="544" y="384" width="31" height="31"></rect>
    <rect class="month-1" x="576" y="192" width="31" height="31"></rect>
    <rect class="month-1" x="576" y="224" width="31" height="31"></rect>
    <rect class="month-1" x="576" y="256" width="31" height="31"></rect>
    <rect class="month-1" x="576" y="288" width="31" height="31"></rect>
    <rect class="month-1" x="576" y="320" width="31" height="31"></rect>
    <rect class="month-1" x="576" y="352" width="31" height="31"></rect>
    <rect class="month-1" x="576" y="384" width="31" height="31"></rect>
    <rect class="month-1" x="608" y="192" width="31" height="31"></rect>
    <rect class="month-1" x="608" y="224" width="31" height="31"></rect>
    <rect class="month-1" x="608" y="256" width="31" height="31"></rect>
    <rect class="month-1" x="608" y="288" width="31" height="31"></rect>
    <rect class="month-1" x="608" y="320" width="31" height="31"></rect>
    <rect class="month-1" x="608" y="352" width="31" height="31"></rect>
    <rect class="month-2" x="608" y="384" width="31" height="31"></rect>
    <rect class="month-2" x="640" y="192" width="31" height="31"></rect>
    <rect class="month-2" x="640" y="224" width="31" height="31"></rect>
    <rect class="month-2" x="640" y="256" width="31" height="31"></rect>
    <rect class="month-2" x="640" y="288" width="31" height="31"></rect>
    <rect class="month-2" x="640" y="320" width="31" height="31"></rect>
    <rect class="month-2" x="640" y="352" width="31" height="31"></rect>
    <rect class="month-2" x="640" y="384" width="31" height="31"></rect>
    <rect class="month-2" x="672" y="192" width="31" height="31"></rect>
    <rect class="month-2" x="672" y="224" width="31" height="31"></rect>
    <rect class="month-2" x="672" y="256" width="31" height="31"></rect>
    <rect class="month-2" x="672" y="288" width="31" height="31"></rect>
    <rect class="month-2" x="672" y="320" width="31" height="31"></rect>
    <rect class="month-2" x="672" y="352" width="31" height="31"></rect>
    <rect class="month-2" x="672" y="384" width="31" height="31"></rect>
    <rect class="month-2" x="704" y="192" width="31" height="31"></rect>
    <rect class="month-2" x="704" y="224" width="31" height="31"></rect>
    <rect class="month-2" x="704" y="256" width="31" height="31"></rect>
    <rect class="month-2" x="704" y="288" width="31" height="31"></rect>
    <rect class="month-2" x="704" y="320" width="31" height="31"></rect>
    <rect class="month-2" x="704" y="352" width="31" height="31"></rect>
    <rect class="month-2" x="704" y="384" width="31" height="31"></rect>
    <rect class="month-2" x="736" y="192" width="31" height="31"></rect>
    <rect class="month-2" x="736" y="224" width="31" height="31"></rect>
    <rect class="month-2" x="736" y="256" width="31" height="31"></rect>
    <rect class="month-2" x="736" y="288" width="31" height="31"></rect>
    <rect class="month-2" x="736" y="320" width="31" height="31"></rect>
    <rect class="month-2" x="736" y="352" width="31" height="31"></rect>
    <rect class="month-2" x="736" y="384" width="31" height="31"></rect>
    <rect class="month-2" x="768" y="192" width="31" height="31"></rect>
    <rect class="month-2" x="768" y="224" width="31" height="31"></rect>
    <rect class="month-1" x="768" y="256" width="31" height="31"></rect>
    <rect class="month-1" x="768" y="288" width="31" height="31"></rect>
    <rect class="month-1" x="768" y="320" width="31" height="31"></rect>
    <rect class="month-1" x="768" y="352" width="31" height="31"></rect>
    <rect class="month-1" x="768" y="384" width="31" height="31"></rect>
    <rect class="month-1" x="800" y="192" width="31" height="31"></rect>
    <rect class="month-1" x="800" y="224" width="31" height="31"></rect>
    <rect class="month-1" x="800" y="256" width="31" height="31"></rect>
    <rect class="month-1" x="800" y="288" width="31" height="31"></rect>
    <rect class="month-1" x="800" y="320" width="31" height="31"></rect>
    <rect class="month-1" x="800" y="352" width="31" height="31"></rect>
    <rect class="month-1" x="800" y="384" width="31" height="31"></rect>
    <rect class="month-1" x="832" y="192" width="31" height="31"></rect>
    <rect class="month-1" x="832" y="224" width="31" height="31"></rect>
    <rect class="month-1" x="832" y="256" width="31" height="31"></rect>
    <rect class="month-1" x="832" y="288" width="31" height="31"></rect>
    <rect class="month-1" x="832" y="320" width="31" height="31"></rect>
    <rect class="month-1" x="832" y="352" width="31" height="31"></rect>
    <rect class="month-1" x="832" y="384" width="31" height="31"></rect>
    <rect class="month-1" x="864" y="192" width="31" height="31"></rect>
    <rect class="month-1" x="864" y="224" width="31" height="31"></rect>
    <rect class="month-1" x="864" y="256" width="31" height="31"></rect>
    <rect class="month-1" x="864" y="288" width="31" height="31"></rect>
    <rect class="month-1" x="864" y="320" width="31" height="31"></rect>
    <rect class="month-1" x="864" y="352" width="31" height="31"></rect>
    <rect class="month-1" x="864" y="384" width="31" height="31"></rect>
    <rect class="month-1" x="896" y="192" width="31" height="31"></rect>
    <rect class="month-1" x="896" y="224" width="31" height="31"></rect>
    <rect class="month-1" x="896" y="256" width="31" height="31"></rect>
    <rect class="month-1" x="896" y="288" width="31" height="31"></rect>
    <rect class="month-2" x="896" y="320" width="31" height="31"></rect>
    <rect class="month-2" x="896" y="352" width="31" height="31"></rect>
    <rect class="month-2" x="896" y="384" width="31" height="31"></rect>
    <rect class="month-2" x="928" y="192" width="31" height="31"></rect>
    <rect class="month-2" x="928" y="224" width="31" height="31"></rect>
    <rect class="month-2" x="928" y="256" width="31" height="31"></rect>
    <rect class="month-2" x="928" y="288" width="31" height="31"></rect>
    <rect class="month-2" x="928" y="320" width="31" height="31"></rect>
    <rect class="month-2" x="928" y="352" width="31" height="31"></rect>
    <rect class="month-2" x="928" y="384" width="31" height="31"></rect>
    <rect class="month-2" x="960" y="192" width="31" height="31"></rect>
    <rect class="month-2" x="960" y="224" width="31" height="31"></rect>
    <rect class="month-2" x="960" y="256" width="31" height="31"></rect>
    <rect class="month-2" x="960" y="288" width="31" height="31"></rect>
    <rect class="month-2" x="960" y="320" width="31" height="31"></rect>
    <rect class="month-2" x="960" y="352" width="31" height="31"></rect>
    <rect class="month-2" x="960" y="384" width="31" height="31"></rect>
    <rect class="month-2" x="992" y="192" width="31" height="31"></rect>
    <rect class="month-2" x="992" y="224" width="31" height="31"></rect>
    <rect class="month-2" x="992" y="256" width="31" height="31"></rect>
    <rect class="month-2" x="992" y="288" width="31" height="31"></rect>
    <rect class="month-2" x="992" y="320" width="31" height="31"></rect>
    <rect class="month-2" x="992" y="352" width="31" height="31"></rect>
    <rect class="month-2" x="992" y="384" width="31" height="31"></rect>
    <rect class="month-2" x="1024" y="192" width="31" height="31"></rect>
    <rect class="month-2" x="1024" y="224" width="31" height="31"></rect>
    <rect class="month-2" x="1024" y="256" width="31" height="31"></rect>
    <rect class="month-2" x="1024" y="288" width="31" height="31"></rect>
    <rect class="month-2" x="1024" y="320" width="31" height="31"></rect>
    <rect class="month-2" x="1024" y="352" width="31" height="31"></rect>
    <rect class="month-2" x="1024" y="384" width="31" height="31"></rect>
    <rect class="month-1" x="1056" y="192" width="31" height="31"></rect>
    <rect class="month-1" x="1056" y="224" width="31" height="31"></rect>
    <rect class="month-1" x="1056" y="256" width="31" height="31"></rect>
    <rect class="month-1" x="1056" y="288" width="31" height="31"></rect>
    <rect class="month-1" x="1056" y="320" width="31" height="31"></rect>
    <rect class="month-1" x="1056" y="352" width="31" height="31"></rect>
    <rect class="month-1" x="1056" y="384" width="31" height="31"></rect>
    <rect class="month-1" x="1088" y="192" width="31" height="31"></rect>
    <rect class="month-1" x="1088" y="224" width="31" height="31"></rect>
    <rect class="month-1" x="1088" y="256" width="31" height="31"></rect>
    <rect class="month-1" x="1088" y="288" width="31" height="31"></rect>
    <rect class="month-1" x="1088" y="320" width="31" height="31"></rect>
    <rect class="month-1" x="1088" y="352" width="31" height="31"></rect>
    <rect class="month-1" x="1088" y="384" width="31" height="31"></rect>
    <rect class="month-1" x="1120" y="192" width="31" height="31"></rect>
    <rect class="month-1" x="1120" y="224" width="31" height="31"></rect>
    <rect class="month-1" x="1120" y="256" width="31" height="31"></rect>
    <rect class="month-1" x="1120" y="288" width="31" height="31"></rect>
    <rect class="month-1" x="1120" y="320" width="31" height="31"></rect>
    <rect class="month-1" x="1120" y="352" width="31" height="31"></rect>
    <rect class="month-1" x="1120" y="384" width="31" height="31"></rect>
    <rect class="month-1" x="1152" y="192" width="31" height="31"></rect>
    <rect class="month-1" x="1152" y="224" width="31" height="31"></rect>
    <rect class="month-1" x="1152" y="256" width="31" height="31"></rect>
    <rect class="month-1" x="1152" y="288" width="31" height="31"></rect>
    <rect class="month-1" x="1152" y="320" width="31" height="31"></rect>
    <rect class="month-1" x="1152" y="352" width="31" height="31"></rect>
    <rect class="month-1" x="1152" y="384" width="31" height="31"></rect>
    <rect class="month-1" x="1184" y="192" width="31" height="31"></rect>
    <rect class="month-1" x="1184" y="224" width="31" height="31"></rect>
    <rect class="month-1" x="1184" y="256" width="31" height="31"></rect>
    <rect class="month-2" x="1184" y="288" width="31" height="31"></rect>
    <rect class="month-2" x="1184" y="320" width="31" height="31"></rect>
    <rect class="month-2" x="1184" y="352" width="31" height="31"></rect>
    <rect class="month-2" x="1184" y="384" width="31" height="31"></rect>
    <rect class="month-2" x="1216" y="192" width="31" height="31"></rect>
    <rect class="month-2" x="1216" y="224" width="31" height="31"></rect>
    <rect class="month-2" x="1216" y="256" width="31" height="31"></rect>
    <rect class="month-2" x="1216" y="288" width="31" height="31"></rect>
    <rect class="month-2" x="1216" y="320" width="31" height="31"></rect>
    <rect class="month-2" x="1216" y="352" width="31" height="31"></rect>
    <rect class="month-2" x="1216" y="384" width="31" height="31"></rect>
    <rect class="month-2" x="1248" y="192" width="31" height="31"></rect>
    <rect class="month-2" x="1248" y="224" width="31" height="31"></rect>
    <rect class="month-2" x="1248" y="256" width="31" height="31"></rect>
    <rect class="month-2" x="1248" y="288" width="31" height="31"></rect>
    <rect class="month-2" x="1248" y="320" width="31" height="31"></rect>
    <rect class="month-2" x="1248" y="352" width="31" height="31"></rect>
    <rect class="month-2" x="1248" y="384" width="31" height="31"></rect>
    <rect class="month-2" x="1280" y="192" width="31" height="31"></rect>
    <rect class="month-2" x="1280" y="224" width="31" height="31"></rect>
    <rect class="month-2" x="1280" y="256" width="31" height="31"></rect>
    <rect class="month-2" x="1280" y="288" width="31" height="31"></rect>
    <rect class="month-2" x="1280" y="320" width="31" height="31"></rect>
    <rect class="month-2" x="1280" y="352" width="31" height="31"></rect>
    <rect class="month-2" x="1280" y="384" width="31" height="31"></rect>
    <rect class="month-2" x="1312" y="192" width="31" height="31"></rect>
    <rect class="month-2" x="1312" y="224" width="31" height="31"></rect>
    <rect class="month-2" x="1312" y="256" width="31" height="31"></rect>
    <rect class="month-2" x="1312" y="288" width="31" height="31"></rect>
    <rect class="month-2" x="1312" y="320" width="31" height="31"></rect>
    <rect class="month-1" x="1312" y="352" width="31" height="31"></rect>
    <rect class="month-1" x="1312" y="384" width="31" height="31"></rect>
    <rect class="month-1" x="1344" y="192" width="31" height="31"></rect>
    <rect class="month-1" x="1344" y="224" width="31" height="31"></rect>
    <rect class="month-1" x="1344" y="256" width="31" height="31"></rect>
    <rect class="month-1" x="1344" y="288" width="31" height="31"></rect>
    <rect class="month-1" x="1344" y="320" width="31" height="31"></rect>
    <rect class="month-1" x="1344" y="352" width="31" height="31"></rect>
    <rect class="month-1" x="1344" y="384" width="31" height="31"></rect>
    <rect class="month-1" x="1376" y="192" width="31" height="31"></rect>
    <rect class="month-1" x="1376" y="224" width="31" height="31"></rect>
    <rect class="month-1" x="1376" y="256" width="31" height="31"></rect>
    <rect class="month-1" x="1376" y="288" width="31" height="31"></rect>
    <rect class="month-1" x="1376" y="320" width="31" height="31"></rect>
    <rect class="month-1" x="1376" y="352" width="31" height="31"></rect>
    <rect class="month-1" x="1376" y="384" width="31" height="31"></rect>
    <rect class="month-1" x="1408" y="192" width="31" height="31"></rect>
    <rect class="month-1" x="1408" y="224" width="31" height="31"></rect>
    <rect class="month-1" x="1408" y="256" width="31" height="31"></rect>
    <rect class="month-1" x="1408" y="288" width="31" height="31"></rect>
    <rect class="month-1" x="1408" y="320" width="31" height="31"></rect>
    <rect class="month-1" x="1408" y="352" width="31" height="31"></rect>
    <rect class="month-1" x="1408" y="384" width="31" height="31"></rect>
    <rect class="month-1" x="1440" y="192" width="31" height="31"></rect>
    <rect class="month-1" x="1440" y="224" width="31" height="31"></rect>
    <rect class="month-1" x="1440" y="256" width="31" height="31"></rect>
    <rect class="month-1" x="1440" y="288" width="31" height="31"></rect>
    <rect class="month-1" x="1440" y="320" width="31" height="31"></rect>
    <rect class="month-1" x="1440" y="352" width="31" height="31"></rect>
    <rect class="month-1" x="1440" y="384" width="31" height="31"></rect>
    <rect class="month-1" x="1472" y="192" width="31" height="31"></rect>
    <rect class="month-2" x="1472" y="224" width="31" height="31"></rect>
    <rect class="month-2" x="1472" y="256" width="31" height="31"></rect>
    <rect class="month-2" x="1472" y="288" width="31" height="31"></rect>
    <rect class="month-2" x="1472" y="320" width="31" height="31"></rect>
    <rect class="month-2" x="1472" y="352" width="31" height="31"></rect>
    <rect class="month-2" x="1472" y="384" width="31" height="31"></rect>
    <rect class="month-2" x="1504" y="192" width="31" height="31"></rect>
    <rect class="month-2" x="1504" y="224" width="31" height="31"></rect>
    <rect class="month-2" x="1504" y="256" width="31" height="31"></rect>
    <rect class="month-2" x="1504" y="288" width="31" height="31"></rect>
    <rect class="month-2" x="1504" y="320" width="31" height="31"></rect>
    <rect class="month-2" x="1504" y="352" width="31" height="31"></rect>
    <rect class="month-2" x="1504" y="384" width="31" height="31"></rect>
    <rect class="month-2" x="1536" y="192" width="31" height="31"></rect>
    <rect class="month-2" x="1536" y="224" width="31" height="31"></rect>
    <rect class="month-2" x="1536" y="256" width="31" height="31"></rect>
    <rect class="month-2" x="1536" y="288" width="31" height="31"></rect>
    <rect class="month-2" x="1536" y="320" width="31" height="31"></rect>
    <rect class="month-2" x="1536" y="352" width="31" height="31"></rect>
    <rect class="month-2" x="1536" y="384" width="31" height="31"></rect>
    <rect class="month-2" x="1568" y="192" width="31" height="31"></rect>
    <rect class="month-2" x="1568" y="224" width="31" height="31"></rect>
    <rect class="month-2" x="1568" y="256" width="31" height="31"></rect>
    <rect class="month-2" x="1568" y="288" width="31" height="31"></rect>
    <rect class="month-2" x="1568" y="320" width="31" height="31"></rect>
    <rect class="month-2" x="1568" y="352" width="31" height="31"></rect>
    <rect class="month-2" x="1568" y="384" width="31" height="31"></rect>
    <rect class="month-2" x="1600" y="192" width="31" height="31"></rect>
    <rect class="month-2" x="1600" y="224" width="31" height="31"></rect>
    <rect class="month-2" x="1600" y="256" width="31" height="31"></rect>
    <rect class="month-1" x="1600" y="288" width="31" height="31"></rect>
    <rect class="month-1" x="1600" y="320" width="31" height="31"></rect>
    <rect class="month-1" x="1600" y="352" width="31" height="31"></rect>
    <rect class="month-1" x="1600" y="384" width="31" height="31"></rect>
    <rect class="month-1" x="1632" y="192" width="31" height="31"></rect>
    <rect class="month-1" x="1632" y="224" width="31" height="31"></rect>
    <rect class="month-1" x="1632" y="256" width="31" height="31"></rect>
    <rect class="month-1" x="1632" y="288" width="31" height="31"></rect>
    <rect class="month-1" x="1632" y="320" width="31" height="31"></rect>
    <rect class="month-1" x="1632" y="352" width="31" height="31"></rect>
    <rect class="month-1" x="1632" y="384" width="31" height="31"></rect>
    <rect class="month-1" x="1664" y="192" width="31" height="31"></rect>
    <rect class="month-1" x="1664" y="224" width="31" height="31"></rect>
    <rect class="month-1" x="1664" y="256" width="31" height="31"></rect>
    <rect class="month-1" x="1664" y="288" width="31" height="31"></rect>
    <rect class="month-1" x="1664" y="320" width="31" height="31"></rect>
    <rect class="month-1" x="1664" y="352" width="31" height="31"></rect>
    <rect class="month-1" x="1664" y="384" width="31" height="31"></rect>
    <rect class="month-1" x="1696" y="192" width="31" height="31"></rect>
    <rect class="month-1" x="1696" y="224" width="31" height="31"></rect>
    <rect class="month-1" x="1696" y="256" width="31" height="31"></rect>
    <rect class="month-1" x="1696" y="288" width="31" height="31"></rect>
    <rect class="month-1" x="1696" y="320" width="31" height="31"></rect>
    <rect class="month-1" x="1696" y="352" width="31" height="31"></rect>
    <rect class="month-1" x="1696" y="384" width="31" height="31"></rect>
    <rect class="month-1" x="1728" y="192" width="31" height="31"></rect>
    <rect class="month-1" x="1728" y="224" width="31" height="31"></rect>
    <rect class="month-1" x="1728" y="256" width="31" height="31"></rect>
    <rect class="month-1" x="1728" y="288" width="31" height="31"></rect>
    <rect class="month-1" x="1728" y="320" width="31" height="31"></rect>
    <rect class="month-1" x="1728" y="352" width="31" height="31"></rect>
    <text x="912.0" y="36.0" class="title">2022</text>
    <text x="912.0" y="72" class="subtitle">103 runs, 568 km, 47hrs 36 mins</text>
    <g class="count">
        <text x="1776.0" y="400.0">18</text>
        <text x="1776.0" y="368.0">10</text>
        <text x="1776.0" y="304.0">20</text>
        <text x="1776.0" y="240.0">16</text>
        <text x="1776.0" y="336.0">9</text>
        <text x="1776.0" y="208.0">15</text>
        <text x="1776.0" y="272.0">15</text>
        <text x="1776.0" y="432.0">103</text>
        <text x="112.0" y="432.0">1</text>
        <text x="144.0" y="432.0">1</text>
        <text x="176.0" y="432.0">1</text>
        <text x="208.0" y="432.0">1</text>
        <text x="240.0" y="432.0">1</text>
        <text x="272.0" y="432.0">1</text>
        <text x="304.0" y="432.0">1</text>
        <text x="336.0" y="432.0">2</text>
        <text x="368.0" y="432.0">1</text>
        <text x="400.0" y="432.0">2</text>
        <text x="432.0" y="432.0">3</text>
        <text x="464.0" y="432.0">3</text>
        <text x="496.0" y="432.0">2</text>
        <text x="528.0" y="432.0">3</text>
        <text x="560.0" y="432.0">3</text>
        <text x="592.0" y="432.0">2</text>
        <text x="624.0" y="432.0">2</text>
        <text x="656.0" y="432.0">2</text>
        <text x="688.0" y="432.0">2</text>
        <text x="720.0" y="432.0">4</text>
        <text x="752.0" y="432.0">1</text>
        <text x="784.0" y="432.0">2</text>
        <text x="816.0" y="432.0">2</text>
        <text x="848.0" y="432.0">3</text>
        <text x="880.0" y="432.0">3</text>
        <text x="912.0" y="432.0">3</text>
        <text x="944.0" y="432.0">2</text>
        <text x="976.0" y="432.0">3</text>
        <text x="1008.0" y="432.0">2</text>
        <text x="1040.0" y="432.0">2</text>
        <text x="1072.0" y="432.0">4</text>
        <text x="1136.0" y="432.0">3</text>
        <text x="1168.0" y="432.0">1</text>
        <text x="1200.0" y="432.0">2</text>
        <text x="1232.0" y="432.0">4</text>
        <text x="1264.0" y="432.0">3</text>
        <text x="1296.0" y="432.0">2</text>
        <text x="1328.0" y="432.0">4</text>
        <text x="1360.0" y="432.0">4</text>
        <text x="1392.0" y="432.0">3</text>
        <text x="1424.0" y="432.0">3</text>
        <text x="1456.0" y="432.0">4</text>
        <text x="1488.0" y="432.0">2</text>
        <text x="1520.0" y="432.0">2</text>
        <text x="1584.0" y="432.0">1</text>
    </g>
    <circle fill="rgb(188, 0, 0)" cx="112.0" cy="400.0" r="10.464"></circle>
    <circle fill="rgb(184, 0, 0)" cx="144.0" cy="400.0" r="16.928"></circle>
    <circle fill="rgb(201, 5, 0)" cx="176.0" cy="400.0" r="16.096"></circle>
    <circle fill="rgb(182, 0, 0)" cx="208.0" cy="368.0" r="16.608"></circle>
    <circle fill="rgb(200, 0, 0)" cx="240.0" cy="368.0" r="17.056"></circle>
    <circle fill="rgb(191, 0, 0)" cx="272.0" cy="368.0" r="16.032"></circle>
    <circle fill="rgb(204, 22, 0)" cx="304.0" cy="304.0" r="16.288"></circle>
    <circle fill="rgb(202, 9, 0)" cx="336.0" cy="240.0" r="14.719999999999999"></circle>
    <circle fill="rgb(204, 18, 0)" cx="336.0" cy="336.0" r="16.704"></circle>
    <circle fill="rgb(206, 27, 0)" cx="368.0" cy="368.0" r="16.128"></circle>
    <circle fill="rgb(206, 26, 0)" cx="400.0" cy="240.0" r="17.984"></circle>
    <circle fill="rgb(207, 33, 0)" cx="400.0" cy="368.0" r="17.28"></circle>
    <circle fill="rgb(214, 69, 0)" cx="432.0" cy="208.0" r="16.8"></circle>
    <circle fill="rgb(236, 171, 0)" cx="432.0" cy="304.0" r="15.584"></circle>
    <circle fill="rgb(210, 49, 0)" cx="432.0" cy="368.0" r="15.008000000000001"></circle>
    <circle fill="rgb(225, 122, 0)" cx="464.0" cy="240.0" r="17.631999999999998"></circle>
    <circle fill="rgb(235, 238, 0)" cx="464.0" cy="304.0" r="17.631999999999998"></circle>
    <circle fill="rgb(237, 179, 0)" cx="464.0" cy="400.0" r="17.503999999999998"></circle>
    <circle fill="rgb(213, 61, 0)" cx="496.0" cy="272.0" r="15.040000000000001"></circle>
    <circle fill="rgb(92, 215, 0)" cx="496.0" cy="400.0" r="17.6"></circle>
    <circle fill="rgb(233, 159, 0)" cx="528.0" cy="240.0" r="17.728"></circle>
    <circle fill="rgb(218, 86, 0)" cx="528.0" cy="304.0" r="17.247999999999998"></circle>
    <circle fill="rgb(248, 231, 0)" cx="528.0" cy="368.0" r="20.16"></circle>
    <circle fill="rgb(228, 135, 0)" cx="560.0" cy="208.0" r="15.168000000000001"></circle>
    <circle fill="rgb(240, 193, 0)" cx="560.0" cy="304.0" r="17.568"></circle>
    <circle fill="rgb(244, 210, 0)" cx="560.0" cy="400.0" r="17.344"></circle>
    <circle fill="rgb(241, 196, 0)" cx="592.0" cy="272.0" r="17.44"></circle>
    <circle fill="rgb(249, 234, 0)" cx="592.0" cy="400.0" r="20.991999999999997"></circle>
    <circle fill="rgb(215, 70, 0)" cx="624.0" cy="240.0" r="16.384"></circle>
    <circle fill="rgb(244, 212, 0)" cx="624.0" cy="368.0" r="25.919999999999998"></circle>
    <circle fill="rgb(62, 210, 0)" cx="656.0" cy="304.0" r="17.6"></circle>
    <circle fill="rgb(216, 235, 0)" cx="656.0" cy="400.0" r="20.544"></circle>
    <circle fill="rgb(226, 123, 0)" cx="688.0" cy="240.0" r="14.463999999999999"></circle>
    <circle fill="rgb(0, 172, 28)" cx="688.0" cy="304.0" r="17.791999999999998"></circle>
    <circle fill="rgb(157, 225, 0)" cx="720.0" cy="208.0" r="17.696"></circle>
    <circle fill="rgb(136, 222, 0)" cx="720.0" cy="272.0" r="17.759999999999998"></circle>
    <circle fill="rgb(246, 221, 0)" cx="720.0" cy="336.0" r="17.696"></circle>
    <circle fill="rgb(240, 192, 0)" cx="720.0" cy="400.0" r="20.928"></circle>
    <circle fill="rgb(247, 224, 0)" cx="752.0" cy="304.0" r="17.696"></circle>
    <circle fill="rgb(245, 215, 0)" cx="784.0" cy="304.0" r="17.728"></circle>
    <circle fill="rgb(109, 217, 0)" cx="784.0" cy="400.0" r="20.832"></circle>
    <circle fill="rgb(114, 218, 0)" cx="816.0" cy="240.0" r="17.663999999999998"></circle>
    <circle fill="rgb(0, 85, 115)" cx="816.0" cy="304.0" r="17.6"></circle>
    <circle fill="rgb(87, 214, 0)" cx="848.0" cy="208.0" r="17.696"></circle>
    <circle fill="rgb(11, 202, 0)" cx="848.0" cy="304.0" r="17.663999999999998"></circle>
    <circle fill="rgb(131, 221, 0)" cx="848.0" cy="400.0" r="20.608"></circle>
    <circle fill="rgb(195, 231, 0)" cx="880.0" cy="272.0" r="17.536"></circle>
    <circle fill="rgb(0, 26, 174)" cx="880.0" cy="336.0" r="17.663999999999998"></circle>
    <circle fill="rgb(196, 0, 0)" cx="880.0" cy="400.0" r="32.224000000000004"></circle>
    <circle fill="rgb(23, 204, 0)" cx="912.0" cy="240.0" r="17.631999999999998"></circle>
    <circle fill="rgb(0, 141, 59)" cx="912.0" cy="304.0" r="16.0"></circle>
    <circle fill="rgb(0, 189, 11)" cx="912.0" cy="400.0" r="20.8"></circle>
    <circle fill="rgb(199, 232, 0)" cx="944.0" cy="240.0" r="17.663999999999998"></circle>
    <circle fill="rgb(0, 59, 141)" cx="944.0" cy="304.0" r="17.631999999999998"></circle>
    <circle fill="rgb(246, 223, 0)" cx="976.0" cy="208.0" r="17.631999999999998"></circle>
    <circle fill="rgb(38, 206, 0)" cx="976.0" cy="272.0" r="17.631999999999998"></circle>
    <circle fill="rgb(208, 233, 0)" cx="976.0" cy="304.0" r="17.663999999999998"></circle>
    <circle fill="rgb(208, 233, 0)" cx="1008.0" cy="272.0" r="17.663999999999998"></circle>
    <circle fill="rgb(196, 231, 0)" cx="1008.0" cy="336.0" r="17.663999999999998"></circle>
    <circle fill="rgb(247, 240, 0)" cx="1040.0" cy="240.0" r="17.696"></circle>
    <circle fill="rgb(247, 225, 0)" cx="1040.0" cy="304.0" r="17.6"></circle>
    <circle fill="rgb(45, 207, 0)" cx="1072.0" cy="208.0" r="17.663999999999998"></circle>
    <circle fill="rgb(236, 170, 0)" cx="1072.0" cy="240.0" r="17.663999999999998"></circle>
    <circle fill="rgb(242, 201, 0)" cx="1072.0" cy="304.0" r="17.663999999999998"></circle>
    <circle fill="rgb(246, 223, 0)" cx="1072.0" cy="400.0" r="17.696"></circle>
    <circle fill="rgb(165, 226, 0)" cx="1136.0" cy="208.0" r="17.6"></circle>
    <circle fill="rgb(214, 234, 0)" cx="1136.0" cy="272.0" r="17.663999999999998"></circle>
    <circle fill="rgb(211, 234, 0)" cx="1136.0" cy="304.0" r="17.791999999999998"></circle>
    <circle fill="rgb(226, 124, 0)" cx="1168.0" cy="400.0" r="17.824"></circle>
    <circle fill="rgb(246, 223, 0)" cx="1200.0" cy="240.0" r="17.696"></circle>
    <circle fill="rgb(210, 234, 0)" cx="1200.0" cy="304.0" r="16.032"></circle>
    <circle fill="rgb(208, 233, 0)" cx="1232.0" cy="208.0" r="17.696"></circle>
    <circle fill="rgb(0, 142, 58)" cx="1232.0" cy="240.0" r="17.663999999999998"></circle>
    <circle fill="rgb(124, 220, 0)" cx="1232.0" cy="272.0" r="17.759999999999998"></circle>
    <circle fill="rgb(99, 216, 0)" cx="1232.0" cy="336.0" r="17.696"></circle>
    <circle fill="rgb(250, 239, 0)" cx="1264.0" cy="208.0" r="17.696"></circle>
    <circle fill="rgb(0, 170, 30)" cx="1264.0" cy="272.0" r="17.631999999999998"></circle>
    <circle fill="rgb(24, 204, 0)" cx="1264.0" cy="336.0" r="17.663999999999998"></circle>
    <circle fill="rgb(135, 222, 0)" cx="1296.0" cy="208.0" r="17.663999999999998"></circle>
    <circle fill="rgb(0, 148, 52)" cx="1296.0" cy="240.0" r="17.791999999999998"></circle>
    <circle fill="rgb(241, 196, 0)" cx="1328.0" cy="208.0" r="17.6"></circle>
    <circle fill="rgb(248, 230, 0)" cx="1328.0" cy="240.0" r="17.6"></circle>
    <circle fill="rgb(244, 211, 0)" cx="1328.0" cy="304.0" r="17.6"></circle>
    <circle fill="rgb(214, 68, 0)" cx="1328.0" cy="368.0" r="16.64"></circle>
    <circle fill="rgb(236, 173, 0)" cx="1360.0" cy="208.0" r="17.6"></circle>
    <circle fill="rgb(53, 209, 0)" cx="1360.0" cy="272.0" r="16.0"></circle>
    <circle fill="rgb(98, 216, 0)" cx="1360.0" cy="336.0" r="17.6"></circle>
    <circle fill="rgb(186, 230, 0)" cx="1360.0" cy="400.0" r="17.6"></circle>
    <circle fill="rgb(147, 224, 0)" cx="1392.0" cy="208.0" r="17.6"></circle>
    <circle fill="rgb(249, 234, 0)" cx="1392.0" cy="272.0" r="17.6"></circle>
    <circle fill="rgb(248, 230, 0)" cx="1392.0" cy="304.0" r="17.6"></circle>
    <circle fill="rgb(249, 237, 0)" cx="1424.0" cy="208.0" r="17.6"></circle>
    <circle fill="rgb(248, 230, 0)" cx="1424.0" cy="272.0" r="17.6"></circle>
    <circle fill="rgb(100, 216, 0)" cx="1424.0" cy="368.0" r="16.0"></circle>
    <circle fill="rgb(177, 228, 0)" cx="1456.0" cy="208.0" r="17.6"></circle>
    <circle fill="rgb(244, 239, 0)" cx="1456.0" cy="272.0" r="17.6"></circle>
    <circle fill="rgb(86, 214, 0)" cx="1456.0" cy="336.0" r="17.6"></circle>
    <circle fill="rgb(247, 224, 0)" cx="1456.0" cy="400.0" r="17.6"></circle>
    <circle fill="rgb(83, 213, 0)" cx="1488.0" cy="272.0" r="17.6"></circle>
    <circle fill="rgb(144, 223, 0)" cx="1488.0" cy="336.0" r="17.6"></circle>
    <circle fill="rgb(150, 224, 0)" cx="1520.0" cy="272.0" r="17.6"></circle>
    <circle fill="rgb(226, 236, 0)" cx="1520.0" cy="400.0" r="17.6"></circle>
    <circle fill="rgb(33, 205, 0)" cx="1584.0" cy="240.0" r="16.0"></circle>
    <circle fill="rgb(140, 140, 140)" cx="80.0" cy="517.536" r="10.464"></circle>
    <text x="80.0" y="544">3.27</text>
    <text x="80.0" y="560">Min</text>
    <circle fill="rgb(140, 140, 140)" cx="113.6" cy="510.4" r="17.6"></circle>
    <text x="113.6" y="544">5.5</text>
    <text x="113.6" y="560">Med</text>
    <circle fill="rgb(140, 140, 140)" cx="163.42399999999998" cy="495.776" r="32.224000000000004"></circle>
    <text x="163.42399999999998" y="544">10.07</text>
    <text x="163.42399999999998" y="560">Max</text>
    <text x="129.82399999999998" y="592" font-size="24px">Distance (km)</text>
    <text x="259.64799999999997" y="544">5:33</text>
    <text x="259.64799999999997" y="560">Max</text>
    <rect fill="rgb(180, 0, 0)" x="259.64799999999997" y="480" width="3.1" height="32"></rect>
    <rect fill="rgb(187, 0, 0)" x="262.64799999999997" y="480" width="3.1" height="32"></rect>
    <rect fill="rgb(193, 0, 0)" x="265.64799999999997" y="480" width="3.1" height="32"></rect>
    <rect fill="rgb(200, 0, 0)" x="268.64799999999997" y="480" width="3.1" height="32"></rect>
    <rect fill="rgb(202, 8, 0)" x="271.64799999999997" y="480" width="3.1" height="32"></rect>
    <rect fill="rgb(203, 16, 0)" x="274.64799999999997" y="480" width="3.1" height="32"></rect>
    <rect fill="rgb(205, 24, 0)" x="277.64799999999997" y="480" width="3.1" height="32"></rect>
    <rect fill="rgb(207, 32, 0)" x="280.64799999999997" y="480" width="3.1" height="32"></rect>
    <rect fill="rgb(208, 40, 0)" x="283.64799999999997" y="480" width="3.1" height="32"></rect>
    <rect fill="rgb(210, 48, 0)" x="286.64799999999997" y="480" width="3.1" height="32"></rect>
    <rect fill="rgb(212, 56, 0)" x="289.64799999999997" y="480" width="3.1" height="32"></rect>
    <rect fill="rgb(213, 64, 0)" x="292.64799999999997" y="480" width="3.1" height="32"></rect>
    <rect fill="rgb(215, 72, 0)" x="295.64799999999997" y="480" width="3.1" height="32"></rect>
    <rect fill="rgb(217, 80, 0)" x="298.64799999999997" y="480" width="3.1" height="32"></rect>
    <rect fill="rgb(218, 88, 0)" x="301.64799999999997" y="480" width="3.1" height="32"></rect>
    <rect fill="rgb(220, 96, 0)" x="304.64799999999997" y="480" width="3.1" height="32"></rect>
    <rect fill="rgb(222, 104, 0)" x="307.64799999999997" y="480" width="3.1" height="32"></rect>
    <rect fill="rgb(223, 112, 0)" x="310.64799999999997" y="480" width="3.1" height="32"></rect>
    <rect fill="rgb(225, 120, 0)" x="313.64799999999997" y="480" width="3.1" height="32"></rect>
    <rect fill="rgb(227, 128, 0)" x="316.64799999999997" y="480" width="3.1" height="32"></rect>
    <rect fill="rgb(228, 136, 0)" x="319.64799999999997" y="480" width="3.1" height="32"></rect>
    <rect fill="rgb(230, 144, 0)" x="322.64799999999997" y="480" width="3.1" height="32"></rect>
    <rect fill="rgb(232, 152, 0)" x="325.64799999999997" y="480" width="3.1" height="32"></rect>
    <rect fill="rgb(233, 160, 0)" x="328.64799999999997" y="480" width="3.1" height="32"></rect>
    <rect fill="rgb(235, 168, 0)" x="331.64799999999997" y="480" width="3.1" height="32"></rect>
    <rect fill="rgb(237, 176, 0)" x="334.64799999999997" y="480" width="3.1" height="32"></rect>
    <rect fill="rgb(238, 184, 0)" x="337.64799999999997" y="480" width="3.1" height="32"></rect>
    <rect fill="rgb(240, 192, 0)" x="340.64799999999997" y="480" width="3.1" height="32"></rect>
    <rect fill="rgb(242, 200, 0)" x="343.64799999999997" y="480" width="3.1" height="32"></rect>
    <rect fill="rgb(243, 208, 0)" x="346.64799999999997" y="480" width="3.1" height="32"></rect>
    <rect fill="rgb(245, 216, 0)" x="349.64799999999997" y="480" width="3.1" height="32"></rect>
    <rect fill="rgb(247, 224, 0)" x="352.64799999999997" y="480" width="3.1" height="32"></rect>
    <rect fill="rgb(248, 232, 0)" x="355.64799999999997" y="480" width="3.1" height="32"></rect>
    <rect fill="rgb(250, 240, 0)" x="358.64799999999997" y="480" width="3.1" height="32"></rect>
    <text x="358.64799999999997" y="544">5:00</text>
    <text x="358.64799999999997" y="560">Med</text>
    <rect fill="rgb(233, 237, 0)" x="361.64799999999997" y="480" width="3.1" height="32"></rect>
    <rect fill="rgb(217, 235, 0)" x="364.64799999999997" y="480" width="3.1" height="32"></rect>
    <rect fill="rgb(200, 232, 0)" x="367.64799999999997" y="480" width="3.1" height="32"></rect>
    <rect fill="rgb(183, 229, 0)" x="370.64799999999997" y="480" width="3.1" height="32"></rect>
    <rect fill="rgb(167, 227, 0)" x="373.64799999999997" y="480" width="3.1" height="32"></rect>
    <rect fill="rgb(150, 224, 0)" x="376.64799999999997" y="480" width="3.1" height="32"></rect>
    <rect fill="rgb(133, 221, 0)" x="379.64799999999997" y="480" width="3.1" height="32"></rect>
    <rect fill="rgb(117, 219, 0)" x="382.64799999999997" y="480" width="3.1" height="32"></rect>
    <rect fill="rgb(100, 216, 0)" x="385.64799999999997" y="480" width="3.1" height="32"></rect>
    <rect fill="rgb(83, 213, 0)" x="388.64799999999997" y="480" width="3.1" height="32"></rect>
    <rect fill="rgb(67, 211, 0)" x="391.64799999999997" y="480" width="3.1" height="32"></rect>
    <rect fill="rgb(50, 208, 0)" x="394.64799999999997" y="480" width="3.1" height="32"></rect>
    <rect fill="rgb(33, 205, 0)" x="397.64799999999997" y="480" width="3.1" height="32"></rect>
    <rect fill="rgb(17, 203, 0)" x="400.64799999999997" y="480" width="3.1" height="32"></rect>
    <rect fill="rgb(0, 200, 0)" x="403.64799999999997" y="480" width="3.1" height="32"></rect>
    <rect fill="rgb(0, 187, 13)" x="406.64799999999997" y="480" width="3.1" height="32"></rect>
    <rect fill="rgb(0, 173, 27)" x="409.64799999999997" y="480" width="3.1" height="32"></rect>
    <rect fill="rgb(0, 160, 40)" x="412.64799999999997" y="480" width="3.1" height="32"></rect>
    <rect fill="rgb(0, 147, 53)" x="415.64799999999997" y="480" width="3.1" height="32"></rect>
    <rect fill="rgb(0, 133, 67)" x="418.64799999999997" y="480" width="3.1" height="32"></rect>
    <rect fill="rgb(0, 120, 80)" x="421.64799999999997" y="480" width="3.1" height="32"></rect>
    <rect fill="rgb(0, 107, 93)" x="424.64799999999997" y="480" width="3.1" height="32"></rect>
    <rect fill="rgb(0, 93, 107)" x="427.64799999999997" y="480" width="3.1" height="32"></rect>
    <rect fill="rgb(0, 80, 120)" x="430.64799999999997" y="480" width="3.1" height="32"></rect>
    <rect fill="rgb(0, 67, 133)" x="433.64799999999997" y="480" width="3.1" height="32"></rect>
    <rect fill="rgb(0, 53, 147)" x="436.64799999999997" y="480" width="3.1" height="32"></rect>
    <rect fill="rgb(0, 40, 160)" x="439.64799999999997" y="480" width="3.1" height="32"></rect>
    <rect fill="rgb(0, 27, 173)" x="442.64799999999997" y="480" width="3.1" height="32"></rect>
    <text x="445.64799999999997" y="544">4:32</text>
    <text x="445.64799999999997" y="560">Min</text>
    <text x="354.14799999999997" y="592" font-size="24px">Pace (min / km)</text>
</svg>