<svg viewBox="0 0 2280 560.0" xmlns="http://www.w3.org/2000/svg">

<style>
  .month-1 {
    fill: #e2e2e2;
  }
  .month-2 {
    fill: #ccc;
  }
  text {
    font-family: Arial;
    text-anchor: middle;
  }
  .axis-label {
    font-size: 24px;
    dominant-baseline: middle;
  }
  circle {
    fill-opacity: 0.7;
    stroke: white;
  }
  .count {
    font-size: 16px;
    dominant-baseline: middle;
  }
  .title {
    font-size: 40px;
    dominant-baseline: middle;
    fill: #222;
  }
  .subtitle {
    font-size: 24px;
    dominant-baseline: middle;
    fill: #777;
  }
  </style>

    <g class="axis-label">
        <text x="60.0" y="160.0">M</text>
        <text x="60.0" y="200.0">T</text>
        <text x="60.0" y="240.0">W</text>
        <text x="60.0" y="280.0">T</text>
        <text x="60.0" y="320.0">F</text>
        <text x="60.0" y="360.0">S</text>
        <text x="60.0" y="400.0">S</text>
        <g transform="translate(220.0 108.0)">
            <text>Jan</text>
            <text y="22.0" class="count">4</text>
        </g>
        <g transform="translate(400.0 108.0)">
            <text>Feb</text>
            <text y="22.0" class="count">5</text>
        </g>
        <g transform="translate(560.0 108.0)">
            <text>Mar</text>
            <text y="22.0" class="count">10</text>
        </g>
        <g transform="translate(720.0 108.0)">
            <text>Apr</text>
            <text y="22.0" class="count">11</text>
        </g>
        <g transform="translate(900.0 108.0)">
            <text>May</text>
            <text y="22.0" class="count">9</text>
        </g>
        <g transform="translate(1080.0 108.0)">
            <text>Jun</text>
            <text y="22.0" class="count">12</text>
        </g>
        <g transform="translate(1240.0 108.0)">
            <text>Jul</text>
            <text y="22.0" class="count">10</text>
        </g>
        <g transform="translate(1420.0 108.0)">
            <text>Aug</text>
            <text y="22.0" class="count">9</text>
        </g>
        <g transform="translate(1600.0 108.0)">
            <text>Sep</text>
            <text y="22.0" class="count">13</text>
        </g>
        <g transform="translate(1780.0 108.0)">
            <text>Oct</text>
            <text y="22.0" class="count">15</text>
        </g>
        <g transform="translate(1960.0 108.0)">
            <text>Nov</text>
            <text y="22.0" class="count">5</text>
        </g>
        <g transform="translate(2120.0 108.0)">
            <text>Dec</text>
        </g>
    </g>
    <rect class="month-2" x="80" y="340.0" width="39" height="39"></rect>
    <rect class="month-2" x="80" y="380.0" width="39" height="39"></rect>
    <rect class="month-2" x="120" y="140.0" width="39" height="39"></rect>
    <rect class="month-2" x="120" y="180.0" width="39" height="39"></rect>
    <rect class="month-2" x="120" y="220.0" width="39" height="39"></rect>
    <rect class="month-2" x="120" y="260.0" width="39" height="39"></rect>
    <rect class="month-2" x="120" y="300.0" width="39" height="39"></rect>
    <rect class="month-2" x="120" y="340.0" width="39" height="39"></rect>
    <rect class="month-2" x="120" y="380.0" width="39" height="39"></rect>
    <rect class="month-2" x="160" y="140.0" width="39" height="39"></rect>
    <rect class="month-2" x="160" y="180.0" width="39" height="39"></rect>
    <rect class="month-2" x="160" y="220.0" width="39" height="39"></rect>
    <rect class="month-2" x="160" y="260.0" width="39" height="39"></rect>
    <rect class="month-2" x="160" y="300.0" width="39" height="39"></rect>
    <rect class="month-2" x="160" y="340.0" width="39" height="39"></rect>
    <rect class="month-2" x="160" y="380.0" width="39" height="39"></rect>
    <rect class="month-2" x="200" y="140.0" width="39" height="39"></rect>
    <rect class="month-2" x="200" y="180.0" width="39" height="39"></rect>
    <rect class="month-2" x="200" y="220.0" width="39" height="39"></rect>
    <rect class="month-2" x="200" y="260.0" width="39" height="39"></rect>
    <rect class="month-2" x="200" y="300.0" width="39" height="39"></rect>
    <rect class="month-2" x="200" y="340.0" width="39" height="39"></rect>
    <rect class="month-2" x="200" y="380.0" width="39" height="39"></rect>
    <rect class="month-2" x="240" y="140.0" width="39" height="39"></rect>
    <rect class="month-2" x="240" y="180.0" width="39" height="39"></rect>
    <rect class="month-2" x="240" y="220.0" width="39" height="39"></rect>
    <rect class="month-2" x="240" y="260.0" width="39" height="39"></rect>
    <rect class="month-2" x="240" y="300.0" width="39" height="39"></rect>
    <rect class="month-2" x="240" y="340.0" width="39" height="39"></rect>
    <rect class="month-2" x="240" y="380.0" width="39" height="39"></rect>
    <rect class="month-2" x="280" y="140.0" width="39" height="39"></rect>
    <rect class="month-1" x="280" y="180.0" width="39" height="39"></rect>
    <rect class="month-1" x="280" y="220.0" width="39" height="39"></rect>
    <rect class="month-1" x="280" y="260.0" width="39" height="39"></rect>
    <rect class="month-1" x="280" y="300.0" width="39" height="39"></rect>
    <rect class="month-1" x="280" y="340.0" width="39" height="39"></rect>
    <rect class="month-1" x="280" y="380.0" width="39" height="39"></rect>
    <rect class="month-1" x="320" y="140.0" width="39" height="39"></rect>
    <rect class="month-1" x="320" y="180.0" width="39" height="39"></rect>
    <rect class="month-1" x="320" y="220.0" width="39" height="39"></rect>
    <rect class="month-1" x="320" y="260.0" width="39" height="39"></rect>
    <rect class="month-1" x="320" y="300.0" width="39" height="39"></rect>
    <rect class="month-1" x="320" y="340.0" width="39" height="39"></rect>
    <rect class="month-1" x="320" y="380.0" width="39" height="39"></rect>
    <rect class="month-1" x="360" y="140.0" width="39" height="39"></rect>
    <rect class="month-1" x="360" y="180.0" width="39" height="39"></rect>
    <rect class="month-1" x="360" y="220.0" width="39" height="39"></rect>
    <rect class="month-1" x="360" y="260.0" width="39" height="39"></rect>
    <rect class="month-1" x="360" y="300.0" width="39" height="39"></rect>
    <rect class="month-1" x="360" y="340.0" width="39" height="39"></rect>
    <rect class="month-1" x="360" y="380.0" width="39" height="39"></rect>
    <rect class="month-1" x="400" y="140.0" width="39" height="39"></rect>
    <rect class="month-1" x="400" y="180.0" width="39" height="39"></rect>
    <rect class="month-1" x="400" y="220.0" width="39" height="39"></rect>
    <rect class="month-1" x="400" y="260.0" width="39" height="39"></rect>
    <rect class="month-1" x="400" y="300.0" width="39" height="39"></rect>
    <rect class="month-1" x="400" y="340.0" width="39" height="39"></rect>
    <rect class="month-1" x="400" y="380.0" width="39" height="39"></rect>
    <rect class="month-1" x="440" y="140.0" width="39" height="39"></rect>
    <rect class="month-2" x="440" y="180.0" width="39" height="39"></rect>
    <rect class="month-2" x="440" y="220.0" width="39" height="39"></rect>
    <rect class="month-2" x="440" y="260.0" width="39" height="39"></rect>
    <rect class="month-2" x="440" y="300.0" width="39" height="39"></rect>
    <rect class="month-2" x="440" y="340.0" width="39" height="39"></rect>
    <rect class="month-2" x="440" y="380.0" width="39" height="39"></rect>
    <rect class="month-2" x="480" y="140.0" width="39" height="39"></rect>
    <rect class="month-2" x="480" y="180.0" width="39" height="39"></rect>
    <rect class="month-2" x="480" y="220.0" width="39" height="39"></rect>
    <rect class="month-2" x="480" y="260.0" width="39" height="39"></rect>
    <rect class="month-2" x="480" y="300.0" width="39" height="39"></rect>
    <rect class="month-2" x="480" y="340.0" width="39" height="39"></rect>
    <rect class="month-2" x="480" y="380.0" width="39" height="39"></rect>
    <rect class="month-2" x="520" y="140.0" width="39" height="39"></rect>
    <rect class="month-2" x="520" y="180.0" width="39" height="39"></rect>
    <rect class="month-2" x="520" y="220.0" width="39" height="39"></rect>
    <rect class="month-2" x="520" y="260.0" width="39" height="39"></rect>
    <rect class="month-2" x="520" y="300.0" width="39" height="39"></rect>
    <rect class="month-2" x="520" y="340.0" width="39" height="39"></rect>
    <rect class="month-2" x="520" y="380.0" width="39" height="39"></rect>
    <rect class="month-2" x="560" y="140.0" width="39" height="39"></rect>
    <rect class="month-2" x="560" y="180.0" width="39" height="39"></rect>
    <rect class="month-2" x="560" y="220.0" width="39" height="39"></rect>
    <rect class="month-2" x="560" y="260.0" width="39" height="39"></rect>
    <rect class="month-2" x="560" y="300.0" width="39" height="39"></rect>
    <rect class="month-2" x="560" y="340.0" width="39" height="39"></rect>
    <rect class="month-2" x="560" y="380.0" width="39" height="39"></rect>
    <rect class="month-2" x="600" y="140.0" width="39" height="39"></rect>
    <rect class="month-2" x="600" y="180.0" width="39" height="39"></rect>
    <rect class="month-2" x="600" y="220.0" width="39" height="39"></rect>
    <rect class="month-2" x="600" y="260.0" width="39" height="39"></rect>
    <rect class="month-1" x="600" y="300.0" width="39" height="39"></rect>
    <rect class="month-1" x="600" y="340.0" width="39" height="39"></rect>
    <rect class="month-1" x="600" y="380.0" width="39" height="39"></rect>
    <rect class="month-1" x="640" y="140.0" width="39" height="39"></rect>
    <rect class="month-1" x="640" y="180.0" width="39" height="39"></rect>
    <rect class="month-1" x="640" y="220.0" width="39" height="39"></rect>
    <rect class="month-1" x="640" y="260.0" width="39" height="39"></rect>
    <rect class="month-1" x="640" y="300.0" width="39" height="39"></rect>
    <rect class="month-1" x="640" y="340.0" width="39" height="39"></rect>
    <rect class="month-1" x="640" y="380.0" width="39" height="39"></rect>
    <rect class="month-1" x="680" y="140.0" width="39" height="39"></rect>
    <rect class="month-1" x="680" y="180.0" width="39" height="39"></rect>
    <rect class="month-1" x="680" y="220.0" width="39" height="39"></rect>
    <rect class="month-1" x="680" y="260.0" width="39" height="39"></rect>
    <rect class="month-1" x="680" y="300.0" width="39" height="39"></rect>
    <rect class="month-1" x="680" y="340.0" width="39" height="39"></rect>
    <rect class="month-1" x="680" y="380.0" width="39" height="39"></rect>
    <rect class="month-1" x="720" y="140.0" width="39" height="39"></rect>
    <rect class="month-1" x="720" y="180.0" width="39" height="39"></rect>
    <rect class="month-1" x="720" y="220.0" width="39" height="39"></rect>
    <rect class="month-1" x="720" y="260.0" width="39" height="39"></rect>
    <rect class="month-1" x="720" y="300.0" width="39" height="39"></rect>
    <rect class="month-1" x="720" y="340.0" width="39" height="39"></rect>
    <rect class="month-1" x="720" y="380.0" width="39" height="39"></rect>
    <rect class="month-1" x="760" y="140.0" width="39" height="39"></rect>
    <rect class="month-1" x="760" y="180.0" width="39" height="39"></rect>
    <rect class="month-1" x="760" y="220.0" width="39" height="39"></rect>
    <rect class="month-1" x="760" y="260.0" width="39" height="39"></rect>
    <rect class="month-1" x="760" y="300.0" width="39" height="39"></rect>
    <rect class="month-1" x="760" y="340.0" width="39" height="39"></rect>
    <rect class="month-2" x="760" y="380.0" width="39" height="39"></rect>
    <rect class="month-2" x="800" y="140.0" width="39" height="39"></rect>
    <rect class="month-2" x="800" y="180.0" width="39" height="39"></rect>
    <rect class="month-2" x="800" y="220.0" width="39" height="39"></rect>
    <rect class="month-2" x="800" y="260.0" width="39" height="39"></rect>
    <rect class="month-2" x="800" y="300.0" width="39" height="39"></rect>
    <rect class="month-2" x="800" y="340.0" width="39" height="39"></rect>
    <rect class="month-2" x="800" y="380.0" width="39" height="39"></rect>
    <rect class="month-2" x="840" y="140.0" width="39" height="39"></rect>
    <rect class="month-2" x="840" y="180.0" width="39" height="39"></rect>
    <rect class="month-2" x="840" y="220.0" width="39" height="39"></rect>
    <rect class="month-2" x="840" y="260.0" width="39" height="39"></rect>
    <rect class="month-2" x="840" y="300.0" width="39" height="39"></rect>
    <rect class="month-2" x="840" y="340.0" width="39" height="39"></rect>
    <rect class="month-2" x="840" y="380.0" width="39" height="39"></rect>
    <rect class="month-2" x="880" y="140.0" width="39" height="39"></rect>
    <rect class="month-2" x="880" y="180.0" width="39" height="39"></rect>
    <rect class="month-2" x="880" y="220.0" width="39" height="39"></rect>
    <rect class="month-2" x="880" y="260.0" width="39" height="39"></rect>
    <rect class="month-2" x="880" y="300.0" width="39" height="39"></rect>
    <rect class="month-2" x="880" y="340.0" width="39" height="39"></rect>
    <rect class="month-2" x="880" y="380.0" width="39" height="39"></rect>
    <rect class="month-2" x="920" y="140.0" width="39" height="39"></rect>
    <rect class="month-2" x="920" y="180.0" width="39" height="39"></rect>
    <rect class="month-2" x="920" y="220.0" width="39" height="39"></rect>
    <rect class="month-2" x="920" y="260.0" width="39" height="39"></rect>
    <rect class="month-2" x="920" y="300.0" width="39" height="39"></rect>
    <rect class="month-2" x="920" y="340.0" width="39" height="39"></rect>
    <rect class="month-2" x="920" y="380.0" width="39" height="39"></rect>
    <rect class="month-2" x="960" y="140.0" width="39" height="39"></rect>
    <rect class="month-2" x="960" y="180.0" width="39" height="39"></rect>
    <rect class="month-1" x="960" y="220.0" width="39" height="39"></rect>
    <rect class="month-1" x="960" y="260.0" width="39" height="39"></rect>
    <rect class="month-1" x="960" y="300.0" width="39" height="39"></rect>
    <rect class="month-1" x="960" y="340.0" width="39" height="39"></rect>
    <rect class="month-1" x="960" y="380.0" width="39" height="39"></rect>
    <rect class="month-1" x="1000" y="140.0" width="39" height="39"></rect>
    <rect class="month-1" x="1000" y="180.0" width="39" height="39"></rect>
    <rect class="month-1" x="1000" y="220.0" width="39" height="39"></rect>
    <rect class="month-1" x="1000" y="260.0" width="39" height="39"></rect>
    <rect class="month-1" x="1000" y="300.0" width="39" height="39"></rect>
    <rect class="month-1" x="1000" y="340.0" width="39" height="39"></rect>
    <rect class="month-1" x="1000" y="380.0" width="39" height="39"></rect>
    <rect class="month-1" x="1040" y="140.0" width="39" height="39"></rect>
    <rect class="month-1" x="1040" y="180.0" width="39" height="39"></rect>
    <rect class="month-1" x="1040" y="220.0" width="39" height="39"></rect>
    <rect class="month-1" x="1040" y="260.0" width="39" height="39"></rect>
    <rect class="month-1" x="1040" y="300.0" width="39" height="39"></rect>
    <rect class="month-1" x="1040" y="340.0" width="39" height="39"></rect>
    <rect class="month-1" x="1040" y="380.0" width="39" height="39"></rect>
    <rect class="month-1" x="1080" y="140.0" width="39" height="39"></rect>
    <rect class="month-1" x="1080" y="180.0" width="39" height="39"></rect>
    <rect class="month-1" x="1080" y="220.0" width="39" height="39"></rect>
    <rect class="month-1" x="1080" y="260.0" width="39" height="39"></rect>
    <rect class="month-1" x="1080" y="300.0" width="39" height="39"></rect>
    <rect class="month-1" x="1080" y="340.0" width="39" height="39"></rect>
    <rect class="month-1" x="1080" y="380.0" width="39" height="39"></rect>
    <rect class="month-1" x="1120" y="140.0" width="39" height="39"></rect>
    <rect class="month-1" x="1120" y="180.0" width="39" height="39"></rect>
    <rect class="month-1" x="1120" y="220.0" width="39" height="39"></rect>
    <rect class="month-1" x="1120" y="260.0" width="39" height="39"></rect>
    <rect class="month-2" x="1120" y="300.0" width="39" height="39"></rect>
    <rect class="month-2" x="1120" y="340.0" width="39" height="39"></rect>
    <rect class="month-2" x="1120" y="380.0" width="39" height="39"></rect>
    <rect class="month-2" x="1160" y="140.0" width="39" height="39"></rect>
    <rect class="month-2" x="1160" y="180.0" width="39" height="39"></rect>
    <rect class="month-2" x="1160" y="220.0" width="39" height="39"></rect>
    <rect class="month-2" x="1160" y="260.0" width="39" height="39"></rect>
    <rect class="month-2" x="1160" y="300.0" width="39" height="39"></rect>
    <rect class="month-2" x="1160" y="340.0" width="39" height="39"></rect>
    <rect class="month-2" x="1160" y="380.0" width="39" height="39"></rect>
    <rect class="month-2" x="1200" y="140.0" width="39" height="39"></rect>
    <rect class="month-2" x="1200" y="180.0" width="39" height="39"></rect>
    <rect class="month-2" x="1200" y="220.0" width="39" height="39"></rect>
    <rect class="month-2" x="1200" y="260.0" width="39" height="39"></rect>
    <rect class="month-2" x="1200" y="300.0" width="39" height="39"></rect>
    <rect class="month-2" x="1200" y="340.0" width="39" height="39"></rect>
    <rect class="month-2" x="1200" y="380.0" width="39" height="39"></rect>
    <rect class="month-2" x="1240" y="140.0" width="39" height="39"></rect>
    <rect class="month-2" x="1240" y="180.0" width="39" height="39"></rect>
    <rect class="month-2" x="1240" y="220.0" width="39" height="39"></rect>
    <rect class="month-2" x="1240" y="260.0" width="39" height="39"></rect>
    <rect class="month-2" x="1240" y="300.0" width="39" height="39"></rect>
    <rect class="month-2" x="1240" y="340.0" width="39" height="39"></rect>
    <rect class="month-2" x="1240" y="380.0" width="39" height="39"></rect>
    <rect class="month-2" x="1280" y="140.0" width="39" height="39"></rect>
    <rect class="month-2" x="1280" y="180.0" width="39" height="39"></rect>
    <rect class="month-2" x="1280" y="220.0" width="39" height="39"></rect>
    <rect class="month-2" x="1280" y="260.0" width="39" height="39"></rect>
    <rect class="month-2" x="1280" y="300.0" width="39" height="39"></rect>
    <rect class="month-2" x="1280" y="340.0" width="39" height="39"></rect>
    <rect class="month-2" x="1280" y="380.0" width="39" height="39"></rect>
    <rect class="month-1" x="1320" y="140.0" width="39" height="39"></rect>
    <rect class="month-1" x="1320" y="180.0" width="39" height="39"></rect>
    <rect class="month-1" x="1320" y="220.0" width="39" height="39"></rect>
    <rect class="month-1" x="1320" y="260.0" width="39" height="39"></rect>
    <rect class="month-1" x="1320" y="300.0" width="39" height="39"></rect>
    <rect class="month-1" x="1320" y="340.0" width="39" height="39"></rect>
    <rect class="month-1" x="1320" y="380.0" width="39" height="39"></rect>
    <rect class="month-1" x="1360" y="140.0" width="39" height="39"></rect>
    <rect class="month-1" x="1360" y="180.0" width="39" height="39"></rect>
    <rect class="month-1" x="1360" y="220.0" width="39" height="39"></rect>
    <rect class="month-1" x="1360" y="260.0" width="39" height="39"></rect>
    <rect class="month-1" x="1360" y="300.0" width="39" height="39"></rect>
    <rect class="month-1" x="1360" y="340.0" width="39" height="39"></rect>
    <rect class="month-1" x="1360" y="380.0" width="39" height="39"></rect>
    <rect class="month-1" x="1400" y="140.0" width="39" height="39"></rect>
    <rect class="month-1" x="1400" y="180.0" width="39" height="39"></rect>
    <rect class="month-1" x="1400" y="220.0" width="39" height="39"></rect>
    <rect class="month-1" x="1400" y="260.0" width="39" height="39"></rect>
    <rect class="month-1" x="1400" y="300.0" width="39" height="39"></rect>
    <rect class="month-1" x="1400" y="340.0" width="39" height="39"></rect>
    <rect class="month-1" x="1400" y="380.0" width="39" height="39"></rect>
    <rect class="month-1" x="1440" y="140.0" width="39" height="39"></rect>
    <rect class="month-1" x="1440" y="180.0" width="39" height="39"></rect>
    <rect class="month-1" x="1440" y="220.0" width="39" height="39"></rect>
    <rect class="month-1" x="1440" y="260.0" width="39" height="39"></rect>
    <rect class="month-1" x="1440" y="300.0" width="39" height="39"></rect>
    <rect class="month-1" x="1440" y="340.0" width="39" height="39"></rect>
    <rect class="month-1" x="1440" y="380.0" width="39" height="39"></rect>
    <rect class="month-1" x="1480" y="140.0" width="39" height="39"></rect>
    <rect class="month-1" x="1480" y="180.0" width="39" height="39"></rect>
    <rect class="month-1" x="1480" y="220.0" width="39" height="39"></rect>
    <rect class="month-2" x="1480" y="260.0" width="39" height="39"></rect>
    <rect class="month-2" x="1480" y="300.0" width="39" height="39"></rect>
    <rect class="month-2" x="1480" y="340.0" width="39" height="39"></rect>
    <rect class="month-2" x="1480" y="380.0" width="39" height="39"></rect>
    <rect class="month-2" x="1520" y="140.0" width="39" height="39"></rect>
    <rect class="month-2" x="1520" y="180.0" width="39" height="39"></rect>
    <rect class="month-2" x="1520" y="220.0" width="39" height="39"></rect>
    <rect class="month-2" x="1520" y="260.0" width="39" height="39"></rect>
    <rect class="month-2" x="1520" y="300.0" width="39" height="39"></rect>
    <rect class="month-2" x="1520" y="340.0" width="39" height="39"></rect>
    <rect class="month-2" x="1520" y="380.0" width="39" height="39"></rect>
    <rect class="month-2" x="1560" y="140.0" width="39" height="39"></rect>
    <rect class="month-2" x="1560" y="180.0" width="39" height="39"></rect>
    <rect class="month-2" x="1560" y="220.0" width="39" height="39"></rect>
    <rect class="month-2" x="1560" y="260.0" width="39" height="39"></rect>
    <rect class="month-2" x="1560" y="300.0" width="39" height="39"></rect>
    <rect class="month-2" x="1560" y="340.0" width="39" height="39"></rect>
    <rect class="month-2" x="1560" y="380.0" width="39" height="39"></rect>
    <rect class="month-2" x="1600" y="140.0" width="39" height="39"></rect>
    <rect class="month-2" x="1600" y="180.0" width="39" height="39"></rect>
    <rect class="month-2" x="1600" y="220.0" width="39" height="39"></rect>
    <rect class="month-2" x="1600" y="260.0" width="39" height="39"></rect>
    <rect class="month-2" x="1600" y="300.0" width="39" height="39"></rect>
    <rect class="month-2" x="1600" y="340.0" width="39" height="39"></rect>
    <rect class="month-2" x="1600" y="380.0" width="39" height="39"></rect>
    <rect class="month-2" x="1640" y="140.0" width="39" height="39"></rect>
    <rect class="month-2" x="1640" y="180.0" width="39" height="39"></rect>
    <rect class="month-2" x="1640" y="220.0" width="39" height="39"></rect>
    <rect class="month-2" x="1640" y="260.0" width="39" height="39"></rect>
    <rect class="month-2" x="1640" y="300.0" width="39" height="39"></rect>
    <rect class="month-1" x="1640" y="340.0" width="39" height="39"></rect>
    <rect class="month-1" x="1640" y="380.0" width="39" height="39"></rect>
    <rect class="month-1" x="1680" y="140.0" width="39" height="39"></rect>
    <rect class="month-1" x="1680" y="180.0" width="39" height="39"></rect>
    <rect class="month-1" x="1680" y="220.0" width="39" height="39"></rect>
    <rect class="month-1" x="1680" y="260.0" width="39" height="39"></rect>
    <rect class="month-1" x="1680" y="300.0" width="39" height="39"></rect>
    <rect class="month-1" x="1680" y="340.0" width="39" height="39"></rect>
    <rect class="month-1" x="1680" y="380.0" width="39" height="39"></rect>
    <rect class="month-1" x="1720" y="140.0" width="39" height="39"></rect>
    <rect class="month-1" x="1720" y="180.0" width="39" height="39"></rect>
    <rect class="month-1" x="1720" y="220.0" width="39" height="39"></rect>
    <rect class="month-1" x="1720" y="260.0" width="39" height="39"></rect>
    <rect class="month-1" x="1720" y="300.0" width="39" height="39"></rect>
    <rect class="month-1" x="1720" y="340.0" width="39" height="39"></rect>
    <rect class="month-1" x="1720" y="380.0" width="39" height="39"></rect>
    <rect class="month-1" x="1760" y="140.0" width="39" height="39"></rect>
    <rect class="month-1" x="1760" y="180.0" width="39" height="39"></rect>
    <rect class="month-1" x="1760" y="220.0" width="39" height="39"></rect>
    <rect class="month-1" x="1760" y="260.0" width="39" height="39"></rect>
    <rect class="month-1" x="1760" y="300.0" width="39" height="39"></rect>
    <rect class="month-1" x="1760" y="340.0" width="39" height="39"></rect>
    <rect class="month-1" x="1760" y="380.0" width="39" height="39"></rect>
    <rect class="month-1" x="1800" y="140.0" width="39" height="39"></rect>
    <rect class="month-1" x="1800" y="180.0" width="39" height="39"></rect>
    <rect class="month-1" x="1800" y="220.0" width="39" height="39"></rect>
    <rect class="month-1" x="1800" y="260.0" width="39" height="39"></rect>
    <rect class="month-1" x="1800" y="300.0" width="39" height="39"></rect>
    <rect class="month-1" x="1800" y="340.0" width="39" height="39"></rect>
    <rect class="month-1" x="1800" y="380.0" width="39" height="39"></rect>
    <rect class="month-1" x="1840" y="140.0" width="39" height="39"></rect>
    <rect class="month-2" x="1840" y="180.0" width="39" height="39"></rect>
    <rect class="month-2" x="1840" y="220.0" width="39" height="39"></rect>
    <rect class="month-2" x="1840" y="260.0" width="39" height="39"></rect>
    <rect class="month-2" x="1840" y="300.0" width="39" height="39"></rect>
    <rect class="month-2" x="1840" y="340.0" width="39" height="39"></rect>
    <rect class="month-2" x="1840" y="380.0" width="39" height="39"></rect>
    <rect class="month-2" x="1880" y="140.0" width="39" height="39"></rect>
    <rect class="month-2" x="1880" y="180.0" width="39" height="39"></rect>
    <rect class="month-2" x="1880" y="220.0" width="39" height="39"></rect>
    <rect class="month-2" x="1880" y="260.0" width="39" height="39"></rect>
    <rect class="month-2" x="1880" y="300.0" width="39" height="39"></rect>
    <rect class="month-2" x="1880" y="340.0" width="39" height="39"></rect>
    <rect class="month-2" x="1880" y="380.0" width="39" height="39"></rect>
    <rect class="month-2" x="1920" y="140.0" width="39" height="39"></rect>
    <rect class="month-2" x="1920" y="180.0" width="39" height="39"></rect>
    <rect class="month-2" x="1920" y="220.0" width="39" height="39"></rect>
    <rect class="month-2" x="1920" y="260.0" width="39" height="39"></rect>
    <rect class="month-2" x="1920" y="300.0" width="39" height="39"></rect>
    <rect class="month-2" x="1920" y="340.0" width="39" height="39"></rect>
    <rect class="month-2" x="1920" y="380.0" width="39" height="39"></rect>
    <rect class="month-2" x="1960" y="140.0" width="39" height="39"></rect>
    <rect class="month-2" x="1960" y="180.0" width="39" height="39"></rect>
    <rect class="month-2" x="1960" y="220.0" width="39" height="39"></rect>
    <rect class="month-2" x="1960" y="260.0" width="39" height="39"></rect>
    <rect class="month-2" x="1960" y="300.0" width="39" height="39"></rect>
    <rect class="month-2" x="1960" y="340.0" width="39" height="39"></rect>
    <rect class="month-2" x="1960" y="380.0" width="39" height="39"></rect>
    <rect class="month-2" x="2000" y="140.0" width="39" height="39"></rect>
    <rect class="month-2" x="2000" y="180.0" width="39" height="39"></rect>
    <rect class="month-2" x="2000" y="220.0" width="39" height="39"></rect>
    <rect class="month-1" x="2000" y="260.0" width="39" height="39"></rect>
    <rect class="month-1" x="2000" y="300.0" width="39" height="39"></rect>
    <rect class="month-1" x="2000" y="340.0" width="39" height="39"></rect>
    <rect class="month-1" x="2000" y="380.0" width="39" height="39"></rect>
    <rect class="month-1" x="2040" y="140.0" width="39" height="39"></rect>
    <rect class="month-1" x="2040" y="180.0" width="39" height="39"></rect>
    <rect class="month-1" x="2040" y="220.0" width="39" height="39"></rect>
    <rect class="month-1" x="2040" y="260.0" width="39" height="39"></rect>
    <rect class="month-1" x="2040" y="300.0" width="39" height="39"></rect>
    <rect class="month-1" x="2040" y="340.0" width="39" height="39"></rect>
    <rect class="month-1" x="2040" y="380.0" width="39" height="39"></rect>
    <rect class="month-1" x="2080" y="140.0" width="39" height="39"></rect>
    <rect class="month-1" x="2080" y="180.0" width="39" height="39"></rect>
    <rect class="month-1" x="2080" y="220.0" width="39" height="39"></rect>
    <rect class="month-1" x="2080" y="260.0" width="39" height="39"></rect>
    <rect class="month-1" x="2080" y="300.0" width="39" height="39"></rect>
    <rect class="month-1" x="2080" y="340.0" width="39" height="39"></rect>
    <rect class="month-1" x="2080" y="380.0" width="39" height="39"></rect>
    <rect class="month-1" x="2120" y="140.0" width="39" height="39"></rect>
    <rect class="month-1" x="2120" y="180.0" width="39" height="39"></rect>
    <rect class="month-1" x="2120" y="220.0" width="39" height="39"></rect>
    <rect class="month-1" x="2120" y="260.0" width="39" height="39"></rect>
    <rect class="month-1" x="2120" y="300.0" width="39" height="39"></rect>
    <rect class="month-1" x="2120" y="340.0" width="39" height="39"></rect>
    <rect class="month-1" x="2120" y="380.0" width="39" height="39"></rect>
    <rect class="month-1" x="2160" y="140.0" width="39" height="39"></rect>
    <rect class="month-1" x="2160" y="180.0" width="39" height="39"></rect>
    <rect class="month-1" x="2160" y="220.0" width="39" height="39"></rect>
    <rect class="month-1" x="2160" y="260.0" width="39" height="39"></rect>
    <rect class="month-1" x="2160" y="300.0" width="39" height="39"></rect>
    <rect class="month-1" x="2160" y="340.0" width="39" height="39"></rect>
    <text x="1140.0" y="25" class="title">2022</text>
    <text x="1140.0" y="58" class="subtitle">103 runs, 568 km, 47hrs 36 mins</text>
    <g class="count">
        <text x="2220.0" y="400.0">18</text>
        <text x="2220.0" y="360.0">10</text>
        <text x="2220.0" y="280.0">20</text>
        <text x="2220.0" y="200.0">16</text>
        <text x="2220.0" y="320.0">9</text>
        <text x="2220.0" y="160.0">15</text>
        <text x="2220.0" y="240.0">15</text>
        <text x="2220.0" y="440.0">103</text>
        <text x="140.0" y="440.0">1</text>
        <text x="180.0" y="440.0">1</text>
        <text x="220.0" y="440.0">1</text>
        <text x="260.0" y="440.0">1</text>
        <text x="300.0" y="440.0">1</text>
        <text x="340.0" y="440.0">1</text>
        <text x="380.0" y="440.0">1</text>
        <text x="420.0" y="440.0">2</text>
        <text x="460.0" y="440.0">1</text>
        <text x="500.0" y="440.0">2</text>
        <text x="540.0" y="440.0">3</text>
        <text x="580.0" y="440.0">3</text>
        <text x="620.0" y="440.0">2</text>
        <text x="660.0" y="440.0">3</text>
        <text x="700.0" y="440.0">3</text>
        <text x="740.0" y="440.0">2</text>
        <text x="780.0" y="440.0">2</text>
        <text x="820.0" y="440.0">2</text>
        <text x="860.0" y="440.0">2</text>
        <text x="900.0" y="440.0">4</text>
        <text x="940.0" y="440.0">1</text>
        <text x="980.0" y="440.0">2</text>
        <text x="1020.0" y="440.0">2</text>
        <text x="1060.0" y="440.0">3</text>
        <text x="1100.0" y="440.0">3</text>
        <text x="1140.0" y="440.0">3</text>
        <text x="1180.0" y="440.0">2</text>
        <text x="1220.0" y="440.0">3</text>
        <text x="1260.0" y="440.0">2</text>
        <text x="1300.0" y="440.0">2</text>
        <text x="1340.0" y="440.0">4</text>
        <text x="1420.0" y="440.0">3</text>
        <text x="1460.0" y="440.0">1</text>
        <text x="1500.0" y="440.0">2</text>
        <text x="1540.0" y="440.0">4</text>
        <text x="1580.0" y="440.0">3</text>
        <text x="1620.0" y="440.0">2</text>
        <text x="1660.0" y="440.0">4</text>
        <text x="1700.0" y="440.0">4</text>
        <text x="1740.0" y="440.0">3</text>
        <text x="1780.0" y="440.0">3</text>
        <text x="1820.0" y="440.0">4</text>
        <text x="1860.0" y="440.0">2</text>
        <text x="1900.0" y="440.0">2</text>
        <text x="1980.0" y="440.0">1</text>
    </g>
    <circle fill="rgb(188, 0, 0)" cx="140.0" cy="400.0" r="13.08"></circle>
    <circle fill="rgb(184, 0, 0)" cx="180.0" cy="400.0" r="21.16"></circle>
    <circle fill="rgb(201, 5, 0)" cx="220.0" cy="400.0" r="20.12"></circle>
    <circle fill="rgb(182, 0, 0)" cx="260.0" cy="360.0" r="20.76"></circle>
    <circle fill="rgb(200, 0, 0)" cx="300.0" cy="360.0" r="21.32"></circle>
    <circle fill="rgb(191, 0, 0)" cx="340.0" cy="360.0" r="20.04"></circle>
    <circle fill="rgb(204, 22, 0)" cx="380.0" cy="280.0" r="20.36"></circle>
    <circle fill="rgb(202, 9, 0)" cx="420.0" cy="200.0" r="18.4"></circle>
    <circle fill="rgb(204, 18, 0)" cx="420.0" cy="320.0" r="20.880000000000003"></circle>
    <circle fill="rgb(206, 27, 0)" cx="460.0" cy="360.0" r="20.16"></circle>
    <circle fill="rgb(206, 26, 0)" cx="500.0" cy="200.0" r="22.480000000000004"></circle>
    <circle fill="rgb(207, 33, 0)" cx="500.0" cy="360.0" r="21.6"></circle>
    <circle fill="rgb(214, 69, 0)" cx="540.0" cy="160.0" r="21.0"></circle>
    <circle fill="rgb(236, 171, 0)" cx="540.0" cy="280.0" r="19.48"></circle>
    <circle fill="rgb(210, 49, 0)" cx="540.0" cy="360.0" r="18.76"></circle>
    <circle fill="rgb(225, 122, 0)" cx="580.0" cy="200.0" r="22.04"></circle>
    <circle fill="rgb(235, 238, 0)" cx="580.0" cy="280.0" r="22.04"></circle>
    <circle fill="rgb(237, 179, 0)" cx="580.0" cy="400.0" r="21.879999999999995"></circle>
    <circle fill="rgb(213, 61, 0)" cx="620.0" cy="240.0" r="18.8"></circle>
    <circle fill="rgb(92, 215, 0)" cx="620.0" cy="400.0" r="22.0"></circle>
    <circle fill="rgb(233, 159, 0)" cx="660.0" cy="200.0" r="22.160000000000004"></circle>
    <circle fill="rgb(218, 86, 0)" cx="660.0" cy="280.0" r="21.559999999999995"></circle>
    <circle fill="rgb(248, 231, 0)" cx="660.0" cy="360.0" r="25.2"></circle>
    <circle fill="rgb(228, 135, 0)" cx="700.0" cy="160.0" r="18.96"></circle>
    <circle fill="rgb(240, 193, 0)" cx="700.0" cy="280.0" r="21.96"></circle>
    <circle fill="rgb(244, 210, 0)" cx="700.0" cy="400.0" r="21.68"></circle>
    <circle fill="rgb(241, 196, 0)" cx="740.0" cy="240.0" r="21.8"></circle>
    <circle fill="rgb(249, 234, 0)" cx="740.0" cy="400.0" r="26.239999999999995"></circle>
    <circle fill="rgb(215, 70, 0)" cx="780.0" cy="200.0" r="20.48"></circle>
    <circle fill="rgb(244, 212, 0)" cx="780.0" cy="360.0" r="32.4"></circle>
    <circle fill="rgb(62, 210, 0)" cx="820.0" cy="280.0" r="22.0"></circle>
    <circle fill="rgb(216, 235, 0)" cx="820.0" cy="400.0" r="25.68"></circle>
    <circle fill="rgb(226, 123, 0)" cx="860.0" cy="200.0" r="18.08"></circle>
    <circle fill="rgb(0, 172, 28)" cx="860.0" cy="280.0" r="22.24"></circle>
    <circle fill="rgb(157, 225, 0)" cx="900.0" cy="160.0" r="22.12"></circle>
    <circle fill="rgb(136, 222, 0)" cx="900.0" cy="240.0" r="22.199999999999996"></circle>
    <circle fill="rgb(246, 221, 0)" cx="900.0" cy="320.0" r="22.12"></circle>
    <circle fill="rgb(240, 192, 0)" cx="900.0" cy="400.0" r="26.16"></circle>
    <circle fill="rgb(247, 224, 0)" cx="940.0" cy="280.0" r="22.12"></circle>
    <circle fill="rgb(245, 215, 0)" cx="980.0" cy="280.0" r="22.160000000000004"></circle>
    <circle fill="rgb(109, 217, 0)" cx="980.0" cy="400.0" r="26.04"></circle>
    <circle fill="rgb(114, 218, 0)" cx="1020.0" cy="200.0" r="22.08"></circle>
    <circle fill="rgb(0, 85, 115)" cx="1020.0" cy="280.0" r="22.0"></circle>
    <circle fill="rgb(87, 214, 0)" cx="1060.0" cy="160.0" r="22.12"></circle>
    <circle fill="rgb(11, 202, 0)" cx="1060.0" cy="280.0" r="22.08"></circle>
    <circle fill="rgb(131, 221, 0)" cx="1060.0" cy="400.0" r="25.76"></circle>
    <circle fill="rgb(195, 231, 0)" cx="1100.0" cy="240.0" r="21.92"></circle>
    <circle fill="rgb(0, 26, 174)" cx="1100.0" cy="320.0" r="22.08"></circle>
    <circle fill="rgb(196, 0, 0)" cx="1100.0" cy="400.0" r="40.28"></circle>
    <circle fill="rgb(23, 204, 0)" cx="1140.0" cy="200.0" r="22.04"></circle>
    <circle fill="rgb(0, 141, 59)" cx="1140.0" cy="280.0" r="20.0"></circle>
    <circle fill="rgb(0, 189, 11)" cx="1140.0" cy="400.0" r="26.0"></circle>
    <circle fill="rgb(199, 232, 0)" cx="1180.0" cy="200.0" r="22.08"></circle>
    <circle fill="rgb(0, 59, 141)" cx="1180.0" cy="280.0" r="22.04"></circle>
    <circle fill="rgb(246, 223, 0)" cx="1220.0" cy="160.0" r="22.04"></circle>
    <circle fill="rgb(38, 206, 0)" cx="1220.0" cy="240.0" r="22.04"></circle>
    <circle fill="rgb(208, 233, 0)" cx="1220.0" cy="280.0" r="22.08"></circle>
    <circle fill="rgb(208, 233, 0)" cx="1260.0" cy="240.0" r="22.08"></circle>
    <circle fill="rgb(196, 231, 0)" cx="1260.0" cy="320.0" r="22.08"></circle>
    <circle fill="rgb(247, 240, 0)" cx="1300.0" cy="200.0" r="22.12"></circle>
    <circle fill="rgb(247, 225, 0)" cx="1300.0" cy="280.0" r="22.0"></circle>
    <circle fill="rgb(45, 207, 0)" cx="1340.0" cy="160.0" r="22.08"></circle>
    <circle fill="rgb(236, 170, 0)" cx="1340.0" cy="200.0" r="22.08"></circle>
    <circle fill="rgb(242, 201, 0)" cx="1340.0" cy="280.0" r="22.08"></circle>
    <circle fill="rgb(246, 223, 0)" cx="1340.0" cy="400.0" r="22.12"></circle>
    <circle fill="rgb(165, 226, 0)" cx="1420.0" cy="160.0" r="22.0"></circle>
    <circle fill="rgb(214, 234, 0)" cx="1420.0" cy="240.0" r="22.08"></circle>
    <circle fill="rgb(211, 234, 0)" cx="1420.0" cy="280.0" r="22.24"></circle>
    <circle fill="rgb(226, 124, 0)" cx="1460.0" cy="400.0" r="22.28"></circle>
    <circle fill="rgb(246, 223, 0)" cx="1500.0" cy="200.0" r="22.12"></circle>
    <circle fill="rgb(210, 234, 0)" cx="1500.0" cy="280.0" r="20.04"></circle>
    <circle fill="rgb(208, 233, 0)" cx="1540.0" cy="160.0" r="22.12"></circle>
    <circle fill="rgb(0, 142, 58)" cx="1540.0" cy="200.0" r="22.08"></circle>
    <circle fill="rgb(124, 220, 0)" cx="1540.0" cy="240.0" r="22.199999999999996"></circle>
    <circle fill="rgb(99, 216, 0)" cx="1540.0" cy="320.0" r="22.12"></circle>
    <circle fill="rgb(250, 239, 0)" cx="1580.0" cy="160.0" r="22.12"></circle>
    <circle fill="rgb(0, 170, 30)" cx="1580.0" cy="240.0" r="22.04"></circle>
    <circle fill="rgb(24, 204, 0)" cx="1580.0" cy="320.0" r="22.08"></circle>
    <circle fill="rgb(135, 222, 0)" cx="1620.0" cy="160.0" r="22.08"></circle>
    <circle fill="rgb(0, 148, 52)" cx="1620.0" cy="200.0" r="22.24"></circle>
    <circle fill="rgb(241, 196, 0)" cx="1660.0" cy="160.0" r="22.0"></circle>
    <circle fill="rgb(248, 230, 0)" cx="1660.0" cy="200.0" r="22.0"></circle>
    <circle fill="rgb(244, 211, 0)" cx="1660.0" cy="280.0" r="22.0"></circle>
    <circle fill="rgb(214, 68, 0)" cx="1660.0" cy="360.0" r="20.8"></circle>
    <circle fill="rgb(236, 173, 0)" cx="1700.0" cy="160.0" r="22.0"></circle>
    <circle fill="rgb(53, 209, 0)" cx="1700.0" cy="240.0" r="20.0"></circle>
    <circle fill="rgb(98, 216, 0)" cx="1700.0" cy="320.0" r="22.0"></circle>
    <circle fill="rgb(186, 230, 0)" cx="1700.0" cy="400.0" r="22.0"></circle>
    <circle fill="rgb(147, 224, 0)" cx="1740.0" cy="160.0" r="22.0"></circle>
    <circle fill="rgb(249, 234, 0)" cx="1740.0" cy="240.0" r="22.0"></circle>
    <circle fill="rgb(248, 230, 0)" cx="1740.0" cy="280.0" r="22.0"></circle>
    <circle fill="rgb(249, 237, 0)" cx="1780.0" cy="160.0" r="22.0"></circle>
    <circle fill="rgb(248, 230, 0)" cx="1780.0" cy="240.0" r="22.0"></circle>
    <circle fill="rgb(100, 216, 0)" cx="1780.0" cy="360.0" r="20.0"></circle>
    <circle fill="rgb(177, 228, 0)" cx="1820.0" cy="160.0" r="22.0"></circle>
    <circle fill="rgb(244, 239, 0)" cx="1820.0" cy="240.0" r="22.0"></circle>
    <circle fill="rgb(86, 214, 0)" cx="1820.0" cy="320.0" r="22.0"></circle>
    <circle fill="rgb(247, 224, 0)" cx="1820.0" cy="400.0" r="22.0"></circle>
    <circle fill="rgb(83, 213, 0)" cx="1860.0" cy="240.0" r="22.0"></circle>
    <circle fill="rgb(144, 223, 0)" cx="1860.0" cy="320.0" r="22.0"></circle>
    <circle fill="rgb(150, 224, 0)" cx="1900.0" cy="240.0" r="22.0"></circle>
    <circle fill="rgb(226, 236, 0)" cx="1900.0" cy="400.0" r="22.0"></circle>
    <circle fill="rgb(33, 205, 0)" cx="1980.0" cy="200.0" r="20.0"></circle>
    <circle fill="rgb(140, 140, 140)" cx="100.0" cy="530.92" r="13.08"></circle>
    <text x="100.0" y="560.0">3.27</text>
    <text x="100.0" y="576.0">Min</text>
    <circle fill="rgb(140, 140, 140)" cx="142.0" cy="522.0" r="22.0"></circle>
    <text x="142.0" y="560.0">5.5</text>
    <text x="142.0" y="576.0">Med</text>
    <circle fill="rgb(140, 140, 140)" cx="204.28" cy="503.72" r="40.28"></circle>
    <text x="204.28" y="560.0">10.07</text>
    <text x="204.28" y="576.0">Max</text>
    <text x="162.28" y="608.0" font-size="24px">Distance (km)</text>
    <text x="324.56" y="560.0">5:33</text>
    <text x="324.56" y="576.0">Max</text>
    <rect fill="rgb(180, 0, 0)" x="324.56" y="500.0" width="3.1" height="40"></rect>
    <rect fill="rgb(187, 0, 0)" x="327.56" y="500.0" width="3.1" height="40"></rect>
    <rect fill="rgb(193, 0, 0)" x="330.56" y="500.0" width="3.1" height="40"></rect>
    <rect fill="rgb(200, 0, 0)" x="333.56" y="500.0" width="3.1" height="40"></rect>
    <rect fill="rgb(202, 8, 0)" x="336.56" y="500.0" width="3.1" height="40"></rect>
    <rect fill="rgb(203, 16, 0)" x="339.56" y="500.0" width="3.1" height="40"></rect>
    <rect fill="rgb(205, 24, 0)" x="342.56" y="500.0" width="3.1" height="40"></rect>
    <rect fill="rgb(207, 32, 0)" x="345.56" y="500.0" width="3.1" height="40"></rect>
    <rect fill="rgb(208, 40, 0)" x="348.56" y="500.0" width="3.1" height="40"></rect>
    <rect fill="rgb(210, 48, 0)" x="351.56" y="500.0" width="3.1" height="40"></rect>
    <rect fill="rgb(212, 56, 0)" x="354.56" y="500.0" width="3.1" height="40"></rect>
    <rect fill="rgb(213, 64, 0)" x="357.56" y="500.0" width="3.1" height="40"></rect>
    <rect fill="rgb(215, 72, 0)" x="360.56" y="500.0" width="3.1" height="40"></rect>
    <rect fill="rgb(217, 80, 0)" x="363.56" y="500.0" width="3.1" height="40"></rect>
    <rect fill="rgb(218, 88, 0)" x="366.56" y="500.0" width="3.1" height="40"></rect>
    <rect fill="rgb(220, 96, 0)" x="369.56" y="500.0" width="3.1" height="40"></rect>
    <rect fill="rgb(222, 104, 0)" x="372.56" y="500.0" width="3.1" height="40"></rect>
    <rect fill="rgb(223, 112, 0)" x="375.56" y="500.0" width="3.1" height="40"></rect>
    <rect fill="rgb(225, 120, 0)" x="378.56" y="500.0" width="3.1" height="40"></rect>
    <rect fill="rgb(227, 128, 0)" x="381.56" y="500.0" width="3.1" height="40"></rect>
    <rect fill="rgb(228, 136, 0)" x="384.56" y="500.0" width="3.1" height="40"></rect>
    <rect fill="rgb(230, 144, 0)" x="387.56" y="500.0" width="3.1" height="40"></rect>
    <rect fill="rgb(232, 152, 0)" x="390.56" y="500.0" width="3.1" height="40"></rect>
    <rect fill="rgb(233, 160, 0)" x="393.56" y="500.0" width="3.1" height="40"></rect>
    <rect fill="rgb(235, 168, 0)" x="396.56" y="500.0" width="3.1" height="40"></rect>
    <rect fill="rgb(237, 176, 0)" x="399.56" y="500.0" width="3.1" height="40"></rect>
    <rect fill="rgb(238, 184, 0)" x="402.56" y="500.0" width="3.1" height="40"></rect>
    <rect fill="rgb(240, 192, 0)" x="405.56" y="500.0" width="3.1" height="40"></rect>
    <rect fill="rgb(242, 200, 0)" x="408.56" y="500.0" width="3.1" height="40"></rect>
    <rect fill="rgb(243, 208, 0)" x="411.56" y="500.0" width="3.1" height="40"></rect>
    <rect fill="rgb(245, 216, 0)" x="414.56" y="500.0" width="3.1" height="40"></rect>
    <rect fill="rgb(247, 224, 0)" x="417.56" y="500.0" width="3.1" height="40"></rect>
    <rect fill="rgb(248, 232, 0)" x="420.56" y="500.0" width="3.1" height="40"></rect>
    <rect fill="rgb(250, 240, 0)" x="423.56" y="500.0" width="3.1" height="40"></rect>
    <text x="423.56" y="560.0">5:00</text>
    <text x="423.56" y="576.0">Med</text>
    <rect fill="rgb(233, 237, 0)" x="426.56" y="500.0" width="3.1" height="40"></rect>
    <rect fill="rgb(217, 235, 0)" x="429.56" y="500.0" width="3.1" height="40"></rect>
    <rect fill="rgb(200, 232, 0)" x="432.56" y="500.0" width="3.1" height="40"></rect>
    <rect fill="rgb(183, 229, 0)" x="435.56" y="500.0" width="3.1" height="40"></rect>
    <rect fill="rgb(167, 227, 0)" x="438.56" y="500.0" width="3.1" height="40"></rect>
    <rect fill="rgb(150, 224, 0)" x="441.56" y="500.0" width="3.1" height="40"></rect>
    <rect fill="rgb(133, 221, 0)" x="444.56" y="500.0" width="3.1" height="40"></rect>
    <rect fill="rgb(117, 219, 0)" x="447.56" y="500.0" width="3.1" height="40"></rect>
    <rect fill="rgb(100, 216, 0)" x="450.56" y="500.0" width="3.1" height="40"></rect>
    <rect fill="rgb(83, 213, 0)" x="453.56" y="500.0" width="3.1" height="40"></rect>
    <rect fill="rgb(67, 211, 0)" x="456.56" y="500.0" width="3.1" height="40"></rect>
    <rect fill="rgb(50, 208, 0)" x="459.56" y="500.0" width="3.1" height="40"></rect>
    <rect fill="rgb(33, 205, 0)" x="462.56" y="500.0" width="3.1" height="40"></rect>
    <rect fill="rgb(17, 203, 0)" x="465.56" y="500.0" width="3.1" height="40"></rect>
    <rect fill="rgb(0, 200, 0)" x="468.56" y="500.0" width="3.1" height="40"></rect>
    <rect fill="rgb(0, 187, 13)" x="471.56" y="500.0" width="3.1" height="40"></rect>
    <rect fill="rgb(0, 173, 27)" x="474.56" y="500.0" width="3.1" height="40"></rect>
    <rect fill="rgb(0, 160, 40)" x="477.56" y="500.0" width="3.1" height="40"></rect>
    <rect fill="rgb(0, 147, 53)" x="480.56" y="500.0" width="3.1" height="40"></rect>
    <rect fill="rgb(0, 133, 67)" x="483.56" y="500.0" width="3.1" height="40"></rect>
    <rect fill="rgb(0, 120, 80)" x="486.56" y="500.0" width="3.1" height="40"></rect>
    <rect fill="rgb(0, 107, 93)" x="489.56" y="500.0" width="3.1" height="40"></rect>
    <rect fill="rgb(0, 93, 107)" x="492.56" y="500.0" width="3.1" height="40"></rect>
    <rect fill="rgb(0, 80, 120)" x="495.56" y="500.0" width="3.1" height="40"></rect>
    <rect fill="rgb(0, 67, 133)" x="498.56" y="500.0" width="3.1" height="40"></rect>
    <rect fill="rgb(0, 53, 147)" x="501.56" y="500.0" width="3.1" height="40"></rect>
    <rect fill="rgb(0, 40, 160)" x="504.56" y="500.0" width="3.1" height="40"></rect>
    <rect fill="rgb(0, 27, 173)" x="507.56" y="500.0" width="3.1" height="40"></rect>
    <text x="510.56" y="560.0">4:32</text>
    <text x="510.56" y="576.0">Min</text>
    <text x="419.06" y="608.0" font-size="24px">Pace (min / km)</text>
</svg>