<svg viewBox="0 0 1824 576" xmlns="http://www.w3.org/2000/svg">

<style>
  .month-1 {
    fill: #e2e2e2;
  }
  .month-2 {
    fill: #ccc;
  }
  text {
    font-family: Arial;
    text-anchor: middle;
  }
  .axis-label {
    font-size: 24px;
    dominant-baseline: middle;
  }
  circle {
    fill-opacity: 0.7;
    stroke: white;
  }
  .cross {
    opacity: 0.7;
    stroke: rgb(60, 52, 52);
    stroke-width: 3;
    stroke-linecap: round;
  }
  .count {
    font-size: 17px;
    dominant-baseline: middle;
  }
  .title {
    font-size: 40px;
    dominant-baseline: middle;
    fill: #222;
  }
  .subtitle {
    font-size: 24px;
    dominant-baseline: middle;
    fill: #777;
  }
  </style>

    <g class="axis-label">
        <text x="48.0" y="176.0">M</text>
        <text x="48.0" y="208.0">T</text>
        <text x="48.0" y="240.0">W</text>
        <text x="48.0" y="272.0">T</text>
        <text x="48.0" y="304.0">F</text>
        <text x="48.0" y="336.0">S</text>
        <text x="48.0" y="368.0">S</text>
        <g transform="translate(144.0 128)">
            <text>Jan</text>
            <text y="22.4" class="count">6 runs | 29 km</text>
        </g>
        <g transform="translate(288.0 128)">
            <text>Feb</text>
            <text y="22.4" class="count">7 runs | 36 km</text>
        </g>
        <g transform="translate(416.0 128)">
            <text>Mar</text>
            <text y="22.4" class="count">11 runs | 66 km</text>
        </g>
        <g transform="translate(560.0 128)">
            <text>Apr</text>
        </g>
        <g transform="translate(704.0 128)">
            <text>May</text>
        </g>
        <g transform="translate(832.0 128)">
            <text>Jun</text>
        </g>
        <g transform="translate(976.0 128)">
            <text>Jul</text>
        </g>
        <g transform="translate(1120.0 128)">
            <text>Aug</text>
        </g>
        <g transform="translate(1264.0 128)">
            <text>Sep</text>
        </g>
        <g transform="translate(1408.0 128)">
            <text>Oct</text>
        </g>
        <g transform="translate(1536.0 128)">
            <text>Nov</text>
        </g>
        <g transform="translate(1680.0 128)">
            <text>Dec</text>
        </g>
    </g>
    <rect class="month-2" x="64" y="160" width="31" height="31"></rect>
    <rect class="month-2" x="64" y="192" width="31" height="31"></rect>
    <rect class="month-2" x="64" y="224" width="31" height="31"></rect>
    <rect class="month-2" x="64" y="256" width="31" height="31"></rect>
    <rect class="month-2" x="64" y="288" width="31" height="31"></rect>
    <rect class="month-2" x="64" y="320" width="31" height="31"></rect>
    <rect class="month-2" x="64" y="352" width="31" height="31"></rect>
    <rect class="month-2" x="96" y="160" width="31" height="31"></rect>
    <rect class="month-2" x="96" y="192" width="31" height="31"></rect>
    <rect class="month-2" x="96" y="224" width="31" height="31"></rect>
    <rect class="month-2" x="96" y="256" width="31" height="31"></rect>
    <rect class="month-2" x="96" y="288" width="31" height="31"></rect>
    <rect class="month-2" x="96" y="320" width="31" height="31"></rect>
    <rect class="month-2" x="96" y="352" width="31" height="31"></rect>
    <rect class="month-2" x="128" y="160" width="31" height="31"></rect>
    <rect class="month-2" x="128" y="192" width="31" height="31"></rect>
    <rect class="month-2" x="128" y="224" width="31" height="31"></rect>
    <rect class="month-2" x="128" y="256" width="31" height="31"></rect>
    <rect class="month-2" x="128" y="288" width="31" height="31"></rect>
    <rect class="month-2" x="128" y="320" width="31" height="31"></rect>
    <rect class="month-2" x="128" y="352" width="31" height="31"></rect>
    <rect class="month-2" x="160" y="160" width="31" height="31"></rect>
    <rect class="month-2" x="160" y="192" width="31" height="31"></rect>
    <rect class="month-2" x="160" y="224" width="31" height="31"></rect>
    <rect class="month-2" x="160" y="256" width="31" height="31"></rect>
    <rect class="month-2" x="160" y="288" width="31" height="31"></rect>
    <rect class="month-2" x="160" y="320" width="31" height="31"></rect>
    <rect class="month-2" x="160" y="352" width="31" height="31"></rect>
    <rect class="month-2" x="192" y="160" width="31" height="31"></rect>
    <rect class="month-2" x="192" y="192" width="31" height="31"></rect>
    <rect class="month-2" x="192" y="224" width="31" height="31"></rect>
    <rect class="month-1" x="192" y="256" width="31" height="31"></rect>
    <rect class="month-1" x="192" y="288" width="31" height="31"></rect>
    <rect class="month-1" x="192" y="320" width="31" height="31"></rect>
    <rect class="month-1" x="192" y="352" width="31" height="31"></rect>
    <rect class="month-1" x="224" y="160" width="31" height="31"></rect>
    <rect class="month-1" x="224" y="192" width="31" height="31"></rect>
    <rect class="month-1" x="224" y="224" width="31" height="31"></rect>
    <rect class="month-1" x="224" y="256" width="31" height="31"></rect>
    <rect class="month-1" x="224" y="288" width="31" height="31"></rect>
    <rect class="month-1" x="224" y="320" width="31" height="31"></rect>
    <rect class="month-1" x="224" y="352" width="31" height="31"></rect>
    <rect class="month-1" x="256" y="160" width="31" height="31"></rect>
    <rect class="month-1" x="256" y="192" width="31" height="31"></rect>
    <rect class="month-1" x="256" y="224" width="31" height="31"></rect>
    <rect class="month-1" x="256" y="256" width="31" height="31"></rect>
    <rect class="month-1" x="256" y="288" width="31" height="31"></rect>
    <rect class="month-1" x="256" y="320" width="31" height="31"></rect>
    <rect class="month-1" x="256" y="352" width="31" height="31"></rect>
    <rect class="month-1" x="288" y="160" width="31" height="31"></rect>
    <rect class="month-1" x="288" y="192" width="31" height="31"></rect>
    <rect class="month-1" x="288" y="224" width="31" height="31"></rect>
    <rect class="month-1" x="288" y="256" width="31" height="31"></rect>
    <rect class="month-1" x="288" y="288" width="31" height="31"></rect>
    <rect class="month-1" x="288" y="320" width="31" height="31"></rect>
    <rect class="month-1" x="288" y="352" width="31" height="31"></rect>
    <rect class="month-1" x="320" y="160" width="31" height="31"></rect>
    <rect class="month-1" x="320" y="192" width="31" height="31"></rect>
    <rect class="month-1" x="320" y="224" width="31" height="31"></rect>
    <rect class="month-1" x="320" y="256" width="31" height="31"></rect>
    <rect class="month-2" x="320" y="288" width="31" height="31"></rect>
    <rect class="month-2" x="320" y="320" width="31" height="31"></rect>
    <rect class="month-2" x="320" y="352" width="31" height="31"></rect>
    <rect class="month-2" x="352" y="160" width="31" height="31"></rect>
    <rect class="month-2" x="352" y="192" width="31" height="31"></rect>
    <rect class="month-2" x="352" y="224" width="31" height="31"></rect>
    <rect class="month-2" x="352" y="256" width="31" height="31"></rect>
    <rect class="month-2" x="352" y="288" width="31" height="31"></rect>
    <rect class="month-2" x="352" y="320" width="31" height="31"></rect>
    <rect class="month-2" x="352" y="352" width="31" height="31"></rect>
    <rect class="month-2" x="384" y="160" width="31" height="31"></rect>
    <rect class="month-2" x="384" y="192" width="31" height="31"></rect>
    <rect class="month-2" x="384" y="224" width="31" height="31"></rect>
    <rect class="month-2" x="384" y="256" width="31" height="31"></rect>
    <rect class="month-2" x="384" y="288" width="31" height="31"></rect>
    <rect class="month-2" x="384" y="320" width="31" height="31"></rect>
    <rect class="month-2" x="384" y="352" width="31" height="31"></rect>
    <rect class="month-2" x="416" y="160" width="31" height="31"></rect>
    <rect class="month-2" x="416" y="192" width="31" height="31"></rect>
    <rect class="month-2" x="416" y="224" width="31" height="31"></rect>
    <rect class="month-2" x="416" y="256" width="31" height="31"></rect>
    <rect class="month-2" x="416" y="288" width="31" height="31"></rect>
    <rect class="month-2" x="416" y="320" width="31" height="31"></rect>
    <rect class="month-2" x="416" y="352" width="31" height="31"></rect>
    <rect class="month-2" x="448" y="160" width="31" height="31"></rect>
    <rect class="month-2" x="448" y="192" width="31" height="31"></rect>
    <rect class="month-2" x="448" y="224" width="31" height="31"></rect>
    <rect class="month-2" x="448" y="256" width="31" height="31"></rect>
    <rect class="month-2" x="448" y="288" width="31" height="31"></rect>
    <rect class="month-2" x="448" y="320" width="31" height="31"></rect>
    <rect class="month-2" x="448" y="352" width="31" height="31"></rect>
    <rect class="month-1" x="480" y="160" width="31" height="31"></rect>
    <rect class="month-1" x="480" y="192" width="31" height="31"></rect>
    <rect class="month-1" x="480" y="224" width="31" height="31"></rect>
    <rect class="month-1" x="480" y="256" width="31" height="31"></rect>
    <rect class="month-1" x="480" y="288" width="31" height="31"></rect>
    <rect class="month-1" x="480" y="320" width="31" height="31"></rect>
    <rect class="month-1" x="480" y="352" width="31" height="31"></rect>
    <rect class="month-1" x="512" y="160" width="31" height="31"></rect>
    <rect class="month-1" x="512" y="192" width="31" height="31"></rect>
    <rect class="month-1" x="512" y="224" width="31" height="31"></rect>
    <rect class="month-1" x="512" y="256" width="31" height="31"></rect>
    <rect class="month-1" x="512" y="288" width="31" height="31"></rect>
    <rect class="month-1" x="512" y="320" width="31" height="31"></rect>
    <rect class="month-1" x="512" y="352" width="31" height="31"></rect>
    <rect class="month-1" x="544" y="160" width="31" height="31"></rect>
    <rect class="month-1" x="544" y="192" width="31" height="31"></rect>
    <rect class="month-1" x="544" y="224" width="31" height="31"></rect>
    <rect class="month-1" x="544" y="256" width="31" height="31"></rect>
    <rect class="month-1" x="544" y="288" width="31" height="31"></rect>
    <rect class="month-1" x="544" y="320" width="31" height="31"></rect>
    <rect class="month-1" x="544" y="352" width="31" height="31"></rect>
    <rect class="month-1" x="576" y="160" width="31" height="31"></rect>
    <rect class="month-1" x="576" y="192" width="31" height="31"></rect>
    <rect class="month-1" x="576" y="224" width="31" height="31"></rect>
    <rect class="month-1" x="576" y="256" width="31" height="31"></rect>
    <rect class="month-1" x="576" y="288" width="31" height="31"></rect>
    <rect class="month-1" x="576" y="320" width="31" height="31"></rect>
    <rect class="month-1" x="576" y="352" width="31" height="31"></rect>
    <rect class="month-1" x="608" y="160" width="31" height="31"></rect>
    <rect class="month-1" x="608" y="192" width="31" height="31"></rect>
    <rect class="month-2" x="608" y="224" width="31" height="31"></rect>
    <rect class="month-2" x="608" y="256" width="31" height="31"></rect>
    <rect class="month-2" x="608" y="288" width="31" height="31"></rect>
    <rect class="month-2" x="608" y="320" width="31" height="31"></rect>
    <rect class="month-2" x="608" y="352" width="31" height="31"></rect>
    <rect class="month-2" x="640" y="160" width="31" height="31"></rect>
    <rect class="month-2" x="640" y="192" width="31" height="31"></rect>
    <rect class="month-2" x="640" y="224" width="31" height="31"></rect>
    <rect class="month-2" x="640" y="256" width="31" height="31"></rect>
    <rect class="month-2" x="640" y="288" width="31" height="31"></rect>
    <rect class="month-2" x="640" y="320" width="31" height="31"></rect>
    <rect class="month-2" x="640" y="352" width="31" height="31"></rect>
    <rect class="month-2" x="672" y="160" width="31" height="31"></rect>
    <rect class="month-2" x="672" y="192" width="31" height="31"></rect>
    <rect class="month-2" x="672" y="224" width="31" height="31"></rect>
    <rect class="month-2" x="672" y="256" width="31" height="31"></rect>
    <rect class="month-2" x="672" y="288" width="31" height="31"></rect>
    <rect class="month-2" x="672" y="320" width="31" height="31"></rect>
    <rect class="month-2" x="672" y="352" width="31" height="31"></rect>
    <rect class="month-2" x="704" y="160" width="31" height="31"></rect>
    <rect class="month-2" x="704" y="192" width="31" height="31"></rect>
    <rect class="month-2" x="704" y="224" width="31" height="31"></rect>
    <rect class="month-2" x="704" y="256" width="31" height="31"></rect>
    <rect class="month-2" x="704" y="288" width="31" height="31"></rect>
    <rect class="month-2" x="704" y="320" width="31" height="31"></rect>
    <rect class="month-2" x="704" y="352" width="31" height="31"></rect>
    <rect class="month-2" x="736" y="160" width="31" height="31"></rect>
    <rect class="month-2" x="736" y="192" width="31" height="31"></rect>
    <rect class="month-2" x="736" y="224" width="31" height="31"></rect>
    <rect class="month-2" x="736" y="256" width="31" height="31"></rect>
    <rect class="month-2" x="736" y="288" width="31" height="31"></rect>
    <rect class="month-1" x="736" y="320" width="31" height="31"></rect>
    <rect class="month-1" x="736" y="352" width="31" height="31"></rect>
    <rect class="month-1" x="768" y="160" width="31" height="31"></rect>
    <rect class="month-1" x="768" y="192" width="31" height="31"></rect>
    <rect class="month-1" x="768" y="224" width="31" height="31"></rect>
    <rect class="month-1" x="768" y="256" width="31" height="31"></rect>
    <rect class="month-1" x="768" y="288" width="31" height="31"></rect>
    <rect class="month-1" x="768" y="320" width="31" height="31"></rect>
    <rect class="month-1" x="768" y="352" width="31" height="31"></rect>
    <rect class="month-1" x="800" y="160" width="31" height="31"></rect>
    <rect class="month-1" x="800" y="192" width="31" height="31"></rect>
    <rect class="month-1" x="800" y="224" width="31" height="31"></rect>
    <rect class="month-1" x="800" y="256" width="31" height="31"></rect>
    <rect class="month-1" x="800" y="288" width="31" height="31"></rect>
    <rect class="month-1" x="800" y="320" width="31" height="31"></rect>
    <rect class="month-1" x="800" y="352" width="31" height="31"></rect>
    <rect class="month-1" x="832" y="160" width="31" height="31"></rect>
    <rect class="month-1" x="832" y="192" width="31" height="31"></rect>
    <rect class="month-1" x="832" y="224" width="31" height="31"></rect>
    <rect class="month-1" x="832" y="256" width="31" height="31"></rect>
    <rect class="month-1" x="832" y="288" width="31" height="31"></rect>
    <rect class="month-1" x="832" y="320" width="31" height="31"></rect>
    <rect class="month-1" x="832" y="352" width="31" height="31"></rect>
    <rect class="month-1" x="864" y="160" width="31" height="31"></rect>
    <rect class="month-1" x="864" y="192" width="31" height="31"></rect>
    <rect class="month-1" x="864" y="224" width="31" height="31"></rect>
    <rect class="month-1" x="864" y="256" width="31" height="31"></rect>
    <rect class="month-1" x="864" y="288" width="31" height="31"></rect>
    <rect class="month-1" x="864" y="320" width="31" height="31"></rect>
    <rect class="month-1" x="864" y="352" width="31" height="31"></rect>
    <rect class="month-2" x="896" y="160" width="31" height="31"></rect>
    <rect class="month-2" x="896" y="192" width="31" height="31"></rect>
    <rect class="month-2" x="896" y="224" width="31" height="31"></rect>
    <rect class="month-2" x="896" y="256" width="31" height="31"></rect>
    <rect class="month-2" x="896" y="288" width="31" height="31"></rect>
    <rect class="month-2" x="896" y="320" width="31" height="31"></rect>
    <rect class="month-2" x="896" y="352" width="31" height="31"></rect>
    <rect class="month-2" x="928" y="160" width="31" height="31"></rect>
    <rect class="month-2" x="928" y="192" width="31" height="31"></rect>
    <rect class="month-2" x="928" y="224" width="31" height="31"></rect>
    <rect class="month-2" x="928" y="256" width="31" height="31"></rect>
    <rect class="month-2" x="928" y="288" width="31" height="31"></rect>
    <rect class="month-2" x="928" y="320" width="31" height="31"></rect>
    <rect class="month-2" x="928" y="352" width="31" height="31"></rect>
    <rect class="month-2" x="960" y="160" width="31" height="31"></rect>
    <rect class="month-2" x="960" y="192" width="31" height="31"></rect>
    <rect class="month-2" x="960" y="224" width="31" height="31"></rect>
    <rect class="month-2" x="960" y="256" width="31" height="31"></rect>
    <rect class="month-2" x="960" y="288" width="31" height="31"></rect>
    <rect class="month-2" x="960" y="320" width="31" height="31"></rect>
    <rect class="month-2" x="960" y="352" width="31" height="31"></rect>
    <rect class="month-2" x="992" y="160" width="31" height="31"></rect>
    <rect class="month-2" x="992" y="192" width="31" height="31"></rect>
    <rect class="month-2" x="992" y="224" width="31" height="31"></rect>
    <rect class="month-2" x="992" y="256" width="31" height="31"></rect>
    <rect class="month-2" x="992" y="288" width="31" height="31"></rect>
    <rect class="month-2" x="992" y="320" width="31" height="31"></rect>
    <rect class="month-2" x="992" y="352" width="31" height="31"></rect>
    <rect class="month-2" x="1024" y="160" width="31" height="31"></rect>
    <rect class="month-2" x="1024" y="192" width="31" height="31"></rect>
    <rect class="month-2" x="1024" y="224" width="31" height="31"></rect>
    <rect class="month-1" x="1024" y="256" width="31" height="31"></rect>
    <rect class="month-1" x="1024" y="288" width="31" height="31"></rect>
    <rect class="month-1" x="1024" y="320" width="31" height="31"></rect>
    <rect class="month-1" x="1024" y="352" width="31" height="31"></rect>
    <rect class="month-1" x="1056" y="160" width="31" height="31"></rect>
    <rect class="month-1" x="1056" y="192" width="31" height="31"></rect>
    <rect class="month-1" x="1056" y="224" width="31" height="31"></rect>
    <rect class="month-1" x="1056" y="256" width="31" height="31"></rect>
    <rect class="month-1" x="1056" y="288" width="31" height="31"></rect>
    <rect class="month-1" x="1056" y="320" width="31" height="31"></rect>
    <rect class="month-1" x="1056" y="352" width="31" height="31"></rect>
    <rect class="month-1" x="1088" y="160" width="31" height="31"></rect>
    <rect class="month-1" x="1088" y="192" width="31" height="31"></rect>
    <rect class="month-1" x="1088" y="224" width="31" height="31"></rect>
    <rect class="month-1" x="1088" y="256" width="31" height="31"></rect>
    <rect class="month-1" x="1088" y="288" width="31" height="31"></rect>
    <rect class="month-1" x="1088" y="320" width="31" height="31"></rect>
    <rect class="month-1" x="1088" y="352" width="31" height="31"></rect>
    <rect class="month-1" x="1120" y="160" width="31" height="31"></rect>
    <rect class="month-1" x="1120" y="192" width="31" height="31"></rect>
    <rect class="month-1" x="1120" y="224" width="31" height="31"></rect>
    <rect class="month-1" x="1120" y="256" width="31" height="31"></rect>
    <rect class="month-1" x="1120" y="288" width="31" height="31"></rect>
    <rect class="month-1" x="1120" y="320" width="31" height="31"></rect>
    <rect class="month-1" x="1120" y="352" width="31" height="31"></rect>
    <rect class="month-1" x="1152" y="160" width="31" height="31"></rect>
    <rect class="month-1" x="1152" y="192" width="31" height="31"></rect>
    <rect class="month-1" x="1152" y="224" width="31" height="31"></rect>
    <rect class="month-1" x="1152" y="256" width="31" height="31"></rect>
    <rect class="month-1" x="1152" y="288" width="31" height="31"></rect>
    <rect class="month-1" x="1152" y="320" width="31" height="31"></rect>
    <rect class="month-2" x="1152" y="352" width="31" height="31"></rect>
    <rect class="month-2" x="1184" y="160" width="31" height="31"></rect>
    <rect class="month-2" x="1184" y="192" width="31" height="31"></rect>
    <rect class="month-2" x="1184" y="224" width="31" height="31"></rect>
    <rect class="month-2" x="1184" y="256" width="31" height="31"></rect>
    <rect class="month-2" x="1184" y="288" width="31" height="31"></rect>
    <rect class="month-2" x="1184" y="320" width="31" height="31"></rect>
    <rect class="month-2" x="1184" y="352" width="31" height="31"></rect>
    <rect class="month-2" x="1216" y="160" width="31" height="31"></rect>
    <rect class="month-2" x="1216" y="192" width="31" height="31"></rect>
    <rect class="month-2" x="1216" y="224" width="31" height="31"></rect>
    <rect class="month-2" x="1216" y="256" width="31" height="31"></rect>
    <rect class="month-2" x="1216" y="288" width="31" height="31"></rect>
    <rect class="month-2" x="1216" y="320" width="31" height="31"></rect>
    <rect class="month-2" x="1216" y="352" width="31" height="31"></rect>
    <rect class="month-2" x="1248" y="160" width="31" height="31"></rect>
    <rect class="month-2" x="1248" y="192" width="31" height="31"></rect>
    <rect class="month-2" x="1248" y="224" width="31" height="31"></rect>
    <rect class="month-2" x="1248" y="256" width="31" height="31"></rect>
    <rect class="month-2" x="1248" y="288" width="31" height="31"></rect>
    <rect class="month-2" x="1248" y="320" width="31" height="31"></rect>
    <rect class="month-2" x="1248" y="352" width="31" height="31"></rect>
    <rect class="month-2" x="1280" y="160" width="31" height="31"></rect>
    <rect class="month-2" x="1280" y="192" width="31" height="31"></rect>
    <rect class="month-2" x="1280" y="224" width="31" height="31"></rect>
    <rect class="month-2" x="1280" y="256" width="31" height="31"></rect>
    <rect class="month-2" x="1280" y="288" width="31" height="31"></rect>
    <rect class="month-2" x="1280" y="320" width="31" height="31"></rect>
    <rect class="month-2" x="1280" y="352" width="31" height="31"></rect>
    <rect class="month-2" x="1312" y="160" width="31" height="31"></rect>
    <rect class="month-1" x="1312" y="192" width="31" height="31"></rect>
    <rect class="month-1" x="1312" y="224" width="31" height="31"></rect>
    <rect class="month-1" x="1312" y="256" width="31" height="31"></rect>
    <rect class="month-1" x="1312" y="288" width="31" height="31"></rect>
    <rect class="month-1" x="1312" y="320" width="31" height="31"></rect>
    <rect class="month-1" x="1312" y="352" width="31" height="31"></rect>
    <rect class="month-1" x="1344" y="160" width="31" height="31"></rect>
    <rect class="month-1" x="1344" y="192" width="31" height="31"></rect>
    <rect class="month-1" x="1344" y="224" width="31" height="31"></rect>
    <rect class="month-1" x="1344" y="256" width="31" height="31"></rect>
    <rect class="month-1" x="1344" y="288" width="31" height="31"></rect>
    <rect class="month-1" x="1344" y="320" width="31" height="31"></rect>
    <rect class="month-1" x="1344" y="352" width="31" height="31"></rect>
    <rect class="month-1" x="1376" y="160" width="31" height="31"></rect>
    <rect class="month-1" x="1376" y="192" width="31" height="31"></rect>
    <rect class="month-1" x="1376" y="224" width="31" height="31"></rect>
    <rect class="month-1" x="1376" y="256" width="31" height="31"></rect>
    <rect class="month-1" x="1376" y="288" width="31" height="31"></rect>
    <rect class="month-1" x="1376" y="320" width="31" height="31"></rect>
    <rect class="month-1" x="1376" y="352" width="31" height="31"></rect>
    <rect class="month-1" x="1408" y="160" width="31" height="31"></rect>
    <rect class="month-1" x="1408" y="192" width="31" height="31"></rect>
    <rect class="month-1" x="1408" y="224" width="31" height="31"></rect>
    <rect class="month-1" x="1408" y="256" width="31" height="31"></rect>
    <rect class="month-1" x="1408" y="288" width="31" height="31"></rect>
    <rect class="month-1" x="1408" y="320" width="31" height="31"></rect>
    <rect class="month-1" x="1408" y="352" width="31" height="31"></rect>
    <rect class="month-1" x="1440" y="160" width="31" height="31"></rect>
    <rect class="month-1" x="1440" y="192" width="31" height="31"></rect>
    <rect class="month-1" x="1440" y="224" width="31" height="31"></rect>
    <rect class="month-1" x="1440" y="256" width="31" height="31"></rect>
    <rect class="month-2" x="1440" y="288" width="31" height="31"></rect>
    <rect class="month-2" x="1440" y="320" width="31" height="31"></rect>
    <rect class="month-2" x="1440" y="352" width="31" height="31"></rect>
    <rect class="month-2" x="1472" y="160" width="31" height="31"></rect>
    <rect class="month-2" x="1472" y="192" width="31" height="31"></rect>
    <rect class="month-2" x="1472" y="224" width="31" height="31"></rect>
    <rect class="month-2" x="1472" y="256" width="31" height="31"></rect>
    <rect class="month-2" x="1472" y="288" width="31" height="31"></rect>
    <rect class="month-2" x="1472" y="320" width="31" height="31"></rect>
    <rect class="month-2" x="1472" y="352" width="31" height="31"></rect>
    <rect class="month-2" x="1504" y="160" width="31" height="31"></rect>
    <rect class="month-2" x="1504" y="192" width="31" height="31"></rect>
    <rect class="month-2" x="1504" y="224" width="31" height="31"></rect>
    <rect class="month-2" x="1504" y="256" width="31" height="31"></rect>
    <rect class="month-2" x="1504" y="288" width="31" height="31"></rect>
    <rect class="month-2" x="1504" y="320" width="31" height="31"></rect>
    <rect class="month-2" x="1504" y="352" width="31" height="31"></rect>
    <rect class="month-2" x="1536" y="160" width="31" height="31"></rect>
    <rect class="month-2" x="1536" y="192" width="31" height="31"></rect>
    <rect class="month-2" x="1536" y="224" width="31" height="31"></rect>
    <rect class="month-2" x="1536" y="256" width="31" height="31"></rect>
    <rect class="month-2" x="1536" y="288" width="31" height="31"></rect>
    <rect class="month-2" x="1536" y="320" width="31" height="31"></rect>
    <rect class="month-2" x="1536" y="352" width="31" height="31"></rect>
    <rect class="month-2" x="1568" y="160" width="31" height="31"></rect>
    <rect class="month-2" x="1568" y="192" width="31" height="31"></rect>
    <rect class="month-2" x="1568" y="224" width="31" height="31"></rect>
    <rect class="month-2" x="1568" y="256" width="31" height="31"></rect>
    <rect class="month-2" x="1568" y="288" width="31" height="31"></rect>
    <rect class="month-2" x="1568" y="320" width="31" height="31"></rect>
    <rect class="month-1" x="1568" y="352" width="31" height="31"></rect>
    <rect class="month-1" x="1600" y="160" width="31" height="31"></rect>
    <rect class="month-1" x="1600" y="192" width="31" height="31"></rect>
    <rect class="month-1" x="1600" y="224" width="31" height="31"></rect>
    <rect class="month-1" x="1600" y="256" width="31" height="31"></rect>
    <rect class="month-1" x="1600" y="288" width="31" height="31"></rect>
    <rect class="month-1" x="1600" y="320" width="31" height="31"></rect>
    <rect class="month-1" x="1600" y="352" width="31" height="31"></rect>
    <rect class="month-1" x="1632" y="160" width="31" height="31"></rect>
    <rect class="month-1" x="1632" y="192" width="31" height="31"></rect>
    <rect class="month-1" x="1632" y="224" width="31" height="31"></rect>
    <rect class="month-1" x="1632" y="256" width="31" height="31"></rect>
    <rect class="month-1" x="1632" y="288" width="31" height="31"></rect>
    <rect class="month-1" x="1632" y="320" width="31" height="31"></rect>
    <rect class="month-1" x="1632" y="352" width="31" height="31"></rect>
    <rect class="month-1" x="1664" y="160" width="31" height="31"></rect>
    <rect class="month-1" x="1664" y="192" width="31" height="31"></rect>
    <rect class="month-1" x="1664" y="224" width="31" height="31"></rect>
    <rect class="month-1" x="1664" y="256" width="31" height="31"></rect>
    <rect class="month-1" x="1664" y="288" width="31" height="31"></rect>
    <rect class="month-1" x="1664" y="320" width="31" height="31"></rect>
    <rect class="month-1" x="1664" y="352" width="31" height="31"></rect>
    <rect class="month-1" x="1696" y="160" width="31" height="31"></rect>
    <rect class="month-1" x="1696" y="192" width="31" height="31"></rect>
    <rect class="month-1" x="1696" y="224" width="31" height="31"></rect>
    <rect class="month-1" x="1696" y="256" width="31" height="31"></rect>
    <rect class="month-1" x="1696" y="288" width="31" height="31"></rect>
    <rect class="month-1" x="1696" y="320" width="31" height="31"></rect>
    <rect class="month-1" x="1696" y="352" width="31" height="31"></rect>
    <rect class="month-1" x="1728" y="160" width="31" height="31"></rect>
    <rect class="month-1" x="1728" y="192" width="31" height="31"></rect>
    <text x="912.0" y="36.0" class="title">2024</text>
    <text x="912.0" y="72" class="subtitle">24 runs | 130 km | 11hrs 30 mins | 5:17</text>
    <g class="count">
        <text x="1776.0" y="368.0">8</text>
        <text x="1776.0" y="240.0">4</text>
        <text x="1776.0" y="272.0">2</text>
        <text x="1776.0" y="208.0">3</text>
        <text x="1776.0" y="336.0">2</text>
        <text x="1776.0" y="176.0">3</text>
        <text x="1776.0" y="304.0">2</text>
        <text x="1776.0" y="400.0">24</text>
        <text x="80.0" y="400.0">1</text>
        <text x="112.0" y="400.0">1</text>
        <text x="144.0" y="400.0">1</text>
        <text x="176.0" y="400.0">2</text>
        <text x="208.0" y="400.0">2</text>
        <text x="240.0" y="400.0">1</text>
        <text x="272.0" y="400.0">2</text>
        <text x="304.0" y="400.0">2</text>
        <text x="336.0" y="400.0">2</text>
        <text x="368.0" y="400.0">2</text>
        <text x="400.0" y="400.0">4</text>
        <text x="432.0" y="400.0">3</text>
        <text x="464.0" y="400.0">1</text>
    </g>
    <circle fill="rgb(224, 114, 0)" cx="80.0" cy="368.0" r="10.687999999999999"></circle>
    <circle fill="rgb(170, 0, 0)" cx="112.0" cy="368.0" r="16.032"></circle>
    <circle fill="rgb(211, 52, 0)" cx="144.0" cy="368.0" r="16.032"></circle>
    <circle fill="rgb(209, 45, 0)" cx="176.0" cy="240.0" r="16.032"></circle>
    <circle fill="rgb(214, 65, 0)" cx="176.0" cy="368.0" r="17.28"></circle>
    <circle fill="rgb(232, 155, 0)" cx="208.0" cy="240.0" r="17.887999999999998"></circle>
    <circle fill="rgb(217, 84, 0)" cx="208.0" cy="368.0" r="17.824"></circle>
    <circle fill="rgb(231, 148, 0)" cx="240.0" cy="240.0" r="16.064"></circle>
    <circle fill="rgb(227, 131, 0)" cx="272.0" cy="272.0" r="15.552000000000001"></circle>
    <circle fill="rgb(240, 190, 0)" cx="272.0" cy="368.0" r="16.096"></circle>
    <circle fill="rgb(242, 200, 0)" cx="304.0" cy="208.0" r="16.064"></circle>
    <circle fill="rgb(242, 202, 0)" cx="304.0" cy="336.0" r="16.128"></circle>
    <circle fill="rgb(247, 226, 0)" cx="336.0" cy="176.0" r="16.128"></circle>
    <circle fill="rgb(213, 63, 0)" cx="336.0" cy="368.0" r="20.192"></circle>
    <circle fill="rgb(230, 237, 0)" cx="368.0" cy="208.0" r="16.096"></circle>
    <circle fill="rgb(235, 167, 0)" cx="368.0" cy="304.0" r="17.728"></circle>
    <circle fill="rgb(235, 166, 0)" cx="400.0" cy="176.0" r="16.064"></circle>
    <circle fill="rgb(237, 238, 0)" cx="400.0" cy="240.0" r="16.064"></circle>
    <circle fill="rgb(236, 172, 0)" cx="400.0" cy="304.0" r="16.032"></circle>
    <circle fill="rgb(219, 89, 0)" cx="400.0" cy="368.0" r="25.631999999999998"></circle>
    <circle fill="rgb(0, 166, 34)" cx="432.0" cy="208.0" r="16.064"></circle>
    <circle fill="rgb(238, 181, 0)" cx="432.0" cy="272.0" r="17.663999999999998"></circle>
    <circle fill="rgb(220, 97, 0)" cx="432.0" cy="336.0" r="32.128"></circle>
    <circle fill="rgb(74, 212, 0)" cx="464.0" cy="176.0" r="16.064"></circle>
    <circle fill="rgb(140, 140, 140)" cx="85.0" cy="485.312" r="10.687999999999999"></circle>
    <text x="85.0" y="512">3.34</text>
    <text x="85.0" y="528">Min</text>
    <circle fill="rgb(140, 140, 140)" cx="127.096" cy="479.904" r="16.096"></circle>
    <text x="127.096" y="512">5.03</text>
    <text x="127.096" y="528">Med</text>
    <circle fill="rgb(140, 140, 140)" cx="185.32" cy="463.872" r="32.128"></circle>
    <text x="185.32" y="512">10.04</text>
    <text x="185.32" y="528">Max</text>
    <text x="143.224" y="560" font-size="24px">Distance (km)</text>
    <text x="320" y="512">5:50</text>
    <text x="320" y="528">Max</text>
    <rect fill="rgb(167, 0, 0)" x="320" y="456.0" width="1.1" height="32"></rect>
    <rect fill="rgb(169, 0, 0)" x="321" y="456.0" width="1.1" height="32"></rect>
    <rect fill="rgb(171, 0, 0)" x="322" y="456.0" width="1.1" height="32"></rect>
    <rect fill="rgb(174, 0, 0)" x="323" y="456.0" width="1.1" height="32"></rect>
    <rect fill="rgb(176, 0, 0)" x="324" y="456.0" width="1.1" height="32"></rect>
    <rect fill="rgb(179, 0, 0)" x="325" y="456.0" width="1.1" height="32"></rect>
    <rect fill="rgb(181, 0, 0)" x="326" y="456.0" width="1.1" height="32"></rect>
    <rect fill="rgb(183, 0, 0)" x="327" y="456.0" width="1.1" height="32"></rect>
    <rect fill="rgb(186, 0, 0)" x="328" y="456.0" width="1.1" height="32"></rect>
    <rect fill="rgb(188, 0, 0)" x="329" y="456.0" width="1.1" height="32"></rect>
    <rect fill="rgb(190, 0, 0)" x="330" y="456.0" width="1.1" height="32"></rect>
    <rect fill="rgb(193, 0, 0)" x="331" y="456.0" width="1.1" height="32"></rect>
    <rect fill="rgb(195, 0, 0)" x="332" y="456.0" width="1.1" height="32"></rect>
    <rect fill="rgb(198, 0, 0)" x="333" y="456.0" width="1.1" height="32"></rect>
    <rect fill="rgb(200, 0, 0)" x="334" y="456.0" width="1.1" height="32"></rect>
    <rect fill="rgb(200, 2, 0)" x="335" y="456.0" width="1.1" height="32"></rect>
    <rect fill="rgb(201, 4, 0)" x="336" y="456.0" width="1.1" height="32"></rect>
    <rect fill="rgb(201, 6, 0)" x="337" y="456.0" width="1.1" height="32"></rect>
    <rect fill="rgb(202, 8, 0)" x="338" y="456.0" width="1.1" height="32"></rect>
    <rect fill="rgb(202, 9, 0)" x="339" y="456.0" width="1.1" height="32"></rect>
    <rect fill="rgb(202, 11, 0)" x="340" y="456.0" width="1.1" height="32"></rect>
    <rect fill="rgb(203, 13, 0)" x="341" y="456.0" width="1.1" height="32"></rect>
    <rect fill="rgb(203, 15, 0)" x="342" y="456.0" width="1.1" height="32"></rect>
    <rect fill="rgb(204, 17, 0)" x="343" y="456.0" width="1.1" height="32"></rect>
    <rect fill="rgb(204, 19, 0)" x="344" y="456.0" width="1.1" height="32"></rect>
    <rect fill="rgb(204, 21, 0)" x="345" y="456.0" width="1.1" height="32"></rect>
    <rect fill="rgb(205, 23, 0)" x="346" y="456.0" width="1.1" height="32"></rect>
    <rect fill="rgb(205, 25, 0)" x="347" y="456.0" width="1.1" height="32"></rect>
    <rect fill="rgb(206, 26, 0)" x="348" y="456.0" width="1.1" height="32"></rect>
    <rect fill="rgb(206, 28, 0)" x="349" y="456.0" width="1.1" height="32"></rect>
    <rect fill="rgb(206, 30, 0)" x="350" y="456.0" width="1.1" height="32"></rect>
    <rect fill="rgb(207, 32, 0)" x="351" y="456.0" width="1.1" height="32"></rect>
    <rect fill="rgb(207, 34, 0)" x="352" y="456.0" width="1.1" height="32"></rect>
    <rect fill="rgb(207, 36, 0)" x="353" y="456.0" width="1.1" height="32"></rect>
    <rect fill="rgb(208, 38, 0)" x="354" y="456.0" width="1.1" height="32"></rect>
    <rect fill="rgb(208, 40, 0)" x="355" y="456.0" width="1.1" height="32"></rect>
    <rect fill="rgb(209, 42, 0)" x="356" y="456.0" width="1.1" height="32"></rect>
    <rect fill="rgb(209, 44, 0)" x="357" y="456.0" width="1.1" height="32"></rect>
    <rect fill="rgb(209, 45, 0)" x="358" y="456.0" width="1.1" height="32"></rect>
    <rect fill="rgb(210, 47, 0)" x="359" y="456.0" width="1.1" height="32"></rect>
    <rect fill="rgb(210, 49, 0)" x="360" y="456.0" width="1.1" height="32"></rect>
    <rect fill="rgb(211, 51, 0)" x="361" y="456.0" width="1.1" height="32"></rect>
    <rect fill="rgb(211, 53, 0)" x="362" y="456.0" width="1.1" height="32"></rect>
    <rect fill="rgb(211, 55, 0)" x="363" y="456.0" width="1.1" height="32"></rect>
    <rect fill="rgb(212, 57, 0)" x="364" y="456.0" width="1.1" height="32"></rect>
    <rect fill="rgb(212, 59, 0)" x="365" y="456.0" width="1.1" height="32"></rect>
    <rect fill="rgb(213, 61, 0)" x="366" y="456.0" width="1.1" height="32"></rect>
    <rect fill="rgb(213, 63, 0)" x="367" y="456.0" width="1.1" height="32"></rect>
    <rect fill="rgb(213, 64, 0)" x="368" y="456.0" width="1.1" height="32"></rect>
    <rect fill="rgb(214, 66, 0)" x="369" y="456.0" width="1.1" height="32"></rect>
    <rect fill="rgb(214, 68, 0)" x="370" y="456.0" width="1.1" height="32"></rect>
    <rect fill="rgb(215, 70, 0)" x="371" y="456.0" width="1.1" height="32"></rect>
    <rect fill="rgb(215, 72, 0)" x="372" y="456.0" width="1.1" height="32"></rect>
    <rect fill="rgb(215, 74, 0)" x="373" y="456.0" width="1.1" height="32"></rect>
    <rect fill="rgb(216, 76, 0)" x="374" y="456.0" width="1.1" height="32"></rect>
    <rect fill="rgb(216, 78, 0)" x="375" y="456.0" width="1.1" height="32"></rect>
    <rect fill="rgb(217, 80, 0)" x="376" y="456.0" width="1.1" height="32"></rect>
    <rect fill="rgb(217, 82, 0)" x="377" y="456.0" width="1.1" height="32"></rect>
    <rect fill="rgb(217, 83, 0)" x="378" y="456.0" width="1.1" height="32"></rect>
    <rect fill="rgb(218, 85, 0)" x="379" y="456.0" width="1.1" height="32"></rect>
    <rect fill="rgb(218, 87, 0)" x="380" y="456.0" width="1.1" height="32"></rect>
    <rect fill="rgb(219, 89, 0)" x="381" y="456.0" width="1.1" height="32"></rect>
    <rect fill="rgb(219, 91, 0)" x="382" y="456.0" width="1.1" height="32"></rect>
    <rect fill="rgb(219, 93, 0)" x="383" y="456.0" width="1.1" height="32"></rect>
    <rect fill="rgb(220, 95, 0)" x="384" y="456.0" width="1.1" height="32"></rect>
    <rect fill="rgb(220, 97, 0)" x="385" y="456.0" width="1.1" height="32"></rect>
    <rect fill="rgb(221, 99, 0)" x="386" y="456.0" width="1.1" height="32"></rect>
    <rect fill="rgb(221, 101, 0)" x="387" y="456.0" width="1.1" height="32"></rect>
    <rect fill="rgb(221, 102, 0)" x="388" y="456.0" width="1.1" height="32"></rect>
    <rect fill="rgb(222, 104, 0)" x="389" y="456.0" width="1.1" height="32"></rect>
    <rect fill="rgb(222, 106, 0)" x="390" y="456.0" width="1.1" height="32"></rect>
    <rect fill="rgb(223, 108, 0)" x="391" y="456.0" width="1.1" height="32"></rect>
    <rect fill="rgb(223, 110, 0)" x="392" y="456.0" width="1.1" height="32"></rect>
    <rect fill="rgb(223, 112, 0)" x="393" y="456.0" width="1.1" height="32"></rect>
    <rect fill="rgb(224, 114, 0)" x="394" y="456.0" width="1.1" height="32"></rect>
    <rect fill="rgb(224, 116, 0)" x="395" y="456.0" width="1.1" height="32"></rect>
    <rect fill="rgb(225, 118, 0)" x="396" y="456.0" width="1.1" height="32"></rect>
    <rect fill="rgb(225, 120, 0)" x="397" y="456.0" width="1.1" height="32"></rect>
    <rect fill="rgb(225, 121, 0)" x="398" y="456.0" width="1.1" height="32"></rect>
    <rect fill="rgb(226, 123, 0)" x="399" y="456.0" width="1.1" height="32"></rect>
    <rect fill="rgb(226, 125, 0)" x="400" y="456.0" width="1.1" height="32"></rect>
    <rect fill="rgb(226, 127, 0)" x="401" y="456.0" width="1.1" height="32"></rect>
    <rect fill="rgb(227, 129, 0)" x="402" y="456.0" width="1.1" height="32"></rect>
    <rect fill="rgb(227, 131, 0)" x="403" y="456.0" width="1.1" height="32"></rect>
    <rect fill="rgb(228, 133, 0)" x="404" y="456.0" width="1.1" height="32"></rect>
    <rect fill="rgb(228, 135, 0)" x="405" y="456.0" width="1.1" height="32"></rect>
    <rect fill="rgb(228, 137, 0)" x="406" y="456.0" width="1.1" height="32"></rect>
    <rect fill="rgb(229, 139, 0)" x="407" y="456.0" width="1.1" height="32"></rect>
    <rect fill="rgb(229, 140, 0)" x="408" y="456.0" width="1.1" height="32"></rect>
    <rect fill="rgb(230, 142, 0)" x="409" y="456.0" width="1.1" height="32"></rect>
    <rect fill="rgb(230, 144, 0)" x="410" y="456.0" width="1.1" height="32"></rect>
    <rect fill="rgb(230, 146, 0)" x="411" y="456.0" width="1.1" height="32"></rect>
    <rect fill="rgb(231, 148, 0)" x="412" y="456.0" width="1.1" height="32"></rect>
    <rect fill="rgb(231, 150, 0)" x="413" y="456.0" width="1.1" height="32"></rect>
    <rect fill="rgb(232, 152, 0)" x="414" y="456.0" width="1.1" height="32"></rect>
    <rect fill="rgb(232, 154, 0)" x="415" y="456.0" width="1.1" height="32"></rect>
    <rect fill="rgb(232, 156, 0)" x="416" y="456.0" width="1.1" height="32"></rect>
    <text x="416" y="512">5:16</text>
    <text x="416" y="528">Med</text>
    <rect fill="rgb(233, 158, 0)" x="417" y="456.0" width="1.1" height="32"></rect>
    <rect fill="rgb(233, 159, 0)" x="418" y="456.0" width="1.1" height="32"></rect>
    <rect fill="rgb(234, 161, 0)" x="419" y="456.0" width="1.1" height="32"></rect>
    <rect fill="rgb(234, 163, 0)" x="420" y="456.0" width="1.1" height="32"></rect>
    <rect fill="rgb(234, 165, 0)" x="421" y="456.0" width="1.1" height="32"></rect>
    <rect fill="rgb(235, 167, 0)" x="422" y="456.0" width="1.1" height="32"></rect>
    <rect fill="rgb(235, 169, 0)" x="423" y="456.0" width="1.1" height="32"></rect>
    <rect fill="rgb(236, 171, 0)" x="424" y="456.0" width="1.1" height="32"></rect>
    <rect fill="rgb(236, 173, 0)" x="425" y="456.0" width="1.1" height="32"></rect>
    <rect fill="rgb(236, 175, 0)" x="426" y="456.0" width="1.1" height="32"></rect>
    <rect fill="rgb(237, 177, 0)" x="427" y="456.0" width="1.1" height="32"></rect>
    <rect fill="rgb(237, 178, 0)" x="428" y="456.0" width="1.1" height="32"></rect>
    <rect fill="rgb(238, 180, 0)" x="429" y="456.0" width="1.1" height="32"></rect>
    <rect fill="rgb(238, 182, 0)" x="430" y="456.0" width="1.1" height="32"></rect>
    <rect fill="rgb(238, 184, 0)" x="431" y="456.0" width="1.1" height="32"></rect>
    <rect fill="rgb(239, 186, 0)" x="432" y="456.0" width="1.1" height="32"></rect>
    <rect fill="rgb(239, 188, 0)" x="433" y="456.0" width="1.1" height="32"></rect>
    <rect fill="rgb(240, 190, 0)" x="434" y="456.0" width="1.1" height="32"></rect>
    <rect fill="rgb(240, 192, 0)" x="435" y="456.0" width="1.1" height="32"></rect>
    <rect fill="rgb(240, 194, 0)" x="436" y="456.0" width="1.1" height="32"></rect>
    <rect fill="rgb(241, 195, 0)" x="437" y="456.0" width="1.1" height="32"></rect>
    <rect fill="rgb(241, 197, 0)" x="438" y="456.0" width="1.1" height="32"></rect>
    <rect fill="rgb(242, 199, 0)" x="439" y="456.0" width="1.1" height="32"></rect>
    <rect fill="rgb(242, 201, 0)" x="440" y="456.0" width="1.1" height="32"></rect>
    <rect fill="rgb(242, 203, 0)" x="441" y="456.0" width="1.1" height="32"></rect>
    <rect fill="rgb(243, 205, 0)" x="442" y="456.0" width="1.1" height="32"></rect>
    <rect fill="rgb(243, 207, 0)" x="443" y="456.0" width="1.1" height="32"></rect>
    <rect fill="rgb(243, 209, 0)" x="444" y="456.0" width="1.1" height="32"></rect>
    <rect fill="rgb(244, 211, 0)" x="445" y="456.0" width="1.1" height="32"></rect>
    <rect fill="rgb(244, 213, 0)" x="446" y="456.0" width="1.1" height="32"></rect>
    <rect fill="rgb(245, 214, 0)" x="447" y="456.0" width="1.1" height="32"></rect>
    <rect fill="rgb(245, 216, 0)" x="448" y="456.0" width="1.1" height="32"></rect>
    <rect fill="rgb(245, 218, 0)" x="449" y="456.0" width="1.1" height="32"></rect>
    <rect fill="rgb(246, 220, 0)" x="450" y="456.0" width="1.1" height="32"></rect>
    <rect fill="rgb(246, 222, 0)" x="451" y="456.0" width="1.1" height="32"></rect>
    <rect fill="rgb(247, 224, 0)" x="452" y="456.0" width="1.1" height="32"></rect>
    <rect fill="rgb(247, 226, 0)" x="453" y="456.0" width="1.1" height="32"></rect>
    <rect fill="rgb(247, 228, 0)" x="454" y="456.0" width="1.1" height="32"></rect>
    <rect fill="rgb(248, 230, 0)" x="455" y="456.0" width="1.1" height="32"></rect>
    <rect fill="rgb(248, 232, 0)" x="456" y="456.0" width="1.1" height="32"></rect>
    <rect fill="rgb(249, 233, 0)" x="457" y="456.0" width="1.1" height="32"></rect>
    <rect fill="rgb(249, 235, 0)" x="458" y="456.0" width="1.1" height="32"></rect>
    <rect fill="rgb(249, 237, 0)" x="459" y="456.0" width="1.1" height="32"></rect>
    <rect fill="rgb(250, 239, 0)" x="460" y="456.0" width="1.1" height="32"></rect>
    <rect fill="rgb(247, 239, 0)" x="461" y="456.0" width="1.1" height="32"></rect>
    <rect fill="rgb(241, 239, 0)" x="462" y="456.0" width="1.1" height="32"></rect>
    <rect fill="rgb(235, 238, 0)" x="463" y="456.0" width="1.1" height="32"></rect>
    <rect fill="rgb(229, 237, 0)" x="464" y="456.0" width="1.1" height="32"></rect>
    <rect fill="rgb(223, 236, 0)" x="465" y="456.0" width="1.1" height="32"></rect>
    <rect fill="rgb(217, 235, 0)" x="466" y="456.0" width="1.1" height="32"></rect>
    <rect fill="rgb(211, 234, 0)" x="467" y="456.0" width="1.1" height="32"></rect>
    <rect fill="rgb(205, 233, 0)" x="468" y="456.0" width="1.1" height="32"></rect>
    <rect fill="rgb(199, 232, 0)" x="469" y="456.0" width="1.1" height="32"></rect>
    <rect fill="rgb(193, 231, 0)" x="470" y="456.0" width="1.1" height="32"></rect>
    <rect fill="rgb(187, 230, 0)" x="471" y="456.0" width="1.1" height="32"></rect>
    <rect fill="rgb(181, 229, 0)" x="472" y="456.0" width="1.1" height="32"></rect>
    <rect fill="rgb(175, 228, 0)" x="473" y="456.0" width="1.1" height="32"></rect>
    <rect fill="rgb(170, 227, 0)" x="474" y="456.0" width="1.1" height="32"></rect>
    <rect fill="rgb(164, 226, 0)" x="475" y="456.0" width="1.1" height="32"></rect>
    <rect fill="rgb(158, 225, 0)" x="476" y="456.0" width="1.1" height="32"></rect>
    <rect fill="rgb(152, 224, 0)" x="477" y="456.0" width="1.1" height="32"></rect>
    <rect fill="rgb(146, 223, 0)" x="478" y="456.0" width="1.1" height="32"></rect>
    <rect fill="rgb(140, 222, 0)" x="479" y="456.0" width="1.1" height="32"></rect>
    <rect fill="rgb(134, 221, 0)" x="480" y="456.0" width="1.1" height="32"></rect>
    <rect fill="rgb(128, 220, 0)" x="481" y="456.0" width="1.1" height="32"></rect>
    <rect fill="rgb(122, 220, 0)" x="482" y="456.0" width="1.1" height="32"></rect>
    <rect fill="rgb(116, 219, 0)" x="483" y="456.0" width="1.1" height="32"></rect>
    <rect fill="rgb(110, 218, 0)" x="484" y="456.0" width="1.1" height="32"></rect>
    <rect fill="rgb(104, 217, 0)" x="485" y="456.0" width="1.1" height="32"></rect>
    <rect fill="rgb(98, 216, 0)" x="486" y="456.0" width="1.1" height="32"></rect>
    <rect fill="rgb(92, 215, 0)" x="487" y="456.0" width="1.1" height="32"></rect>
    <rect fill="rgb(86, 214, 0)" x="488" y="456.0" width="1.1" height="32"></rect>
    <rect fill="rgb(81, 213, 0)" x="489" y="456.0" width="1.1" height="32"></rect>
    <rect fill="rgb(75, 212, 0)" x="490" y="456.0" width="1.1" height="32"></rect>
    <rect fill="rgb(69, 211, 0)" x="491" y="456.0" width="1.1" height="32"></rect>
    <rect fill="rgb(63, 210, 0)" x="492" y="456.0" width="1.1" height="32"></rect>
    <rect fill="rgb(57, 209, 0)" x="493" y="456.0" width="1.1" height="32"></rect>
    <rect fill="rgb(51, 208, 0)" x="494" y="456.0" width="1.1" height="32"></rect>
    <rect fill="rgb(45, 207, 0)" x="495" y="456.0" width="1.1" height="32"></rect>
    <rect fill="rgb(39, 206, 0)" x="496" y="456.0" width="1.1" height="32"></rect>
    <rect fill="rgb(33, 205, 0)" x="497" y="456.0" width="1.1" height="32"></rect>
    <rect fill="rgb(27, 204, 0)" x="498" y="456.0" width="1.1" height="32"></rect>
    <rect fill="rgb(21, 203, 0)" x="499" y="456.0" width="1.1" height="32"></rect>
    <rect fill="rgb(15, 202, 0)" x="500" y="456.0" width="1.1" height="32"></rect>
    <rect fill="rgb(9, 201, 0)" x="501" y="456.0" width="1.1" height="32"></rect>
    <rect fill="rgb(3, 201, 0)" x="502" y="456.0" width="1.1" height="32"></rect>
    <rect fill="rgb(0, 198, 2)" x="503" y="456.0" width="1.1" height="32"></rect>
    <rect fill="rgb(0, 193, 7)" x="504" y="456.0" width="1.1" height="32"></rect>
    <rect fill="rgb(0, 188, 12)" x="505" y="456.0" width="1.1" height="32"></rect>
    <rect fill="rgb(0, 184, 16)" x="506" y="456.0" width="1.1" height="32"></rect>
    <rect fill="rgb(0, 179, 21)" x="507" y="456.0" width="1.1" height="32"></rect>
    <rect fill="rgb(0, 174, 26)" x="508" y="456.0" width="1.1" height="32"></rect>
    <rect fill="rgb(0, 169, 31)" x="509" y="456.0" width="1.1" height="32"></rect>
    <rect fill="rgb(0, 165, 35)" x="510" y="456.0" width="1.1" height="32"></rect>
    <rect fill="rgb(0, 160, 40)" x="511" y="456.0" width="1.1" height="32"></rect>
    <text x="512" y="512">4:42</text>
    <text x="512" y="528">Min</text>
    <text x="416.0" y="560" font-size="24px">Pace (min / km)</text>
</svg>