<svg viewBox="0 0 2280 440" xmlns="http://www.w3.org/2000/svg">

<style>
  .month-1 {
    fill: #e2e2e2;
  }
  .month-2 {
    fill: #ccc;
  }
  text {
    font-family: Arial;
    text-anchor: middle;
  }
  .axis-label {
    font-size: 24px;
    dominant-baseline: middle;
  }
  circle {
    fill-opacity: 0.6;
    stroke: white;
  }
  .count {
    font-size: 16px;
    dominant-baseline: middle;
  }
  </style>

    <g class="axis-label">
        <text x="60.0" y="100.0">M</text>
        <text x="60.0" y="140.0">T</text>
        <text x="60.0" y="180.0">W</text>
        <text x="60.0" y="220.0">T</text>
        <text x="60.0" y="260.0">F</text>
        <text x="60.0" y="300.0">S</text>
        <text x="60.0" y="340.0">S</text>
        <text x="220.0" y="60.0">Jan</text>
        <text x="400.0" y="60.0">Feb</text>
        <text x="560.0" y="60.0">Mar</text>
        <text x="720.0" y="60.0">Apr</text>
        <text x="900.0" y="60.0">May</text>
        <text x="1080.0" y="60.0">Jun</text>
        <text x="1240.0" y="60.0">Jul</text>
        <text x="1420.0" y="60.0">Aug</text>
        <text x="1600.0" y="60.0">Sep</text>
        <text x="1780.0" y="60.0">Oct</text>
        <text x="1960.0" y="60.0">Nov</text>
        <text x="2120.0" y="60.0">Dec</text>
    </g>
    <rect class="month-2" x="80" y="280" width="39" height="39"></rect>
    <rect class="month-2" x="80" y="320" width="39" height="39"></rect>
    <rect class="month-2" x="120" y="80" width="39" height="39"></rect>
    <rect class="month-2" x="120" y="120" width="39" height="39"></rect>
    <rect class="month-2" x="120" y="160" width="39" height="39"></rect>
    <rect class="month-2" x="120" y="200" width="39" height="39"></rect>
    <rect class="month-2" x="120" y="240" width="39" height="39"></rect>
    <rect class="month-2" x="120" y="280" width="39" height="39"></rect>
    <rect class="month-2" x="120" y="320" width="39" height="39"></rect>
    <rect class="month-2" x="160" y="80" width="39" height="39"></rect>
    <rect class="month-2" x="160" y="120" width="39" height="39"></rect>
    <rect class="month-2" x="160" y="160" width="39" height="39"></rect>
    <rect class="month-2" x="160" y="200" width="39" height="39"></rect>
    <rect class="month-2" x="160" y="240" width="39" height="39"></rect>
    <rect class="month-2" x="160" y="280" width="39" height="39"></rect>
    <rect class="month-2" x="160" y="320" width="39" height="39"></rect>
    <rect class="month-2" x="200" y="80" width="39" height="39"></rect>
    <rect class="month-2" x="200" y="120" width="39" height="39"></rect>
    <rect class="month-2" x="200" y="160" width="39" height="39"></rect>
    <rect class="month-2" x="200" y="200" width="39" height="39"></rect>
    <rect class="month-2" x="200" y="240" width="39" height="39"></rect>
    <rect class="month-2" x="200" y="280" width="39" height="39"></rect>
    <rect class="month-2" x="200" y="320" width="39" height="39"></rect>
    <rect class="month-2" x="240" y="80" width="39" height="39"></rect>
    <rect class="month-2" x="240" y="120" width="39" height="39"></rect>
    <rect class="month-2" x="240" y="160" width="39" height="39"></rect>
    <rect class="month-2" x="240" y="200" width="39" height="39"></rect>
    <rect class="month-2" x="240" y="240" width="39" height="39"></rect>
    <rect class="month-2" x="240" y="280" width="39" height="39"></rect>
    <rect class="month-2" x="240" y="320" width="39" height="39"></rect>
    <rect class="month-2" x="280" y="80" width="39" height="39"></rect>
    <rect class="month-1" x="280" y="120" width="39" height="39"></rect>
    <rect class="month-1" x="280" y="160" width="39" height="39"></rect>
    <rect class="month-1" x="280" y="200" width="39" height="39"></rect>
    <rect class="month-1" x="280" y="240" width="39" height="39"></rect>
    <rect class="month-1" x="280" y="280" width="39" height="39"></rect>
    <rect class="month-1" x="280" y="320" width="39" height="39"></rect>
    <rect class="month-1" x="320" y="80" width="39" height="39"></rect>
    <rect class="month-1" x="320" y="120" width="39" height="39"></rect>
    <rect class="month-1" x="320" y="160" width="39" height="39"></rect>
    <rect class="month-1" x="320" y="200" width="39" height="39"></rect>
    <rect class="month-1" x="320" y="240" width="39" height="39"></rect>
    <rect class="month-1" x="320" y="280" width="39" height="39"></rect>
    <rect class="month-1" x="320" y="320" width="39" height="39"></rect>
    <rect class="month-1" x="360" y="80" width="39" height="39"></rect>
    <rect class="month-1" x="360" y="120" width="39" height="39"></rect>
    <rect class="month-1" x="360" y="160" width="39" height="39"></rect>
    <rect class="month-1" x="360" y="200" width="39" height="39"></rect>
    <rect class="month-1" x="360" y="240" width="39" height="39"></rect>
    <rect class="month-1" x="360" y="280" width="39" height="39"></rect>
    <rect class="month-1" x="360" y="320" width="39" height="39"></rect>
    <rect class="month-1" x="400" y="80" width="39" height="39"></rect>
    <rect class="month-1" x="400" y="120" width="39" height="39"></rect>
    <rect class="month-1" x="400" y="160" width="39" height="39"></rect>
    <rect class="month-1" x="400" y="200" width="39" height="39"></rect>
    <rect class="month-1" x="400" y="240" width="39" height="39"></rect>
    <rect class="month-1" x="400" y="280" width="39" height="39"></rect>
    <rect class="month-1" x="400" y="320" width="39" height="39"></rect>
    <rect class="month-1" x="440" y="80" width="39" height="39"></rect>
    <rect class="month-2" x="440" y="120" width="39" height="39"></rect>
    <rect class="month-2" x="440" y="160" width="39" height="39"></rect>
    <rect class="month-2" x="440" y="200" width="39" height="39"></rect>
    <rect class="month-2" x="440" y="240" width="39" height="39"></rect>
    <rect class="month-2" x="440" y="280" width="39" height="39"></rect>
    <rect class="month-2" x="440" y="320" width="39" height="39"></rect>
    <rect class="month-2" x="480" y="80" width="39" height="39"></rect>
    <rect class="month-2" x="480" y="120" width="39" height="39"></rect>
    <rect class="month-2" x="480" y="160" width="39" height="39"></rect>
    <rect class="month-2" x="480" y="200" width="39" height="39"></rect>
    <rect class="month-2" x="480" y="240" width="39" height="39"></rect>
    <rect class="month-2" x="480" y="280" width="39" height="39"></rect>
    <rect class="month-2" x="480" y="320" width="39" height="39"></rect>
    <rect class="month-2" x="520" y="80" width="39" height="39"></rect>
    <rect class="month-2" x="520" y="120" width="39" height="39"></rect>
    <rect class="month-2" x="520" y="160" width="39" height="39"></rect>
    <rect class="month-2" x="520" y="200" width="39" height="39"></rect>
    <rect class="month-2" x="520" y="240" width="39" height="39"></rect>
    <rect class="month-2" x="520" y="280" width="39" height="39"></rect>
    <rect class="month-2" x="520" y="320" width="39" height="39"></rect>
    <rect class="month-2" x="560" y="80" width="39" height="39"></rect>
    <rect class="month-2" x="560" y="120" width="39" height="39"></rect>
    <rect class="month-2" x="560" y="160" width="39" height="39"></rect>
    <rect class="month-2" x="560" y="200" width="39" height="39"></rect>
    <rect class="month-2" x="560" y="240" width="39" height="39"></rect>
    <rect class="month-2" x="560" y="280" width="39" height="39"></rect>
    <rect class="month-2" x="560" y="320" width="39" height="39"></rect>
    <rect class="month-2" x="600" y="80" width="39" height="39"></rect>
    <rect class="month-2" x="600" y="120" width="39" height="39"></rect>
    <rect class="month-2" x="600" y="160" width="39" height="39"></rect>
    <rect class="month-2" x="600" y="200" width="39" height="39"></rect>
    <rect class="month-1" x="600" y="240" width="39" height="39"></rect>
    <rect class="month-1" x="600" y="280" width="39" height="39"></rect>
    <rect class="month-1" x="600" y="320" width="39" height="39"></rect>
    <rect class="month-1" x="640" y="80" width="39" height="39"></rect>
    <rect class="month-1" x="640" y="120" width="39" height="39"></rect>
    <rect class="month-1" x="640" y="160" width="39" height="39"></rect>
    <rect class="month-1" x="640" y="200" width="39" height="39"></rect>
    <rect class="month-1" x="640" y="240" width="39" height="39"></rect>
    <rect class="month-1" x="640" y="280" width="39" height="39"></rect>
    <rect class="month-1" x="640" y="320" width="39" height="39"></rect>
    <rect class="month-1" x="680" y="80" width="39" height="39"></rect>
    <rect class="month-1" x="680" y="120" width="39" height="39"></rect>
    <rect class="month-1" x="680" y="160" width="39" height="39"></rect>
    <rect class="month-1" x="680" y="200" width="39" height="39"></rect>
    <rect class="month-1" x="680" y="240" width="39" height="39"></rect>
    <rect class="month-1" x="680" y="280" width="39" height="39"></rect>
    <rect class="month-1" x="680" y="320" width="39" height="39"></rect>
    <rect class="month-1" x="720" y="80" width="39" height="39"></rect>
    <rect class="month-1" x="720" y="120" width="39" height="39"></rect>
    <rect class="month-1" x="720" y="160" width="39" height="39"></rect>
    <rect class="month-1" x="720" y="200" width="39" height="39"></rect>
    <rect class="month-1" x="720" y="240" width="39" height="39"></rect>
    <rect class="month-1" x="720" y="280" width="39" height="39"></rect>
    <rect class="month-1" x="720" y="320" width="39" height="39"></rect>
    <rect class="month-1" x="760" y="80" width="39" height="39"></rect>
    <rect class="month-1" x="760" y="120" width="39" height="39"></rect>
    <rect class="month-1" x="760" y="160" width="39" height="39"></rect>
    <rect class="month-1" x="760" y="200" width="39" height="39"></rect>
    <rect class="month-1" x="760" y="240" width="39" height="39"></rect>
    <rect class="month-1" x="760" y="280" width="39" height="39"></rect>
    <rect class="month-2" x="760" y="320" width="39" height="39"></rect>
    <rect class="month-2" x="800" y="80" width="39" height="39"></rect>
    <rect class="month-2" x="800" y="120" width="39" height="39"></rect>
    <rect class="month-2" x="800" y="160" width="39" height="39"></rect>
    <rect class="month-2" x="800" y="200" width="39" height="39"></rect>
    <rect class="month-2" x="800" y="240" width="39" height="39"></rect>
    <rect class="month-2" x="800" y="280" width="39" height="39"></rect>
    <rect class="month-2" x="800" y="320" width="39" height="39"></rect>
    <rect class="month-2" x="840" y="80" width="39" height="39"></rect>
    <rect class="month-2" x="840" y="120" width="39" height="39"></rect>
    <rect class="month-2" x="840" y="160" width="39" height="39"></rect>
    <rect class="month-2" x="840" y="200" width="39" height="39"></rect>
    <rect class="month-2" x="840" y="240" width="39" height="39"></rect>
    <rect class="month-2" x="840" y="280" width="39" height="39"></rect>
    <rect class="month-2" x="840" y="320" width="39" height="39"></rect>
    <rect class="month-2" x="880" y="80" width="39" height="39"></rect>
    <rect class="month-2" x="880" y="120" width="39" height="39"></rect>
    <rect class="month-2" x="880" y="160" width="39" height="39"></rect>
    <rect class="month-2" x="880" y="200" width="39" height="39"></rect>
    <rect class="month-2" x="880" y="240" width="39" height="39"></rect>
    <rect class="month-2" x="880" y="280" width="39" height="39"></rect>
    <rect class="month-2" x="880" y="320" width="39" height="39"></rect>
    <rect class="month-2" x="920" y="80" width="39" height="39"></rect>
    <rect class="month-2" x="920" y="120" width="39" height="39"></rect>
    <rect class="month-2" x="920" y="160" width="39" height="39"></rect>
    <rect class="month-2" x="920" y="200" width="39" height="39"></rect>
    <rect class="month-2" x="920" y="240" width="39" height="39"></rect>
    <rect class="month-2" x="920" y="280" width="39" height="39"></rect>
    <rect class="month-2" x="920" y="320" width="39" height="39"></rect>
    <rect class="month-2" x="960" y="80" width="39" height="39"></rect>
    <rect class="month-2" x="960" y="120" width="39" height="39"></rect>
    <rect class="month-1" x="960" y="160" width="39" height="39"></rect>
    <rect class="month-1" x="960" y="200" width="39" height="39"></rect>
    <rect class="month-1" x="960" y="240" width="39" height="39"></rect>
    <rect class="month-1" x="960" y="280" width="39" height="39"></rect>
    <rect class="month-1" x="960" y="320" width="39" height="39"></rect>
    <rect class="month-1" x="1000" y="80" width="39" height="39"></rect>
    <rect class="month-1" x="1000" y="120" width="39" height="39"></rect>
    <rect class="month-1" x="1000" y="160" width="39" height="39"></rect>
    <rect class="month-1" x="1000" y="200" width="39" height="39"></rect>
    <rect class="month-1" x="1000" y="240" width="39" height="39"></rect>
    <rect class="month-1" x="1000" y="280" width="39" height="39"></rect>
    <rect class="month-1" x="1000" y="320" width="39" height="39"></rect>
    <rect class="month-1" x="1040" y="80" width="39" height="39"></rect>
    <rect class="month-1" x="1040" y="120" width="39" height="39"></rect>
    <rect class="month-1" x="1040" y="160" width="39" height="39"></rect>
    <rect class="month-1" x="1040" y="200" width="39" height="39"></rect>
    <rect class="month-1" x="1040" y="240" width="39" height="39"></rect>
    <rect class="month-1" x="1040" y="280" width="39" height="39"></rect>
    <rect class="month-1" x="1040" y="320" width="39" height="39"></rect>
    <rect class="month-1" x="1080" y="80" width="39" height="39"></rect>
    <rect class="month-1" x="1080" y="120" width="39" height="39"></rect>
    <rect class="month-1" x="1080" y="160" width="39" height="39"></rect>
    <rect class="month-1" x="1080" y="200" width="39" height="39"></rect>
    <rect class="month-1" x="1080" y="240" width="39" height="39"></rect>
    <rect class="month-1" x="1080" y="280" width="39" height="39"></rect>
    <rect class="month-1" x="1080" y="320" width="39" height="39"></rect>
    <rect class="month-1" x="1120" y="80" width="39" height="39"></rect>
    <rect class="month-1" x="1120" y="120" width="39" height="39"></rect>
    <rect class="month-1" x="1120" y="160" width="39" height="39"></rect>
    <rect class="month-1" x="1120" y="200" width="39" height="39"></rect>
    <rect class="month-2" x="1120" y="240" width="39" height="39"></rect>
    <rect class="month-2" x="1120" y="280" width="39" height="39"></rect>
    <rect class="month-2" x="1120" y="320" width="39" height="39"></rect>
    <rect class="month-2" x="1160" y="80" width="39" height="39"></rect>
    <rect class="month-2" x="1160" y="120" width="39" height="39"></rect>
    <rect class="month-2" x="1160" y="160" width="39" height="39"></rect>
    <rect class="month-2" x="1160" y="200" width="39" height="39"></rect>
    <rect class="month-2" x="1160" y="240" width="39" height="39"></rect>
    <rect class="month-2" x="1160" y="280" width="39" height="39"></rect>
    <rect class="month-2" x="1160" y="320" width="39" height="39"></rect>
    <rect class="month-2" x="1200" y="80" width="39" height="39"></rect>
    <rect class="month-2" x="1200" y="120" width="39" height="39"></rect>
    <rect class="month-2" x="1200" y="160" width="39" height="39"></rect>
    <rect class="month-2" x="1200" y="200" width="39" height="39"></rect>
    <rect class="month-2" x="1200" y="240" width="39" height="39"></rect>
    <rect class="month-2" x="1200" y="280" width="39" height="39"></rect>
    <rect class="month-2" x="1200" y="320" width="39" height="39"></rect>
    <rect class="month-2" x="1240" y="80" width="39" height="39"></rect>
    <rect class="month-2" x="1240" y="120" width="39" height="39"></rect>
    <rect class="month-2" x="1240" y="160" width="39" height="39"></rect>
    <rect class="month-2" x="1240" y="200" width="39" height="39"></rect>
    <rect class="month-2" x="1240" y="240" width="39" height="39"></rect>
    <rect class="month-2" x="1240" y="280" width="39" height="39"></rect>
    <rect class="month-2" x="1240" y="320" width="39" height="39"></rect>
    <rect class="month-2" x="1280" y="80" width="39" height="39"></rect>
    <rect class="month-2" x="1280" y="120" width="39" height="39"></rect>
    <rect class="month-2" x="1280" y="160" width="39" height="39"></rect>
    <rect class="month-2" x="1280" y="200" width="39" height="39"></rect>
    <rect class="month-2" x="1280" y="240" width="39" height="39"></rect>
    <rect class="month-2" x="1280" y="280" width="39" height="39"></rect>
    <rect class="month-2" x="1280" y="320" width="39" height="39"></rect>
    <rect class="month-1" x="1320" y="80" width="39" height="39"></rect>
    <rect class="month-1" x="1320" y="120" width="39" height="39"></rect>
    <rect class="month-1" x="1320" y="160" width="39" height="39"></rect>
    <rect class="month-1" x="1320" y="200" width="39" height="39"></rect>
    <rect class="month-1" x="1320" y="240" width="39" height="39"></rect>
    <rect class="month-1" x="1320" y="280" width="39" height="39"></rect>
    <rect class="month-1" x="1320" y="320" width="39" height="39"></rect>
    <rect class="month-1" x="1360" y="80" width="39" height="39"></rect>
    <rect class="month-1" x="1360" y="120" width="39" height="39"></rect>
    <rect class="month-1" x="1360" y="160" width="39" height="39"></rect>
    <rect class="month-1" x="1360" y="200" width="39" height="39"></rect>
    <rect class="month-1" x="1360" y="240" width="39" height="39"></rect>
    <rect class="month-1" x="1360" y="280" width="39" height="39"></rect>
    <rect class="month-1" x="1360" y="320" width="39" height="39"></rect>
    <rect class="month-1" x="1400" y="80" width="39" height="39"></rect>
    <rect class="month-1" x="1400" y="120" width="39" height="39"></rect>
    <rect class="month-1" x="1400" y="160" width="39" height="39"></rect>
    <rect class="month-1" x="1400" y="200" width="39" height="39"></rect>
    <rect class="month-1" x="1400" y="240" width="39" height="39"></rect>
    <rect class="month-1" x="1400" y="280" width="39" height="39"></rect>
    <rect class="month-1" x="1400" y="320" width="39" height="39"></rect>
    <rect class="month-1" x="1440" y="80" width="39" height="39"></rect>
    <rect class="month-1" x="1440" y="120" width="39" height="39"></rect>
    <rect class="month-1" x="1440" y="160" width="39" height="39"></rect>
    <rect class="month-1" x="1440" y="200" width="39" height="39"></rect>
    <rect class="month-1" x="1440" y="240" width="39" height="39"></rect>
    <rect class="month-1" x="1440" y="280" width="39" height="39"></rect>
    <rect class="month-1" x="1440" y="320" width="39" height="39"></rect>
    <rect class="month-1" x="1480" y="80" width="39" height="39"></rect>
    <rect class="month-1" x="1480" y="120" width="39" height="39"></rect>
    <rect class="month-1" x="1480" y="160" width="39" height="39"></rect>
    <rect class="month-2" x="1480" y="200" width="39" height="39"></rect>
    <rect class="month-2" x="1480" y="240" width="39" height="39"></rect>
    <rect class="month-2" x="1480" y="280" width="39" height="39"></rect>
    <rect class="month-2" x="1480" y="320" width="39" height="39"></rect>
    <rect class="month-2" x="1520" y="80" width="39" height="39"></rect>
    <rect class="month-2" x="1520" y="120" width="39" height="39"></rect>
    <rect class="month-2" x="1520" y="160" width="39" height="39"></rect>
    <rect class="month-2" x="1520" y="200" width="39" height="39"></rect>
    <rect class="month-2" x="1520" y="240" width="39" height="39"></rect>
    <rect class="month-2" x="1520" y="280" width="39" height="39"></rect>
    <rect class="month-2" x="1520" y="320" width="39" height="39"></rect>
    <rect class="month-2" x="1560" y="80" width="39" height="39"></rect>
    <rect class="month-2" x="1560" y="120" width="39" height="39"></rect>
    <rect class="month-2" x="1560" y="160" width="39" height="39"></rect>
    <rect class="month-2" x="1560" y="200" width="39" height="39"></rect>
    <rect class="month-2" x="1560" y="240" width="39" height="39"></rect>
    <rect class="month-2" x="1560" y="280" width="39" height="39"></rect>
    <rect class="month-2" x="1560" y="320" width="39" height="39"></rect>
    <rect class="month-2" x="1600" y="80" width="39" height="39"></rect>
    <rect class="month-2" x="1600" y="120" width="39" height="39"></rect>
    <rect class="month-2" x="1600" y="160" width="39" height="39"></rect>
    <rect class="month-2" x="1600" y="200" width="39" height="39"></rect>
    <rect class="month-2" x="1600" y="240" width="39" height="39"></rect>
    <rect class="month-2" x="1600" y="280" width="39" height="39"></rect>
    <rect class="month-2" x="1600" y="320" width="39" height="39"></rect>
    <rect class="month-2" x="1640" y="80" width="39" height="39"></rect>
    <rect class="month-2" x="1640" y="120" width="39" height="39"></rect>
    <rect class="month-2" x="1640" y="160" width="39" height="39"></rect>
    <rect class="month-2" x="1640" y="200" width="39" height="39"></rect>
    <rect class="month-2" x="1640" y="240" width="39" height="39"></rect>
    <rect class="month-1" x="1640" y="280" width="39" height="39"></rect>
    <rect class="month-1" x="1640" y="320" width="39" height="39"></rect>
    <rect class="month-1" x="1680" y="80" width="39" height="39"></rect>
    <rect class="month-1" x="1680" y="120" width="39" height="39"></rect>
    <rect class="month-1" x="1680" y="160" width="39" height="39"></rect>
    <rect class="month-1" x="1680" y="200" width="39" height="39"></rect>
    <rect class="month-1" x="1680" y="240" width="39" height="39"></rect>
    <rect class="month-1" x="1680" y="280" width="39" height="39"></rect>
    <rect class="month-1" x="1680" y="320" width="39" height="39"></rect>
    <rect class="month-1" x="1720" y="80" width="39" height="39"></rect>
    <rect class="month-1" x="1720" y="120" width="39" height="39"></rect>
    <rect class="month-1" x="1720" y="160" width="39" height="39"></rect>
    <rect class="month-1" x="1720" y="200" width="39" height="39"></rect>
    <rect class="month-1" x="1720" y="240" width="39" height="39"></rect>
    <rect class="month-1" x="1720" y="280" width="39" height="39"></rect>
    <rect class="month-1" x="1720" y="320" width="39" height="39"></rect>
    <rect class="month-1" x="1760" y="80" width="39" height="39"></rect>
    <rect class="month-1" x="1760" y="120" width="39" height="39"></rect>
    <rect class="month-1" x="1760" y="160" width="39" height="39"></rect>
    <rect class="month-1" x="1760" y="200" width="39" height="39"></rect>
    <rect class="month-1" x="1760" y="240" width="39" height="39"></rect>
    <rect class="month-1" x="1760" y="280" width="39" height="39"></rect>
    <rect class="month-1" x="1760" y="320" width="39" height="39"></rect>
    <rect class="month-1" x="1800" y="80" width="39" height="39"></rect>
    <rect class="month-1" x="1800" y="120" width="39" height="39"></rect>
    <rect class="month-1" x="1800" y="160" width="39" height="39"></rect>
    <rect class="month-1" x="1800" y="200" width="39" height="39"></rect>
    <rect class="month-1" x="1800" y="240" width="39" height="39"></rect>
    <rect class="month-1" x="1800" y="280" width="39" height="39"></rect>
    <rect class="month-1" x="1800" y="320" width="39" height="39"></rect>
    <rect class="month-1" x="1840" y="80" width="39" height="39"></rect>
    <rect class="month-2" x="1840" y="120" width="39" height="39"></rect>
    <rect class="month-2" x="1840" y="160" width="39" height="39"></rect>
    <rect class="month-2" x="1840" y="200" width="39" height="39"></rect>
    <rect class="month-2" x="1840" y="240" width="39" height="39"></rect>
    <rect class="month-2" x="1840" y="280" width="39" height="39"></rect>
    <rect class="month-2" x="1840" y="320" width="39" height="39"></rect>
    <rect class="month-2" x="1880" y="80" width="39" height="39"></rect>
    <rect class="month-2" x="1880" y="120" width="39" height="39"></rect>
    <rect class="month-2" x="1880" y="160" width="39" height="39"></rect>
    <rect class="month-2" x="1880" y="200" width="39" height="39"></rect>
    <rect class="month-2" x="1880" y="240" width="39" height="39"></rect>
    <rect class="month-2" x="1880" y="280" width="39" height="39"></rect>
    <rect class="month-2" x="1880" y="320" width="39" height="39"></rect>
    <rect class="month-2" x="1920" y="80" width="39" height="39"></rect>
    <rect class="month-2" x="1920" y="120" width="39" height="39"></rect>
    <rect class="month-2" x="1920" y="160" width="39" height="39"></rect>
    <rect class="month-2" x="1920" y="200" width="39" height="39"></rect>
    <rect class="month-2" x="1920" y="240" width="39" height="39"></rect>
    <rect class="month-2" x="1920" y="280" width="39" height="39"></rect>
    <rect class="month-2" x="1920" y="320" width="39" height="39"></rect>
    <rect class="month-2" x="1960" y="80" width="39" height="39"></rect>
    <rect class="month-2" x="1960" y="120" width="39" height="39"></rect>
    <rect class="month-2" x="1960" y="160" width="39" height="39"></rect>
    <rect class="month-2" x="1960" y="200" width="39" height="39"></rect>
    <rect class="month-2" x="1960" y="240" width="39" height="39"></rect>
    <rect class="month-2" x="1960" y="280" width="39" height="39"></rect>
    <rect class="month-2" x="1960" y="320" width="39" height="39"></rect>
    <rect class="month-2" x="2000" y="80" width="39" height="39"></rect>
    <rect class="month-2" x="2000" y="120" width="39" height="39"></rect>
    <rect class="month-2" x="2000" y="160" width="39" height="39"></rect>
    <rect class="month-1" x="2000" y="200" width="39" height="39"></rect>
    <rect class="month-1" x="2000" y="240" width="39" height="39"></rect>
    <rect class="month-1" x="2000" y="280" width="39" height="39"></rect>
    <rect class="month-1" x="2000" y="320" width="39" height="39"></rect>
    <rect class="month-1" x="2040" y="80" width="39" height="39"></rect>
    <rect class="month-1" x="2040" y="120" width="39" height="39"></rect>
    <rect class="month-1" x="2040" y="160" width="39" height="39"></rect>
    <rect class="month-1" x="2040" y="200" width="39" height="39"></rect>
    <rect class="month-1" x="2040" y="240" width="39" height="39"></rect>
    <rect class="month-1" x="2040" y="280" width="39" height="39"></rect>
    <rect class="month-1" x="2040" y="320" width="39" height="39"></rect>
    <rect class="month-1" x="2080" y="80" width="39" height="39"></rect>
    <rect class="month-1" x="2080" y="120" width="39" height="39"></rect>
    <rect class="month-1" x="2080" y="160" width="39" height="39"></rect>
    <rect class="month-1" x="2080" y="200" width="39" height="39"></rect>
    <rect class="month-1" x="2080" y="240" width="39" height="39"></rect>
    <rect class="month-1" x="2080" y="280" width="39" height="39"></rect>
    <rect class="month-1" x="2080" y="320" width="39" height="39"></rect>
    <rect class="month-1" x="2120" y="80" width="39" height="39"></rect>
    <rect class="month-1" x="2120" y="120" width="39" height="39"></rect>
    <rect class="month-1" x="2120" y="160" width="39" height="39"></rect>
    <rect class="month-1" x="2120" y="200" width="39" height="39"></rect>
    <rect class="month-1" x="2120" y="240" width="39" height="39"></rect>
    <rect class="month-1" x="2120" y="280" width="39" height="39"></rect>
    <rect class="month-1" x="2120" y="320" width="39" height="39"></rect>
    <rect class="month-1" x="2160" y="80" width="39" height="39"></rect>
    <rect class="month-1" x="2160" y="120" width="39" height="39"></rect>
    <rect class="month-1" x="2160" y="160" width="39" height="39"></rect>
    <rect class="month-1" x="2160" y="200" width="39" height="39"></rect>
    <rect class="month-1" x="2160" y="240" width="39" height="39"></rect>
    <rect class="month-1" x="2160" y="280" width="39" height="39"></rect>
    <g class="count">
        <text x="2220.0" y="340.0">18</text>
        <text x="2220.0" y="300.0">10</text>
        <text x="2220.0" y="220.0">20</text>
        <text x="2220.0" y="140.0">16</text>
        <text x="2220.0" y="260.0">9</text>
        <text x="2220.0" y="100.0">15</text>
        <text x="2220.0" y="180.0">15</text>
        <text x="140.0" y="380.0">1</text>
        <text x="180.0" y="380.0">1</text>
        <text x="220.0" y="380.0">1</text>
        <text x="260.0" y="380.0">1</text>
        <text x="300.0" y="380.0">1</text>
        <text x="340.0" y="380.0">1</text>
        <text x="380.0" y="380.0">1</text>
        <text x="420.0" y="380.0">2</text>
        <text x="460.0" y="380.0">1</text>
        <text x="500.0" y="380.0">2</text>
        <text x="540.0" y="380.0">3</text>
        <text x="580.0" y="380.0">3</text>
        <text x="620.0" y="380.0">2</text>
        <text x="660.0" y="380.0">3</text>
        <text x="700.0" y="380.0">3</text>
        <text x="740.0" y="380.0">2</text>
        <text x="780.0" y="380.0">2</text>
        <text x="820.0" y="380.0">2</text>
        <text x="860.0" y="380.0">2</text>
        <text x="900.0" y="380.0">4</text>
        <text x="940.0" y="380.0">1</text>
        <text x="980.0" y="380.0">2</text>
        <text x="1020.0" y="380.0">2</text>
        <text x="1060.0" y="380.0">3</text>
        <text x="1100.0" y="380.0">3</text>
        <text x="1140.0" y="380.0">3</text>
        <text x="1180.0" y="380.0">2</text>
        <text x="1220.0" y="380.0">3</text>
        <text x="1260.0" y="380.0">2</text>
        <text x="1300.0" y="380.0">2</text>
        <text x="1340.0" y="380.0">4</text>
        <text x="1420.0" y="380.0">3</text>
        <text x="1460.0" y="380.0">1</text>
        <text x="1500.0" y="380.0">2</text>
        <text x="1540.0" y="380.0">4</text>
        <text x="1580.0" y="380.0">3</text>
        <text x="1620.0" y="380.0">2</text>
        <text x="1660.0" y="380.0">4</text>
        <text x="1700.0" y="380.0">4</text>
        <text x="1740.0" y="380.0">3</text>
        <text x="1780.0" y="380.0">3</text>
        <text x="1820.0" y="380.0">4</text>
        <text x="1860.0" y="380.0">2</text>
        <text x="1900.0" y="380.0">2</text>
        <text x="1980.0" y="380.0">1</text>
    </g>
    <circle fill="rgb(188, 0, 0)" cx="140.0" cy="340.0" r="13.08"></circle>
    <circle fill="rgb(184, 0, 0)" cx="180.0" cy="340.0" r="21.16"></circle>
    <circle fill="rgb(201, 5, 0)" cx="220.0" cy="340.0" r="20.12"></circle>
    <circle fill="rgb(182, 0, 0)" cx="260.0" cy="300.0" r="20.76"></circle>
    <circle fill="rgb(200, 0, 0)" cx="300.0" cy="300.0" r="21.32"></circle>
    <circle fill="rgb(191, 0, 0)" cx="340.0" cy="300.0" r="20.04"></circle>
    <circle fill="rgb(204, 22, 0)" cx="380.0" cy="220.0" r="20.36"></circle>
    <circle fill="rgb(202, 9, 0)" cx="420.0" cy="140.0" r="18.4"></circle>
    <circle fill="rgb(204, 18, 0)" cx="420.0" cy="260.0" r="20.880000000000003"></circle>
    <circle fill="rgb(206, 27, 0)" cx="460.0" cy="300.0" r="20.16"></circle>
    <circle fill="rgb(206, 26, 0)" cx="500.0" cy="140.0" r="22.480000000000004"></circle>
    <circle fill="rgb(207, 33, 0)" cx="500.0" cy="300.0" r="21.6"></circle>
    <circle fill="rgb(214, 69, 0)" cx="540.0" cy="100.0" r="21.0"></circle>
    <circle fill="rgb(236, 171, 0)" cx="540.0" cy="220.0" r="19.48"></circle>
    <circle fill="rgb(210, 49, 0)" cx="540.0" cy="300.0" r="18.76"></circle>
    <circle fill="rgb(225, 122, 0)" cx="580.0" cy="140.0" r="22.04"></circle>
    <circle fill="rgb(235, 238, 0)" cx="580.0" cy="220.0" r="22.04"></circle>
    <circle fill="rgb(237, 179, 0)" cx="580.0" cy="340.0" r="21.879999999999995"></circle>
    <circle fill="rgb(213, 61, 0)" cx="620.0" cy="180.0" r="18.8"></circle>
    <circle fill="rgb(92, 215, 0)" cx="620.0" cy="340.0" r="22.0"></circle>
    <circle fill="rgb(233, 159, 0)" cx="660.0" cy="140.0" r="22.160000000000004"></circle>
    <circle fill="rgb(218, 86, 0)" cx="660.0" cy="220.0" r="21.559999999999995"></circle>
    <circle fill="rgb(248, 231, 0)" cx="660.0" cy="300.0" r="25.2"></circle>
    <circle fill="rgb(228, 135, 0)" cx="700.0" cy="100.0" r="18.96"></circle>
    <circle fill="rgb(240, 193, 0)" cx="700.0" cy="220.0" r="21.96"></circle>
    <circle fill="rgb(244, 210, 0)" cx="700.0" cy="340.0" r="21.68"></circle>
    <circle fill="rgb(241, 196, 0)" cx="740.0" cy="180.0" r="21.8"></circle>
    <circle fill="rgb(249, 234, 0)" cx="740.0" cy="340.0" r="26.239999999999995"></circle>
    <circle fill="rgb(215, 70, 0)" cx="780.0" cy="140.0" r="20.48"></circle>
    <circle fill="rgb(244, 212, 0)" cx="780.0" cy="300.0" r="32.4"></circle>
    <circle fill="rgb(62, 210, 0)" cx="820.0" cy="220.0" r="22.0"></circle>
    <circle fill="rgb(216, 235, 0)" cx="820.0" cy="340.0" r="25.68"></circle>
    <circle fill="rgb(226, 123, 0)" cx="860.0" cy="140.0" r="18.08"></circle>
    <circle fill="rgb(0, 172, 28)" cx="860.0" cy="220.0" r="22.24"></circle>
    <circle fill="rgb(157, 225, 0)" cx="900.0" cy="100.0" r="22.12"></circle>
    <circle fill="rgb(136, 222, 0)" cx="900.0" cy="180.0" r="22.199999999999996"></circle>
    <circle fill="rgb(246, 221, 0)" cx="900.0" cy="260.0" r="22.12"></circle>
    <circle fill="rgb(240, 192, 0)" cx="900.0" cy="340.0" r="26.16"></circle>
    <circle fill="rgb(247, 224, 0)" cx="940.0" cy="220.0" r="22.12"></circle>
    <circle fill="rgb(245, 215, 0)" cx="980.0" cy="220.0" r="22.160000000000004"></circle>
    <circle fill="rgb(109, 217, 0)" cx="980.0" cy="340.0" r="26.04"></circle>
    <circle fill="rgb(114, 218, 0)" cx="1020.0" cy="140.0" r="22.08"></circle>
    <circle fill="rgb(0, 85, 115)" cx="1020.0" cy="220.0" r="22.0"></circle>
    <circle fill="rgb(87, 214, 0)" cx="1060.0" cy="100.0" r="22.12"></circle>
    <circle fill="rgb(11, 202, 0)" cx="1060.0" cy="220.0" r="22.08"></circle>
    <circle fill="rgb(131, 221, 0)" cx="1060.0" cy="340.0" r="25.76"></circle>
    <circle fill="rgb(195, 231, 0)" cx="1100.0" cy="180.0" r="21.92"></circle>
    <circle fill="rgb(0, 26, 174)" cx="1100.0" cy="260.0" r="22.08"></circle>
    <circle fill="rgb(196, 0, 0)" cx="1100.0" cy="340.0" r="40.28"></circle>
    <circle fill="rgb(23, 204, 0)" cx="1140.0" cy="140.0" r="22.04"></circle>
    <circle fill="rgb(0, 141, 59)" cx="1140.0" cy="220.0" r="20.0"></circle>
    <circle fill="rgb(0, 189, 11)" cx="1140.0" cy="340.0" r="26.0"></circle>
    <circle fill="rgb(199, 232, 0)" cx="1180.0" cy="140.0" r="22.08"></circle>
    <circle fill="rgb(0, 59, 141)" cx="1180.0" cy="220.0" r="22.04"></circle>
    <circle fill="rgb(246, 223, 0)" cx="1220.0" cy="100.0" r="22.04"></circle>
    <circle fill="rgb(38, 206, 0)" cx="1220.0" cy="180.0" r="22.04"></circle>
    <circle fill="rgb(208, 233, 0)" cx="1220.0" cy="220.0" r="22.08"></circle>
    <circle fill="rgb(208, 233, 0)" cx="1260.0" cy="180.0" r="22.08"></circle>
    <circle fill="rgb(196, 231, 0)" cx="1260.0" cy="260.0" r="22.08"></circle>
    <circle fill="rgb(247, 240, 0)" cx="1300.0" cy="140.0" r="22.12"></circle>
    <circle fill="rgb(247, 225, 0)" cx="1300.0" cy="220.0" r="22.0"></circle>
    <circle fill="rgb(45, 207, 0)" cx="1340.0" cy="100.0" r="22.08"></circle>
    <circle fill="rgb(236, 170, 0)" cx="1340.0" cy="140.0" r="22.08"></circle>
    <circle fill="rgb(242, 201, 0)" cx="1340.0" cy="220.0" r="22.08"></circle>
    <circle fill="rgb(246, 223, 0)" cx="1340.0" cy="340.0" r="22.12"></circle>
    <circle fill="rgb(165, 226, 0)" cx="1420.0" cy="100.0" r="22.0"></circle>
    <circle fill="rgb(214, 234, 0)" cx="1420.0" cy="180.0" r="22.08"></circle>
    <circle fill="rgb(211, 234, 0)" cx="1420.0" cy="220.0" r="22.24"></circle>
    <circle fill="rgb(226, 124, 0)" cx="1460.0" cy="340.0" r="22.28"></circle>
    <circle fill="rgb(246, 223, 0)" cx="1500.0" cy="140.0" r="22.12"></circle>
    <circle fill="rgb(210, 234, 0)" cx="1500.0" cy="220.0" r="20.04"></circle>
    <circle fill="rgb(208, 233, 0)" cx="1540.0" cy="100.0" r="22.12"></circle>
    <circle fill="rgb(0, 142, 58)" cx="1540.0" cy="140.0" r="22.08"></circle>
    <circle fill="rgb(124, 220, 0)" cx="1540.0" cy="180.0" r="22.199999999999996"></circle>
    <circle fill="rgb(99, 216, 0)" cx="1540.0" cy="260.0" r="22.12"></circle>
    <circle fill="rgb(250, 239, 0)" cx="1580.0" cy="100.0" r="22.12"></circle>
    <circle fill="rgb(0, 170, 30)" cx="1580.0" cy="180.0" r="22.04"></circle>
    <circle fill="rgb(24, 204, 0)" cx="1580.0" cy="260.0" r="22.08"></circle>
    <circle fill="rgb(135, 222, 0)" cx="1620.0" cy="100.0" r="22.08"></circle>
    <circle fill="rgb(0, 148, 52)" cx="1620.0" cy="140.0" r="22.24"></circle>
    <circle fill="rgb(241, 196, 0)" cx="1660.0" cy="100.0" r="22.0"></circle>
    <circle fill="rgb(248, 230, 0)" cx="1660.0" cy="140.0" r="22.0"></circle>
    <circle fill="rgb(244, 211, 0)" cx="1660.0" cy="220.0" r="22.0"></circle>
    <circle fill="rgb(214, 68, 0)" cx="1660.0" cy="300.0" r="20.8"></circle>
    <circle fill="rgb(236, 173, 0)" cx="1700.0" cy="100.0" r="22.0"></circle>
    <circle fill="rgb(53, 209, 0)" cx="1700.0" cy="180.0" r="20.0"></circle>
    <circle fill="rgb(98, 216, 0)" cx="1700.0" cy="260.0" r="22.0"></circle>
    <circle fill="rgb(186, 230, 0)" cx="1700.0" cy="340.0" r="22.0"></circle>
    <circle fill="rgb(147, 224, 0)" cx="1740.0" cy="100.0" r="22.0"></circle>
    <circle fill="rgb(249, 234, 0)" cx="1740.0" cy="180.0" r="22.0"></circle>
    <circle fill="rgb(248, 230, 0)" cx="1740.0" cy="220.0" r="22.0"></circle>
    <circle fill="rgb(249, 237, 0)" cx="1780.0" cy="100.0" r="22.0"></circle>
    <circle fill="rgb(248, 230, 0)" cx="1780.0" cy="180.0" r="22.0"></circle>
    <circle fill="rgb(100, 216, 0)" cx="1780.0" cy="300.0" r="20.0"></circle>
    <circle fill="rgb(177, 228, 0)" cx="1820.0" cy="100.0" r="22.0"></circle>
    <circle fill="rgb(244, 239, 0)" cx="1820.0" cy="180.0" r="22.0"></circle>
    <circle fill="rgb(86, 214, 0)" cx="1820.0" cy="260.0" r="22.0"></circle>
    <circle fill="rgb(247, 224, 0)" cx="1820.0" cy="340.0" r="22.0"></circle>
    <circle fill="rgb(83, 213, 0)" cx="1860.0" cy="180.0" r="22.0"></circle>
    <circle fill="rgb(144, 223, 0)" cx="1860.0" cy="260.0" r="22.0"></circle>
    <circle fill="rgb(150, 224, 0)" cx="1900.0" cy="180.0" r="22.0"></circle>
    <circle fill="rgb(226, 236, 0)" cx="1900.0" cy="340.0" r="22.0"></circle>
    <circle fill="rgb(33, 205, 0)" cx="1980.0" cy="140.0" r="20.0"></circle>
</svg>