<svg width="100%" viewBox="0 0 800 745.3270651443921" xmlns="http://www.w3.org/2000/svg">

    <rect x="0" y="0" width="800" height="745.3270651443921" fill="#f0f0f0"/>
    <circle cx="344.04" cy="187.76" r="3" fill="#ff0000" opacity="0.5"/>
    <circle cx="248.62" cy="686.52" r="3" fill="#ff0000" opacity="0.5"/>
    <polyline points="344.04,187.76 355.38,212.51 367.25,236.24 370.86,258.93 372.41,278.53 383.75,303.81 398.19,322.89 410.57,340.43 420.89,357.96 420.89,384.78 413.15,409.03 403.35,434.3 395.1,457.51 388.91,484.33 382.72,510.12 370.86,531.27 352.29,551.38 348.68,567.89 352.29,590.58 347.13,613.28 334.75,638.55 321.86,657.63 295.55,664.34 271.31,673.62 248.62,686.52" stroke="#ff0000" fill="none" stroke-width="2" opacity="0.25"/>
    <circle cx="248.62" cy="686.52" r="3" fill="#ff0000" opacity="0.5"/>
    <circle cx="220.25" cy="701.99" r="3" fill="#ff0000" opacity="0.5"/>
    <polyline points="248.62,686.52 220.25,701.99" stroke="#ff0000" fill="none" stroke-width="2" opacity="0.25"/>
    <circle cx="220.25" cy="701.99" r="3" fill="#ff0000" opacity="0.5"/>
    <circle cx="544.16" cy="16.0" r="3" fill="#ff0000" opacity="0.5"/>
    <polyline points="220.25,701.99 192.91,717.98 168.16,729.33 139.27,728.3 118.64,722.11 99.04,715.4 83.05,709.73 61.39,700.44 40.76,680.84 22.71,654.54 16.0,636.49 16.0,613.79 20.13,593.16 25.8,570.98 28.38,547.26 37.15,521.98 46.43,502.38 55.72,480.2 64.48,459.57 72.22,438.43 78.93,419.34 87.18,395.62 94.91,372.41 96.98,350.74 96.98,332.17 98.01,313.09 101.1,288.85 108.84,268.22 117.61,253.26 128.44,232.63 141.34,212.51 153.2,195.49 167.12,175.89 185.18,159.9 208.39,150.1 233.14,141.34 254.29,125.35 280.08,115.55 297.62,106.26 320.83,100.07 334.75,85.11 349.2,69.13 364.67,56.23 385.3,47.46 409.03,40.76 430.17,38.18 454.93,35.6 478.66,31.99 496.19,26.32 519.92,18.06 544.16,16.0" stroke="#ff0000" fill="none" stroke-width="2" opacity="0.25"/>
    <circle cx="544.16" cy="16.0" r="3" fill="#ff0000" opacity="0.5"/>
    <circle cx="573.04" cy="17.55" r="3" fill="#ff0000" opacity="0.5"/>
    <polyline points="544.16,16.0 573.04,17.55" stroke="#ff0000" fill="none" stroke-width="2" opacity="0.25"/>
    <circle cx="573.04" cy="17.55" r="3" fill="#ff0000" opacity="0.5"/>
    <circle cx="695.29" cy="20.64" r="3" fill="#ff0000" opacity="0.5"/>
    <polyline points="573.04,17.55 601.41,19.09 622.04,18.06 645.25,17.03 671.04,17.55 695.29,20.64" stroke="#ff0000" fill="none" stroke-width="2" opacity="0.25"/>
    <circle cx="695.29" cy="20.64" r="3" fill="#ff0000" opacity="0.5"/>
    <circle cx="708.18" cy="26.32" r="3" fill="#ff0000" opacity="0.5"/>
    <polyline points="695.29,20.64 708.18,26.32" stroke="#ff0000" fill="none" stroke-width="2" opacity="0.25"/>
    <circle cx="708.18" cy="26.32" r="3" fill="#ff0000" opacity="0.5"/>
    <circle cx="344.04" cy="187.76" r="3" fill="#ff0000" opacity="0.5"/>
    <polyline points="708.18,26.32 717.46,49.01 726.23,70.16 732.94,95.95 734.48,119.67 747.38,142.37 763.37,158.36 784.0,181.57 768.01,205.29 747.9,221.8 726.23,237.79 703.54,256.35 683.42,272.86 659.7,289.88 633.91,291.94 606.57,291.43 588.52,294.01 559.63,292.46 535.91,293.49 517.86,296.59 495.16,299.68 480.2,315.15 460.6,333.72 441.52,340.94 420.89,357.96 410.57,340.43 398.19,322.89 383.75,303.81 372.41,278.53 370.86,258.93 367.25,236.24 355.38,212.51 344.04,187.76" stroke="#ff0000" fill="none" stroke-width="2" opacity="0.25"/>
    <circle cx="248.62" cy="686.52" r="3" fill="#ff0000" opacity="0.5"/>
    <circle cx="220.25" cy="701.99" r="3" fill="#ff0000" opacity="0.5"/>
    <polyline points="248.62,686.52 234.18,695.29 220.25,701.99" stroke="#ff0000" fill="none" stroke-width="2" opacity="0.25"/>
    <circle cx="708.18" cy="26.32" r="3" fill="#ff0000" opacity="0.5"/>
    <circle cx="695.29" cy="20.64" r="3" fill="#ff0000" opacity="0.5"/>
    <polyline points="708.18,26.32 695.29,20.64" stroke="#ff0000" fill="none" stroke-width="2" opacity="0.25"/>
    <circle cx="695.29" cy="20.64" r="3" fill="#ff0000" opacity="0.5"/>
    <circle cx="680.33" cy="37.15" r="3" fill="#ff0000" opacity="0.5"/>
    <polyline points="695.29,20.64 680.33,37.15" stroke="#ff0000" fill="none" stroke-width="2" opacity="0.25"/>
    <circle cx="680.33" cy="37.15" r="3" fill="#ff0000" opacity="0.5"/>
    <circle cx="624.62" cy="42.3" r="3" fill="#ff0000" opacity="0.5"/>
    <polyline points="680.33,37.15 655.57,44.37 624.62,42.3" stroke="#ff0000" fill="none" stroke-width="2" opacity="0.25"/>
    <circle cx="624.62" cy="42.3" r="3" fill="#ff0000" opacity="0.5"/>
    <circle cx="601.41" cy="19.09" r="3" fill="#ff0000" opacity="0.5"/>
    <polyline points="624.62,42.3 622.04,18.06 601.41,19.09" stroke="#ff0000" fill="none" stroke-width="2" opacity="0.25"/>
    <circle cx="601.41" cy="19.09" r="3" fill="#ff0000" opacity="0.5"/>
    <circle cx="334.75" cy="85.11" r="3" fill="#ff0000" opacity="0.5"/>
    <polyline points="601.41,19.09 573.04,17.55 544.16,16.0 519.92,18.06 496.19,26.32 478.66,31.99 454.93,35.6 430.17,38.18 409.03,40.76 385.3,47.46 364.67,56.23 349.2,69.13 334.75,85.11" stroke="#ff0000" fill="none" stroke-width="2" opacity="0.25"/>
    <circle cx="334.75" cy="85.11" r="3" fill="#ff0000" opacity="0.5"/>
    <circle cx="326.5" cy="121.74" r="3" fill="#ff0000" opacity="0.5"/>
    <polyline points="334.75,85.11 326.5,121.74" stroke="#ff0000" fill="none" stroke-width="2" opacity="0.25"/>
    <circle cx="326.5" cy="121.74" r="3" fill="#ff0000" opacity="0.5"/>
    <circle cx="344.04" cy="187.76" r="3" fill="#ff0000" opacity="0.5"/>
    <polyline points="326.5,121.74 331.14,144.95 337.85,162.48 344.04,187.76" stroke="#ff0000" fill="none" stroke-width="2" opacity="0.25"/>
    <circle cx="344.04" cy="187.76" r="3" fill="#ff0000" opacity="0.5"/>
    <circle cx="398.19" cy="322.89" r="3" fill="#ff0000" opacity="0.5"/>
    <polyline points="344.04,187.76 355.38,212.51 367.25,236.24 370.86,258.93 372.41,278.53 383.75,303.81 398.19,322.89" stroke="#ff0000" fill="none" stroke-width="2" opacity="0.25"/>
    <circle cx="350.23" cy="168.67" r="3" fill="#ff0000" opacity="0.5"/>
    <circle cx="344.04" cy="187.76" r="3" fill="#ff0000" opacity="0.5"/>
    <polyline points="350.23,168.67 344.04,187.76" stroke="#ff0000" fill="none" stroke-width="2" opacity="0.25"/>
    <circle cx="708.18" cy="26.32" r="3" fill="#ff0000" opacity="0.5"/>
    <circle cx="680.33" cy="37.15" r="3" fill="#ff0000" opacity="0.5"/>
    <polyline points="708.18,26.32 680.33,37.15" stroke="#ff0000" fill="none" stroke-width="2" opacity="0.25"/>
    <circle cx="624.62" cy="42.3" r="3" fill="#ff0000" opacity="0.5"/>
    <circle cx="601.41" cy="19.09" r="3" fill="#ff0000" opacity="0.5"/>
    <polyline points="624.62,42.3 601.41,19.09" stroke="#ff0000" fill="none" stroke-width="2" opacity="0.25"/>
    <circle cx="334.75" cy="85.11" r="3" fill="#ff0000" opacity="0.5"/>
    <circle cx="326.5" cy="121.74" r="3" fill="#ff0000" opacity="0.5"/>
    <polyline points="334.75,85.11 320.83,100.07 326.5,121.74" stroke="#ff0000" fill="none" stroke-width="2" opacity="0.25"/>
    <circle cx="220.25" cy="701.99" r="3" fill="#ff0000" opacity="0.5"/>
    <circle cx="208.39" cy="150.1" r="3" fill="#ff0000" opacity="0.5"/>
    <polyline points="220.25,701.99 192.91,717.98 168.16,729.33 139.27,728.3 118.64,722.11 99.04,715.4 83.05,709.73 61.39,700.44 40.76,680.84 22.71,654.54 16.0,636.49 16.0,613.79 20.13,593.16 25.8,570.98 28.38,547.26 37.15,521.98 46.43,502.38 55.72,480.2 64.48,459.57 72.22,438.43 78.93,419.34 87.18,395.62 94.91,372.41 96.98,350.74 96.98,332.17 98.01,313.09 101.1,288.85 108.84,268.22 117.61,253.26 128.44,232.63 141.34,212.51 153.2,195.49 167.12,175.89 185.18,159.9 208.39,150.1" stroke="#ff0000" fill="none" stroke-width="2" opacity="0.25"/>
    <circle cx="208.39" cy="150.1" r="3" fill="#ff0000" opacity="0.5"/>
    <circle cx="254.29" cy="125.35" r="3" fill="#ff0000" opacity="0.5"/>
    <polyline points="208.39,150.1 218.7,123.8 254.29,125.35" stroke="#ff0000" fill="none" stroke-width="2" opacity="0.25"/>
    <circle cx="254.29" cy="125.35" r="3" fill="#ff0000" opacity="0.5"/>
    <circle cx="320.83" cy="100.07" r="3" fill="#ff0000" opacity="0.5"/>
    <polyline points="254.29,125.35 280.08,115.55 297.62,106.26 320.83,100.07" stroke="#ff0000" fill="none" stroke-width="2" opacity="0.25"/>
    <circle cx="320.83" cy="100.07" r="3" fill="#ff0000" opacity="0.5"/>
    <circle cx="326.5" cy="121.74" r="3" fill="#ff0000" opacity="0.5"/>
    <polyline points="320.83,100.07 326.5,121.74" stroke="#ff0000" fill="none" stroke-width="2" opacity="0.25"/>
    <circle cx="344.04" cy="187.76" r="3" fill="#ff0000" opacity="0.5"/>
    <circle cx="355.38" cy="212.51" r="3" fill="#ff0000" opacity="0.5"/>
    <polyline points="344.04,187.76 355.38,212.51" stroke="#ff0000" fill="none" stroke-width="2" opacity="0.25"/>
    <circle cx="544.16" cy="16.0" r="3" fill="#ff0000" opacity="0.5"/>
    <circle cx="573.04" cy="17.55" r="3" fill="#ff0000" opacity="0.5"/>
    <polyline points="544.16,16.0 556.54,25.8 573.04,17.55" stroke="#ff0000" fill="none" stroke-width="2" opacity="0.25"/>
    <circle cx="601.41" cy="19.09" r="3" fill="#ff0000" opacity="0.5"/>
    <circle cx="496.19" cy="26.32" r="3" fill="#ff0000" opacity="0.5"/>
    <polyline points="601.41,19.09 573.04,17.55 544.16,16.0 519.92,18.06 496.19,26.32" stroke="#ff0000" fill="none" stroke-width="2" opacity="0.25"/>
    <circle cx="496.19" cy="26.32" r="3" fill="#ff0000" opacity="0.5"/>
    <circle cx="496.19" cy="26.32" r="3" fill="#ff0000" opacity="0.5"/>
    <polyline points="496.19,26.32 499.29,50.04 505.48,71.7 502.9,96.98 478.14,105.23 485.36,127.92 495.16,151.65 523.01,155.26 526.11,132.05 516.31,110.39 502.9,96.98 505.48,71.7 499.29,50.04 496.19,26.32" stroke="#ff0000" fill="none" stroke-width="2" opacity="0.25"/>
    <circle cx="496.19" cy="26.32" r="3" fill="#ff0000" opacity="0.5"/>
    <circle cx="334.75" cy="85.11" r="3" fill="#ff0000" opacity="0.5"/>
    <polyline points="496.19,26.32 478.66,31.99 454.93,35.6 430.17,38.18 409.03,40.76 385.3,47.46 364.67,56.23 349.2,69.13 334.75,85.11" stroke="#ff0000" fill="none" stroke-width="2" opacity="0.25"/>
</svg>